<?xml version="1.0" standalone="no"?>
<!DOCTYPE svg PUBLIC "-//W3C//DTD SVG 1.1//EN" "http://www.w3.org/Graphics/SVG/1.1/DTD/svg11.dtd" >
<svg>
<metadata>
Created by FontForge 20090914 at Mon Aug  7 08:46:47 2017
 By www-data
pass through the flow (Flow &#194;&#169; 1994 by Matt Chisholm &#38; Roland Berger. All rights reserved.)
</metadata>
<defs>
<font id="Flow" horiz-adv-x="582" >
  <font-face 
    font-family="Flow"
    font-weight="400"
    font-stretch="normal"
    units-per-em="1000"
    panose-1="0 0 4 0 0 0 0 0 0 0"
    ascent="800"
    descent="-200"
    x-height="441"
    cap-height="741.999"
    bbox="-766.999 -293.019 1702 1039"
    underline-thickness="20"
    underline-position="-123"
    unicode-range="U+0020-U+F002"
  />
<missing-glyph horiz-adv-x="500" 
d="M63 0v804h375v-804h-375zM125 63h250v679h-250v-679z" />
    <glyph glyph-name=".notdef" horiz-adv-x="500" 
d="M63 0v804h375v-804h-375zM125 63h250v679h-250v-679z" />
    <glyph glyph-name="space" unicode=" " horiz-adv-x="400" 
 />
    <glyph glyph-name="exclam" unicode="!" horiz-adv-x="246" 
d="M63 187c2 43.333 1.33398 127.001 -1.99902 251.001c-4 143.333 -10.667 228.333 -20 255c-4.66699 13.333 -7 21 -7 23c0 1.33301 2.66699 2.83301 8 4.5s8.33301 2.83398 9 3.50098c16.667 11.333 47.667 33.666 93 66.999c8 6 13.667 9 17 9
c2.66699 0 7.66699 -4.66699 15 -14c10.667 -14 17 -25 19 -33c2.66699 -8.66699 2.66699 -25.667 0 -51c-26 -274 -48 -457 -66 -549c-3.33301 -15.333 -7 -23 -11 -23c-1.33301 0 -10 2 -26 6c-12.667 3.33301 -20.334 6.66602 -23.001 9.99902
c-5.33301 6 -7.33301 19.667 -6 41zM69.001 126.001c-46 -30.667 -69 -60.666 -69 -89.999c0 -23.333 15.333 -35.333 46 -36c24 -0.666992 48 5 72 17c29.333 14 44 31.667 44 53c0 15.333 -8.66699 30.333 -26 45c4.66699 -6.66699 7 -13.667 7 -21
c0 -16 -7.5 -28.833 -22.5 -38.5s-31.167 -14.834 -48.5 -15.501c-20.667 -0.666992 -31 6 -31 20c0 12 9.33301 34 28 66z" />
    <glyph glyph-name="quotedbl" unicode="&#x22;" horiz-adv-x="495" 
d="M161 507c-17.333 16.667 -33.167 38.4971 -47.5 65.4971s-22.166 51.5 -23.499 73.5c83.333 10.667 125 33.334 125 68.001c0 22 -15.333 46 -46 72c5.33301 -8.66699 8 -17.334 8 -26.001c0 -19.333 -10 -35.666 -30 -48.999c-17.333 -11.333 -36.333 -17.333 -57 -18
c-26 -0.666992 -39 7.33301 -39 24c0 15.333 11.333 43 34 83c-58 -39.333 -87 -71.666 -87 -96.999c0 -9.33301 5.66699 -24.333 17 -45c21.333 -39.333 36.666 -64.666 45.999 -75.999c24 -29.333 57.333 -54.333 100 -75zM356.999 513.997c29.333 12.667 52 36 68 70
c13.333 28.667 20 61 20 97c0 50 -11.333 85 -34 105c4.66699 -8.66699 7 -17.667 7 -27c0 -20 -10 -36.333 -30 -49c-17.333 -11.333 -36.333 -17 -57 -17c-25.333 -0.666992 -38 7.33301 -38 24c0 15.333 11 43 33 83c-56.667 -38 -85 -75.333 -85 -112
c0 -29.333 19.333 -44.333 58 -45c32 -0.666992 61 5 87 17c8 -16 12 -31.667 12 -47c0 -29.333 -13.667 -62.333 -41 -99z" />
    <glyph glyph-name="numbersign" unicode="#" horiz-adv-x="457" 
d="M145 336c4 -0.666992 37.333 -10.666 100 -29.999v141c-22 7.33301 -55.333 17.666 -100 30.999v-142zM3 261.001c22.667 44.667 53.999 70.001 93.999 76.001v151c-8.66699 0.666992 -17 1 -25 1c-34 0 -57.667 -8.66699 -71 -26h-1c22.667 46 55 71.667 97 77v52h48
v-54c14.667 -2.66699 31.667 -7.33398 51 -14.001l49 -17v75h48v-86c14 -2.66699 27 -4 39 -4c34 0 57.333 9 70 27c-24.667 -50.667 -61 -76.667 -109 -78v-147c15.333 -2.66699 29.333 -4 42 -4c34 0 57.333 8.66699 70 26c-25.333 -51.333 -62.666 -77 -111.999 -77v-26
h-48v32c-22 8 -55.333 18.667 -100 32v-54h-48v63c-8 0.666992 -15.333 1 -22 1c-34 0 -57.667 -8.66699 -71 -26h-1z" />
    <glyph glyph-name="dollar" unicode="$" horiz-adv-x="554" 
d="M344 446v46.999l-21 3c1.33301 6.66699 2 13.334 2 20.001c0 40 -16.333 60.667 -49 62c-18 0.666992 -29 -10 -33 -32l-2 -67c-1.33301 -39.333 9.66699 -59 33 -59zM218 255.999c0 -12.667 -0.666992 -31.999 -2 -57.999c-1.33301 -20 6.66699 -30 24 -30
c13.333 0 48 10 104 30v47c-3.33301 -0.666992 -8.33301 -1.33398 -15 -2.00098c-36 -2 -73 2.33301 -111 13zM390 413c2 -32.667 3.66699 -62.334 5 -89.001c7.33301 10.667 12 19.334 14 26.001l9 36c0 14 -9.33301 23 -28 27zM218 370
c0.666992 -24.667 0.999023 -48.999 0.999023 -72.999c24.667 -8.66699 40.334 -14 47.001 -16c16 -4.66699 30.333 -7.33398 43 -8.00098c12 -0.666992 23.667 1.66602 35 6.99902v136c-26 -0.666992 -51 -7.66699 -75 -21c-26 -15.333 -43 -23.666 -51 -24.999z
M410.999 483.001l-27.0029 3.99902l2 -28c20 4 38.333 5.33301 55 4c41.333 -3.33301 62 -34 62 -92c0 -13.333 -0.666992 -24.666 -2 -33.999c-6 -40 -40.333 -68 -103 -84c1.33301 -36.667 2 -74.334 2 -113.001c0 -9.33301 -4.16699 -18 -12.5 -26s-17.5 -12 -27.5 -12
c-1.33301 0 -3.16602 -0.5 -5.49902 -1.5s-3.83301 -1.5 -4.5 -1.5c-4 0 -6 11 -6 33v54c-33.333 -10 -77 -24.333 -131 -43c-6 -2 -10.333 -3 -13 -3c-20 0 -30 10.667 -30 32c0 10.667 0.333008 27 1 49s1 38.333 1 49c-52 16.667 -98 25 -138 25
c-11.333 0 -22.666 -0.333008 -33.999 -1c40.667 16.667 83 24.334 127 23.001c16 -0.666992 31 -2.66699 45 -6l1 63c-20 7.33301 -30 38.333 -30 93c0 35.333 10.333 65.666 31 90.999v140l31 -14c0.666992 -30.667 1.66699 -62.667 3 -96
c24.667 14.667 51.334 21 80.001 19c20.667 -1.33301 40 -5.66602 58 -12.999c0.666992 32.667 1.66699 65.667 3 99l21 2c2 -37.333 4.33301 -77 7 -119c24.667 -18.667 37 -41.667 37 -69c0 -8 -1 -16 -3 -24z" />
    <glyph glyph-name="percent" unicode="%" horiz-adv-x="430" 
d="M381 553c-168.667 -320.667 -295.666 -514.335 -380.999 -581.002c15.333 70.667 41.666 141.334 78.999 212.001c24.667 46.667 66 114.834 124 204.501s99.333 158.167 124 205.5zM81.001 514.999c-43.333 -29.333 -65 -57.998 -65 -85.998
c0 -22 14.667 -33.333 44 -34c23.333 0 46.333 5.33301 69 16c28 13.333 42 30.333 42 51c0 14 -8.33301 28.333 -25 43c4 -6.66699 6 -13.667 6 -21c0 -14.667 -7.16699 -26.834 -21.5 -36.501s-29.5 -14.5 -45.5 -14.5c-20 -0.666992 -30 5.66602 -30 18.999
c0 11.333 8.66699 32.333 26 63zM252.001 170.001c-43.333 -29.333 -65 -58 -65 -86c0 -22 14.667 -33.333 44 -34c23.333 0 46.333 5.33301 69 16c28 13.333 42 30.333 42 51c0 14 -8.33301 28.333 -25 43c4 -6.66699 6 -13.667 6 -21
c0 -15.333 -7.16699 -27.666 -21.5 -36.999s-29.5 -14 -45.5 -14c-20 -0.666992 -30 5.66602 -30 18.999c0 11.333 8.66699 32.333 26 63z" />
    <glyph glyph-name="ampersand" unicode="&#x26;" horiz-adv-x="546" 
d="M269 106c-62.667 70 -110.332 144 -142.999 222c-40.667 -58 -61 -119 -61 -183c0 -66.667 25.667 -101.667 77 -105c49.333 -2.66699 91.666 19.333 126.999 66zM278.002 197l23 -37.999c4 9.33301 8.66699 19.666 14 30.999zM164.002 424.001
c33.333 32.667 51.667 68.333 55 107c1.33301 16 -2.33398 33.333 -11.001 52c-10 22 -22.333 33 -37 33c-21.333 0 -31.666 -29.333 -30.999 -88c0.666992 -28 8.66699 -62.667 24 -104zM383.003 172c-5.33301 -11.333 -20.001 -34.6709 -44.001 -70.0039
c50 -75.333 89.667 -128 119 -158c-54.667 34.667 -105 75.334 -151 122.001c-44 -44.667 -89 -67 -135 -67c-48.667 0 -88.667 11.333 -120 34c-36 26 -54 62.333 -54 109c0 41.333 13 87 39 137c23.333 44.667 45.333 75.334 66 92.001l5 4
c-16.667 49.333 -25.334 95 -26.001 137c-0.666992 34.667 7 63.667 23 87c18 26 43.667 39 77 39c28.667 0 53.334 -9.33301 74.001 -28s29.667 -42 27 -70c-4 -40.667 -17 -74 -39 -100c-8 -9.33301 -29.667 -27.666 -65 -54.999c21.333 -49.333 50 -104.666 86 -165.999
c18 7.33301 35.667 11 53 11c16 0 34 -4.66699 54 -14c32 -15.333 60 -23 84 -23c16 0 28.667 3.66699 38 11c-19.333 -24.667 -45.666 -37 -78.999 -37c-10 0 -20.667 1.66699 -32 5z" />
    <glyph glyph-name="quotesingle" unicode="'" horiz-adv-x="252" 
d="M115 514c30 12.667 53 35.999 69 69.999c13.333 28.667 20 61.334 20 98.001c0 49.333 -11.667 84 -35 104c5.33301 -8.66699 8 -17.334 8 -26.001c0 -19.333 -10 -35.666 -30 -48.999c-17.333 -11.333 -36.333 -17.333 -57 -18c-26 -0.666992 -39 7.33301 -39 24
c0 15.333 11.333 43 34 83c-56.667 -38 -85 -75.333 -85 -112c0 -29.333 19 -44.333 57 -45c32.667 -0.666992 61.667 5 87 17c8.66699 -16 13 -31.667 13 -47c0 -29.333 -14 -62.333 -42 -99z" />
    <glyph glyph-name="parenleft" unicode="(" horiz-adv-x="433" 
d="M194 10c-64 40 -96 101.999 -96 185.999c0 86 31.333 180.667 94 284c51.333 86 115.333 164.333 192 235c3.33301 2.66699 4.33301 5 3 7c-0.666992 2 -2.33398 2.66699 -5.00098 2c-98 -27.333 -186.167 -91.5 -264.5 -192.5s-117.5 -201.833 -117.5 -302.5
c0 -122.667 66.333 -199 199 -229c6.66699 -1.33301 10.334 -1.66602 11.001 -0.999023c0 0.666992 -1.66699 2.16699 -5 4.5s-7 4.5 -11 6.5z" />
    <glyph glyph-name="parenright" unicode=")" horiz-adv-x="432" 
d="M190 715c64 -40 96 -102.332 96 -186.999c0 -87.333 -31 -182 -93 -284c-52 -87.333 -116.333 -165.333 -193 -234c-2.66699 -2 -3.66699 -4.33301 -3 -7c0 -2.66699 1.66699 -3.66699 5 -3c97.333 26.667 185.333 90.667 264 192s118 202.333 118 303
c0 122.667 -66.333 199 -199 229c-6 1.33301 -9.33301 1.66602 -10 0.999023c0 -0.666992 1.66699 -2 5 -4z" />
    <glyph glyph-name="asterisk" unicode="*" horiz-adv-x="338" 
d="M193 798l26 -20l-38 -48c32.667 -5.33301 53 -8 61 -8c9.33301 0 24.666 7 45.999 21c-34.667 -31.333 -53.667 -48 -57 -50c-11.333 -7.33301 -24.666 -10.333 -39.999 -9l28 -38l-26 -19l-45 61l-46 -60l-26 20l38 49c-34.667 6 -56.667 9 -66 9c-12 0 -28 -8 -48 -24
c27.333 27.333 45 44 53 50c11.333 8.66699 23 13 35 13c5.33301 0 12 -0.333008 20 -1l-27 37l26 19l42 -58z" />
    <glyph glyph-name="plus" unicode="+" horiz-adv-x="368" 
d="M131 450h55.001v-100c45.333 -7.33301 72.333 -11 81 -11c10.667 0 27.667 7.66699 51 23l-59 -52c-12 -9.33301 -24.667 -14 -38 -14c-7.33301 0 -19 1.33301 -35 4v-87h-55v97c-41.333 6.66699 -67.333 10 -78 10c-13.333 0 -31 -8.33301 -53 -25
c30.667 30.667 50 49 58 55c12.667 9.33301 25.667 14 39 14c7.33301 0 18.666 -1.33301 33.999 -4v90z" />
    <glyph glyph-name="comma" unicode="," horiz-adv-x="236" 
d="M106 -116c26.667 11.333 47.333 32.668 62 64.001c12.667 27.333 19 57 19 89c0 45.333 -10.667 77.333 -32 96c4.66699 -8 7 -16 7 -24c0 -18.667 -8.5 -33.5 -25.5 -44.5s-35.167 -16.5 -54.5 -16.5c-23.333 -0.666992 -35 6.66602 -35 21.999
c0 14 10.333 39.333 31 76c-52 -35.333 -78 -69.333 -78 -102c0 -27.333 17.667 -41.333 53 -42c28.667 0 55 5.33301 79 16c7.33301 -14.667 11 -29 11 -43c0 -26.667 -12.333 -57 -37 -91z" />
    <glyph glyph-name="hyphen" unicode="-" horiz-adv-x="365" 
d="M0 295c30.667 30.667 50 49 58 55c12.667 9.33301 25.667 14 39 14c18.667 0 47 -4.16699 85 -12.5s66.333 -12.5 85 -12.5c10.667 0 27.667 7.66699 51 23l-59 -52c-12 -9.33301 -24.667 -14 -38 -14c-18 0 -45.5 4 -82.5 12s-64.833 12 -83.5 12
c-12.667 0 -31 -8.33301 -55 -25z" />
    <glyph glyph-name="hyphen" unicode="&#x2010;" horiz-adv-x="365" 
d="M0 295c30.667 30.667 50 49 58 55c12.667 9.33301 25.667 14 39 14c18.667 0 47 -4.16699 85 -12.5s66.333 -12.5 85 -12.5c10.667 0 27.667 7.66699 51 23l-59 -52c-12 -9.33301 -24.667 -14 -38 -14c-18 0 -45.5 4 -82.5 12s-64.833 12 -83.5 12
c-12.667 0 -31 -8.33301 -55 -25z" />
    <glyph glyph-name="period" unicode="." horiz-adv-x="219" 
d="M71 132c-47.333 -32 -71 -63.333 -71 -94c0 -24.667 16 -37.334 48 -38.001c24.667 -0.666992 49.667 5.33301 75 18c30.667 14 46 32.333 46 55c0 16 -9 31.667 -27 47c4.66699 -7.33301 7 -14.666 7 -21.999c0 -17.333 -7.83301 -31 -23.5 -41s-32.5 -15 -50.5 -15
c-21.333 -0.666992 -32 6 -32 20c0 12.667 9.33301 36 28 70z" />
    <glyph glyph-name="slash" unicode="/" horiz-adv-x="421" 
d="M381 583c-172 -324 -299 -518.001 -381 -582.001c14.667 70 41 141 79 213c24.667 47.333 66 115.833 124 205.5s99.333 157.834 124 204.501z" />
    <glyph glyph-name="zero" unicode="0" horiz-adv-x="453" 
d="M156 407c0 14 5.16699 25.667 15.5 35s22.5 14 36.5 14s26.167 -4.66699 36.5 -14s15.5 -21 15.5 -35s-5.16699 -25.667 -15.5 -35s-22.5 -14 -36.5 -14s-26.167 4.66699 -36.5 14s-15.5 21 -15.5 35zM233 617c-10.667 2 -21.333 3 -32 3
c-59.333 0 -108 -24.333 -146 -73c-34.667 -44 -53 -96.667 -55 -158c-2 -66 18.333 -118.333 61 -157c34.667 -31.333 73.667 -47.666 117 -48.999c48 -2 96.667 12 146 42c62.667 37.333 92.334 87.333 89.001 150c-2.66699 59.333 -20.334 106.5 -53.001 141.5
s-78 52.5 -136 52.5c31.333 -10 55.666 -35 72.999 -75c14.667 -32.667 22.334 -67.667 23.001 -105c0.666992 -35.333 -9 -71 -29 -107c-22.667 -40 -50.667 -61 -84 -63c-34.667 -2 -63.667 21.667 -87 71c-19.333 40.667 -29 80 -29 118
c0 41.333 11.667 84.666 35 129.999c26.667 54 58.667 81 96 81c4 0 7.66699 -0.666992 11 -2z" />
    <glyph glyph-name="one" unicode="1" horiz-adv-x="396" 
d="M356 218l-126 3l-17 465l-152 -194l89 51l-24 -322h-126l39 -37h272z" />
    <glyph glyph-name="two" unicode="2" horiz-adv-x="433" 
d="M97 434c-2.66699 19.333 2.00293 41.666 14.0029 66.999c13.333 28.667 29.666 43.334 48.999 44.001c30 1.33301 51.667 -16.334 65 -53.001c10.667 -27.333 15 -58 13 -92c-2 -44 -24.667 -83.667 -68 -119c-27.333 -22 -78.333 -51.667 -153 -89l330 -20l46 53l-76 -8
c-51.333 -6 -114.333 -9 -189 -9c80.667 64.667 124.667 100.667 132 108c45.333 46 69.333 96.667 72 152c2 37.333 -13.333 67.333 -46 90c-29.333 20 -63.333 30 -102 30c-50.667 0 -92.334 -15.667 -125.001 -47s-52.334 -72.666 -59.001 -123.999z" />
    <glyph glyph-name="three" unicode="3" horiz-adv-x="460" 
d="M0 150c18 -26.667 42.166 -49.167 72.499 -67.5s60.833 -27.5 91.5 -27.5c76.667 0 121.667 57.333 135 172c1.33301 11.333 2 24.333 2 39c0 75.333 -31 113 -93 113c-59.333 0 -123 -25.333 -191 -76l259 276l-269 10l403 63l-262 -250c26.667 10 53 15 79 15
c54 -0.666992 98 -22.334 132 -65.001c28.667 -36 42.334 -73.333 41.001 -112c-1.33301 -49.333 -19.333 -93.666 -54 -132.999c-44.667 -51.333 -109 -79 -193 -83c-42 -2 -79 16.667 -111 56c-11.333 14 -25.333 37.333 -42 70z" />
    <glyph glyph-name="four" unicode="4" horiz-adv-x="541" 
d="M399 297c44 -3.33301 78 -9.33203 102 -17.999c-34 0 -67.333 -0.333008 -100 -1c8.66699 -92.667 16.667 -149.334 24 -170.001c4.66699 -13.333 7 -21.333 7 -24c0 -1.33301 -2.66699 -2.83301 -8 -4.5s-8.33301 -2.83398 -9 -3.50098
c-16.667 -11.333 -47.667 -33.666 -93 -66.999c-8 -6 -13.667 -9 -17 -9s-8.33301 4.66699 -15 14c-14 20 -21 38.333 -21 55c0 10.667 0.333008 20.334 1 29.001c2.66699 36 6.66699 94 12 174c-138 -8.66699 -232 -25.334 -282 -50.001l354 443
c19.333 -2.66699 28.333 -20.667 27 -54c-2.66699 -52 3.33301 -156.667 18 -314zM118 291.001c54 5.33301 109.334 8.33301 166.001 9c9.33301 136 18.666 222.333 27.999 259z" />
    <glyph glyph-name="five" unicode="5" horiz-adv-x="473" 
d="M0 272c24.667 31.333 55.6641 58.334 92.9971 81.001c40.667 24 79.334 36 116.001 36c73.333 0 110 -50 110 -150c0 -12 -0.666992 -24.667 -2 -38c-8.66699 -113.333 -46.334 -170 -113.001 -170c-29.333 0 -63.666 10 -102.999 30c-8 4 -38.333 20.333 -91 49
c48.667 -73.333 110.334 -110 185.001 -110c57.333 0 108 20 152 60s71.333 88.667 82 146c2.66699 14.667 4 27.667 4 39c0 57.333 -24 103.333 -72 138c-43.333 30.667 -94.333 46 -153 46c-37.333 0 -71 -7.33301 -101 -22l-11 205c6.66699 0.666992 13.334 1 20.001 1
c18 0 43.667 -4.83301 77 -14.5s57 -14.5 71 -14.5c57.333 0 104.666 9.33301 141.999 28c-5.33301 -4 -14.666 -6 -27.999 -6c-18 0 -55.667 5.66699 -113 17c-60.667 12 -105.667 19 -135 21c-48.667 3.33301 -82.667 -2.33398 -102 -17.001z" />
    <glyph glyph-name="six" unicode="6" horiz-adv-x="478" 
d="M109 586c6 54.667 36.335 104.168 91.002 148.501s110 65.5 166 63.5c-13.333 1.33301 -26.333 2 -39 2c-101.333 0 -182 -36.333 -242 -109c-56.667 -68 -85 -153.667 -85 -257c0 -85.333 29 -149.333 87 -192c37.333 -27.333 72.666 -41 105.999 -41
c40.667 0 83.667 12.333 129 37c73.333 39.333 112 100.666 116 183.999c3.33301 60 -16.334 107.667 -59.001 143c-38.667 32 -88.667 48 -150 48c-43.333 0 -83.333 -9 -120 -27zM222.002 566.001c28 0 50.999 -22.001 68.999 -66.001c15.333 -35.333 23 -69 23 -101
s-8.33301 -64 -25 -96c-19.333 -38 -43.666 -57 -72.999 -57c-28 0 -50.667 21 -68 63c-14 32.667 -21 65.334 -21 98.001c0 30.667 8 63 24 97c19.333 41.333 43 62 71 62z" />
    <glyph glyph-name="seven" unicode="7" horiz-adv-x="475" 
d="M435 595l-435 -54l270 -3l-128 -193c-84 -134.667 -126 -242.334 -126 -323.001c0 -7.33301 0.333008 -14.666 1 -21.999z" />
    <glyph glyph-name="eight" unicode="8" horiz-adv-x="495" 
d="M151 596c-46 -12 -81.668 -35.168 -107.001 -69.501s-39.666 -75.833 -42.999 -124.5c-4.66699 -64 11.5 -115.667 48.5 -155s87.833 -61 152.5 -65c64 -4 121.333 14.5 172 55.5s77.667 93.5 81 157.5c2 44 -16 87.667 -54 131c-28.667 32 -59.334 56 -92.001 72
c22.667 18.667 34 43.334 34 74.001c0 29.333 -12 54 -36 74c-20.667 18 -46.667 29.333 -78 34c16 -8 30.667 -19.667 44 -35c16.667 -20 24.667 -41 24 -63c-1.33301 -20 -9.66602 -38 -24.999 -54s-32.666 -24 -51.999 -24c-20 0 -34.667 11.333 -44 34
c-6.66699 16.667 -9.33398 36.334 -8.00098 59.001c1.33301 30.667 11.333 55.5 30 74.5s43.334 28.5 74.001 28.5c-7.33301 0.666992 -14.333 1 -21 1c-56.667 0 -97.334 -19 -122.001 -57c-10.667 -16.667 -16 -34.334 -16 -53.001c0 -29.333 12.667 -61 38 -95z
M106.999 383.999c0 38.667 10.667 75.333 32 110c24 40 54.333 60 91 60c34.667 0 63.667 -21 87 -63c19.333 -35.333 29 -72 29 -110s-9.66699 -74.667 -29 -110c-23.333 -42 -52.333 -63 -87 -63c-36 0 -66.333 21.333 -91 64c-21.333 36.667 -32 74 -32 112z" />
    <glyph glyph-name="nine" unicode="9" horiz-adv-x="479" 
d="M73 2c12.667 -1.33301 25.667 -2.00098 39 -2.00098c101.333 0 182 36.333 242 109c56.667 68 85 153.667 85 257c0 78.667 -29 140.667 -87 186c-39.333 31.333 -75 47 -107 47c-47.333 0.666992 -93 -11.666 -137 -36.999c-68 -38.667 -104 -100 -108 -184
c-2.66699 -61.333 17 -109 59 -143c38 -30.667 88 -46 150 -46c46 0 86 8.33301 120 25c-5.33301 -54.667 -35.333 -104.167 -90 -148.5s-110 -65.5 -166 -63.5zM116 379.999c0 38 9.33398 75.667 28.001 113c22 44.667 50.333 67 85 67c33.333 0 59.666 -23 78.999 -69
c14 -35.333 21 -72.333 21 -111c0 -38 -8 -73.333 -24 -106c-20 -40 -47.333 -60 -82 -60s-62 20 -82 60c-16.667 32.667 -25 68 -25 106z" />
    <glyph glyph-name="colon" unicode=":" horiz-adv-x="226" 
d="M80 142c-52 -34.667 -78.001 -68.665 -78.001 -101.998c0 -26.667 17.667 -40.334 53 -41.001c26.667 -0.666992 54 5.66602 82 18.999c32.667 16.667 49 37 49 61c0 16.667 -9.66699 33.667 -29 51c4.66699 -8 7 -16.333 7 -25c0 -18 -9.33301 -33 -28 -45
c-15.333 -10 -32.666 -15.333 -51.999 -16c-23.333 -0.666992 -35 7 -35 23c0 13.333 10.333 38.333 31 75zM77.999 419.002c-52 -34.667 -78.001 -68.6641 -78.001 -101.997c0 -26.667 17.667 -40.334 53 -41.001c26.667 -0.666992 53.667 5.66602 81 18.999
c33.333 16 50 36 50 60c0 17.333 -9.66699 34.333 -29 51c4.66699 -8 7 -16 7 -24c0 -18 -9.33301 -33 -28 -45c-15.333 -10 -32.666 -15.333 -51.999 -16c-23.333 -0.666992 -35 6.66602 -35 21.999c0 14 10.333 39.333 31 76z" />
    <glyph glyph-name="semicolon" unicode=";" horiz-adv-x="230" 
d="M106 -119c26.667 10.667 47.333 32.001 62 64.001c12.667 27.333 19 57 19 89c0 45.333 -10.667 77.333 -32 96c4.66699 -8 7 -16.333 7 -25c0 -18 -9.33301 -33 -28 -45c-15.333 -10 -32.666 -15.333 -51.999 -16c-23.333 -0.666992 -35 7 -35 23
c0 13.333 10.333 38.333 31 75c-52 -34.667 -78 -68.667 -78 -102c0 -26.667 17.667 -40.334 53 -41.001c29.333 -0.666992 55.666 4.33301 78.999 15c7.33301 -14 11 -28.333 11 -43c0 -26.667 -12.333 -56.667 -37 -90zM83.999 379.001
c-52 -34.667 -78 -68.6641 -78 -101.997c0 -26.667 17.667 -40.334 53 -41.001c27.333 -0.666992 54.666 5.66602 81.999 18.999c32.667 15.333 49 35.333 49 60c0 17.333 -9.66699 34.333 -29 51c4.66699 -8 7 -16 7 -24c0 -18 -9.33301 -33 -28 -45
c-15.333 -10 -32.666 -15.333 -51.999 -16c-23.333 -0.666992 -35 6.66602 -35 21.999c0 14 10.333 39.333 31 76z" />
    <glyph glyph-name="less" unicode="&#x3c;" horiz-adv-x="527" 
d="M297 10c-29.333 18.667 -65.335 59.665 -108.002 122.998c-35.333 52.667 -64 101.667 -86 147c10.667 46.667 36.334 95.334 77.001 146.001c30.667 38 77.334 85 140.001 141l167 148l-3 9c-106 -28.667 -204 -78.667 -294 -150c-100 -79.333 -163.333 -166 -190 -260
c14.667 -62 50 -124.333 106 -187c61.333 -69.333 126.333 -111.666 195 -126.999c8 -2 12 -2.33301 12 -1z" />
    <glyph glyph-name="equal" unicode="=" horiz-adv-x="365" 
d="M7 251c29.333 29.333 48.668 47.667 58.001 55c12.667 10 25.667 15 39 15c18.667 0 47 -4.33301 85 -13s66.333 -13 85 -13c10.667 0 27.667 7.66699 51 23l-59 -52c-12.667 -8.66699 -25.334 -13 -38.001 -13c-18.667 0 -46.667 4 -84 12s-65.333 12 -84 12
c-13.333 0 -31 -8.66699 -53 -26zM0.00195312 366.001c30.667 30.667 50 49 58 55c12.667 9.33301 25.667 14 39 14c18.667 0 47 -4.16699 85 -12.5s66.333 -12.5 85 -12.5c10.667 0 27.667 7.66699 51 23l-59 -52c-12 -9.33301 -24.667 -14 -38 -14
c-18.667 0 -46.667 4 -84 12s-65.333 12 -84 12c-13.333 0 -31 -8.33301 -53 -25z" />
    <glyph glyph-name="greater" unicode="&#x3e;" horiz-adv-x="527" 
d="M190 715c28 -17.333 64.001 -58.665 108.001 -123.998c35.333 -52.667 64 -101.667 86 -147c-10.667 -46 -36.667 -94.667 -78 -146c-35.333 -44 -84 -94 -146 -150l-160 -138l2 -10c106 28.667 204.333 79 295 151c100 80 163.333 166.333 190 259
c-14.667 61.333 -50 123.666 -106 186.999c-62 69.333 -127.333 111.666 -196 126.999c-8 2 -11.667 2.66699 -11 2c1.33301 -1.33301 6.66602 -5 15.999 -11z" />
    <glyph glyph-name="question" unicode="?" horiz-adv-x="517" 
d="M275 132c-48.667 -32.667 -73.001 -64.667 -73.001 -96c0 -25.333 16.333 -38.333 49 -39c24.667 -0.666992 50.334 5.66602 77.001 18.999c31.333 15.333 47 34 47 56c0 16 -9.33301 32 -28 48c4.66699 -7.33301 7 -15 7 -23c0 -16.667 -8.66699 -30.667 -26 -42
c-14.667 -10 -31 -15 -49 -15c-22 -0.666992 -33 6.33301 -33 21c0 12.667 9.66699 36.334 29 71.001zM146.999 525c-23.333 23.333 -35.333 35.6641 -36 36.9971c-9.33301 14.667 -14 39 -14 73c0 37.333 20 70 60 98c36 25.333 72 38 108 38s66 -18.667 90 -56
c20.667 -32 32.334 -67.333 35.001 -106c2.66699 -40.667 -6.33301 -76 -27 -106c-13.333 -20 -40 -46.667 -80 -80c-56.667 -48 -85 -103 -85 -165c0 -34.667 11 -65.667 33 -93l96 54c-25.333 34 -38 72.667 -38 116c0 36 9.66699 64.333 29 85
c8.66699 9.33301 30 24 64 44c29.333 17.333 51 36.333 65 57s23.667 52.667 29 96c5.33301 42.667 -19 84.334 -73 125.001c-48.667 36 -95.667 55.333 -141 58c-48.667 2.66699 -101.334 -13.666 -158.001 -48.999c-69.333 -43.333 -104 -97.666 -104 -162.999
c0 -48.667 21 -101 63 -157z" />
    <glyph glyph-name="at" unicode="@" horiz-adv-x="767" 
d="M489 436c-54 0 -109.332 -13 -165.999 -39c-68.667 -32 -102.334 -72.333 -101.001 -121c2 -49.333 33.667 -89 95 -119c42 -21.333 94 -36.333 156 -45c-8 30 -12 63.333 -12 100c0 49.333 9.33301 124 28 224zM493.001 457l3.99805 17.999l68 -5
c0 -205.333 15.667 -307.333 47 -306c19.333 1.33301 31 16.666 35 45.999c0.666992 14 1.66699 55.333 3 124c4 182.667 -93.333 278.334 -292 287.001c-114.667 5.33301 -199.334 -31.667 -254.001 -111c-40 -58 -60.667 -128.333 -62 -211
c-0.666992 -80 23.166 -145.333 71.499 -196s112.166 -76 191.499 -76c38 0 80 5.66699 126 17c-51.333 -29.333 -101.666 -44 -150.999 -44c-79.333 0 -146.666 34 -201.999 102c-52.667 64.667 -78.667 137.334 -78 218.001c1.33301 98.667 33.5 180.334 96.5 245.001
s143.833 97.334 242.5 98.001c102.667 1.33301 191.334 -28.667 266.001 -90c79.333 -64.667 120 -147.334 122 -248.001c2 -108 -45.667 -195.333 -143 -262c-29.333 -20 -49 -30 -59 -30c-1.33301 0 -3.5 -0.666992 -6.5 -2s-5.5 -2 -7.5 -2c-10 0 -21.333 22.333 -34 67
c-13.333 -0.666992 -26.666 -1 -39.999 -1c-70 0 -137 14.667 -201 44c-80.667 36 -122 85 -124 147c-1.33301 59.333 28 106.666 88 141.999c50.667 30 107.334 45 170.001 45c39.333 0 80.333 -5.33301 123 -16z" />
    <glyph glyph-name="A" unicode="A" horiz-adv-x="658" 
d="M390 313c-57.333 149.333 -91.666 224.001 -102.999 224.001c-18 0 -51 -57.333 -99 -172c-37.333 -88 -64 -157.667 -80 -209c25.333 8.66699 64.666 34 117.999 76c50.667 39.333 95.667 63.666 135 72.999c5.33301 1.33301 15 4 29 8zM42 6.00098
c-0.666992 18.667 3.33301 53.667 12 105c-36 4 -54 11.333 -54 22c0 0.666992 2.5 -0.5 7.5 -3.5s9.83301 -4.5 14.5 -4.5c2.66699 0 15 4.66699 37 14c26 138.667 58.667 265 98 379c50 144.667 95 216.667 135 216c36.667 -0.666992 68 -42 94 -124l83 -290
c27.333 -4 56.333 -17.667 87 -41c41.333 -31.333 62 -50 62 -56c0 -3.33301 -4.66699 -5 -14 -5c-16.667 0 -53.334 6.33301 -110.001 19c33.333 -106 68.333 -193.667 105 -263c8 -15.333 12 -26 12 -32s-2.33301 -9 -7 -9c-9.33301 0 -30.333 14.667 -63 44
c-23.333 21.333 -65.666 112 -126.999 272c-76.667 -2 -183 -48.333 -319 -139c-12.667 -46.667 -19 -83 -19 -109z" />
    <glyph glyph-name="B" unicode="B" horiz-adv-x="559" 
d="M29 618c2 -44 1.33105 -128.334 -2.00195 -253.001c-4 -144 -10.667 -229.667 -20 -257c-4.66699 -13.333 -7 -21 -7 -23s2.5 -3.66699 7.5 -5s8.16699 -2.66602 9.5 -3.99902c22.667 -14.667 54 -37 94 -67c8 -6 13.667 -9 17 -9s8.33301 4.66699 15 14
c14 19.333 21 38 21 56c0 12 -0.333008 21.667 -1 29c-25.333 274 -47.666 458.667 -66.999 554c-3.33301 15.333 -7.33301 23 -12 23c-5.33301 0 -14.166 -1.83301 -26.499 -5.5s-19.833 -7.16699 -22.5 -10.5c-5.33301 -6 -7.33301 -20 -6 -42zM85.998 691.999
c12 -1.33301 24.667 -2 38 -2c14.667 0 40 2.66699 76 8c28.667 4 54 4.66699 76 2c80.667 -10.667 122 -49.667 124 -117c1.33301 -41.333 -11.667 -75 -39 -101s-62 -41 -104 -45c-53.333 -4.66699 -80 -8.66699 -80 -12c0 -5.33301 11 -8.33301 33 -9
c32 -0.666992 57 -3.33398 75 -8.00098c34.667 -8 63.667 -24 87 -48c32.667 -34.667 48 -75.667 46 -123c-2 -46 -18.333 -85.667 -49 -119s-68.834 -53.166 -114.501 -59.499s-68.5 -11.5 -68.5 -15.5c0 -3.33301 23.667 -5.66602 71 -6.99902
c62 -1.33301 118.333 11.334 169 38.001c63.333 33.333 94.333 81.666 93 144.999c-2 105.333 -36.667 171.333 -104 198c-19.333 8 -29 13 -29 15c2.66699 2 13.334 7 32.001 15c50.667 21.333 76 70 76 146c0 87.333 -48.667 143.333 -146 168
c-13.333 3.33301 -25.333 5 -36 5c-20.667 0 -53 -8 -97 -24c-46 -16.667 -80.667 -26 -104 -28c-58 -4 -87 -7.66699 -87 -11c0 -2.66699 20.667 -6.33398 62 -11.001z" />
    <glyph glyph-name="C" unicode="C" horiz-adv-x="622" 
d="M449 696c8 -1.33301 13.332 -2.00195 15.999 -2.00195c5.33301 0 9 1.66699 11 5c2 2.66699 8.66699 2.33398 20 -0.999023c18.667 -5.33301 30.667 -11.833 36 -19.5s9.33301 -21.834 12 -42.501c1.33301 -8 1 -26 -1 -54c-0.666992 -14.667 1.5 -26.5 6.5 -35.5
s7.5 -12.5 7.5 -10.5c0 -1.33301 -12.667 -3.66602 -38 -6.99902c-11.333 -1.33301 -40.666 17 -87.999 55c-50.667 40.667 -94.334 63 -131.001 67c-29.333 3.33301 -45.333 5 -48 5c-17.333 0 -31 -6.66699 -41 -20c-66.667 -91.333 -100 -188.333 -100 -291
c0 -48.667 8.66699 -109.667 26 -183c10.667 -44 34.667 -78 72 -102c30 -19.333 60.333 -29 91 -29c27.333 0 58 8 92 24c23.333 10.667 61.333 33 114 67c44 28 69 42 75 42s-12.333 -18.667 -55 -56c-53.333 -47.333 -84.666 -73.333 -93.999 -78
c-27.333 -14.667 -71.333 -24.334 -132 -29.001c-80 -6 -147 16.333 -201 67c-67.333 62.667 -100.333 159.334 -99 290.001c1.33301 129.333 29.333 222 84 278c22 22.667 52.333 41.334 91 56.001c36.667 13.333 72 20 106 20c26 0 52.333 -7.66699 79 -23
c54 -38.667 83.667 -58 89 -58c2 0 3 1.33301 3 4c0 15.333 -7.33301 32 -22 50c-6 6.66699 -9 10.667 -9 12s1 2 3 2c4.66699 0 13 -1 25 -3z" />
    <glyph glyph-name="D" unicode="D" horiz-adv-x="611" 
d="M54 618c2 -44 1.33008 -128.333 -2.00293 -253c-4 -144 -10.667 -229.667 -20 -257c-4.66699 -13.333 -7 -21 -7 -23s2.16699 -3.5 6.5 -4.5s7.5 -2.5 9.5 -4.5c22.667 -14 54.334 -36.333 95.001 -67c8 -6 13.667 -9 17 -9s8.33301 4.66699 15 14c14 19.333 21 38 21 56
c0 12 -0.333008 21.667 -1 29c-25.333 274 -47.666 458.667 -66.999 554c-3.33301 15.333 -7.33301 23 -12 23c-5.33301 0 -14.166 -1.83301 -26.499 -5.5s-19.833 -7.16699 -22.5 -10.5c-5.33301 -6 -7.33301 -20 -6 -42zM58.9971 712
c26 -0.666992 58.667 5.00195 98 17.002c44.667 13.333 77 21 97 23c34 2.66699 74.667 -8.33301 122 -33c60.667 -32 108 -76.833 142 -134.5s51.667 -121.5 53 -191.5c2 -114.667 -18 -201 -60 -259c-48.667 -66.667 -127.667 -99.334 -237 -98.001
c-40 0.666992 -60 2.33398 -60 5.00098c0 2 19.333 6 58 12c63.333 9.33301 113.666 45 150.999 107c32.667 54 49 115.333 49 184c0 18 -0.666992 33.333 -2 46c-19.333 178.667 -74.666 282.667 -165.999 312c-10.667 3.33301 -21 5 -31 5c-14 0 -40.333 -4.33301 -79 -13
c-34.667 -8.66699 -66.667 -11.667 -96 -9c-14.667 1.33301 -32.667 4.66602 -54 9.99902c-29.333 7.33301 -44 14.666 -44 21.999c0 3.33301 3.33301 5 10 5c10 0 26.333 -3.33301 49 -10z" />
    <glyph glyph-name="E" unicode="E" horiz-adv-x="618" 
d="M47 685c-31.333 4.66699 -46.998 8.99805 -46.998 12.998c0 6 24 10 72 12c22 0.666992 57.667 9.33398 107 26.001c47.333 15.333 84.333 23 111 23c64 0 121.667 -18.667 173 -56c22.667 -16.667 34 -27 34 -31c0 -1.33301 -17.667 3.66699 -53 15
c-40 12.667 -61.667 19.334 -65 20.001c-22.667 5.33301 -54 8.66602 -94 9.99902c-24.667 0.666992 -59.334 -4.66602 -104.001 -15.999c-46.667 -12 -81.334 -18 -104.001 -18c-10.667 0 -20.667 0.666992 -30 2zM148.002 380.998
c6.66699 -4.66699 30.9951 -6.99805 72.9951 -6.99805c26.667 0 62.334 1 107.001 3l68 3c-1.33301 0 6.33398 1.33301 23.001 4c-0.666992 -0.666992 -8.33398 -7.66699 -23.001 -21l-25 -23c14 0 5.16699 3.33301 -26.5 10s-52.5 10 -62.5 10
c-25.333 0 -51.666 -5.66699 -78.999 -17c-20.667 -8.66699 -31.667 -14 -33 -16c-2.66699 -6 -7.33398 -11.333 -14.001 -16c8 -72 15.333 -142.667 22 -212c0.666992 -6.66699 1 -11.667 1 -15c13.333 -7.33301 43.666 -11.333 90.999 -12c-90 1.33301 -46.333 2 131 2
c28 0 51 2.33301 69 7l62 20c26.667 9.33301 41.667 14 45 14c17.333 0 7.83301 -13.833 -28.5 -41.5s-57.166 -41.5 -62.499 -41.5c-0.666992 0.666992 -4 1.33398 -10 2.00098s-13.667 0.666992 -23 0c-15.333 -1.33301 -42.666 -2 -81.999 -2
c-26.667 0 -64 0.333008 -112 1l-86 1v3c-2 -5.33301 -6.33301 -12.333 -13 -21c-8 -10.667 -13.667 -16 -17 -16c-2.66699 0 -8.33398 3 -17.001 9c-29.333 19.333 -60.666 41.666 -93.999 66.999c-2 2 -5.16699 3.5 -9.5 4.5s-6.5 2.5 -6.5 4.5
c4 15.333 8.66699 36.666 14 63.999c6.66699 56.667 11.334 143.334 14.001 260.001c2 106 2.33301 175.667 1 209c-1.33301 22 0.666992 36 6 42c2.66699 3.33301 10.334 6.66602 23.001 9.99902c16 4 24.667 6 26 6c4.66699 0 8.33398 -7.66699 11.001 -23
c8 -40.667 20.333 -131.334 37 -272.001z" />
    <glyph glyph-name="F" unicode="F" horiz-adv-x="537" 
d="M47 685c-31.333 4.66699 -46.9971 8.99902 -46.9971 12.999c0 6 24 10 72 12c22 0.666992 57.667 9.33398 107 26.001c47.333 15.333 84.333 23 111 23c64 0 121.667 -18.667 173 -56c22.667 -16.667 34 -27 34 -31c-0.666992 -1.33301 -2 -2 -4 -2
c-6 0 -20.333 4.33301 -43 13c-32.667 12.667 -56.334 20.667 -71.001 24c-22.667 5.33301 -54 8.66602 -94 9.99902c-24.667 0.666992 -59.334 -4.66602 -104.001 -15.999c-46.667 -12 -81.334 -18 -104.001 -18c-10.667 0 -20.667 0.666992 -30 2zM156.003 310.999
c5.33301 -40 10.3271 -79.9971 14.9941 -119.997c6 -48.667 9 -89 9 -121c0 -17.333 -7.33301 -36 -22 -56c-6.66699 -9.33301 -11.667 -14 -15 -14c-2.66699 0 -8.33398 3 -17.001 9c-29.333 19.333 -60.666 41.666 -93.999 66.999c-2 2 -5.16699 3.5 -9.5 4.5
s-6.5 2.5 -6.5 4.5c4 15.333 8.66699 36.666 14 63.999c6.66699 56.667 11.334 143.334 14.001 260.001c2 106 2.33301 175.667 1 209c-1.33301 22 0.666992 36 6 42c2.66699 3.33301 10.334 6.66602 23.001 9.99902c16 4 24.667 6 26 6
c4.66699 0 8.33398 -7.66699 11.001 -23c8 -40.667 20.333 -131.334 37 -272.001c8 -4.66699 32 -7 72 -7c26.667 0 62.334 1 107.001 3l68 3c6.66699 0 14.334 1.33301 23.001 4l-48 -44c14 0 5.16699 3.33301 -26.5 10s-52.5 10 -62.5 10
c-25.333 0 -51.666 -5.66699 -78.999 -17c-20.667 -8.66699 -31.667 -14 -33 -16c-4 -6 -8.33301 -11.333 -13 -16z" />
    <glyph glyph-name="G" unicode="G" horiz-adv-x="659" 
d="M526 163c2.66699 3.33301 4.00391 6.99902 4.00391 10.999c0 9.33301 -5.5 17.333 -16.5 24s-20.833 7.66699 -29.5 3c-3.33301 -2 -8.33301 -7.83301 -15 -17.5s-16.667 -14.834 -30 -15.501c-20 -1.33301 -35 -2 -45 -2c-22.667 0 -49.334 12 -80.001 36
c-22 17.333 -33 28 -33 32c0.666992 0.666992 1.66699 1 3 1c4 0 34 -11.333 90 -34c3.33301 -1.33301 5.66602 -2 6.99902 -2c-0.666992 0 12.166 6.16699 38.499 18.5s51.166 18.5 74.499 18.5c28 0 53.667 -4.33301 77 -13c32 -12 48 -29.333 48 -52
c0 -6 -3.83301 -12.333 -11.5 -19s-11.5 -13.667 -11.5 -21c4 -40 6 -57 6 -51c0 -22 -14.667 -32 -44 -30c-10 0.666992 -25.667 2 -47 4c-3.33301 -0.666992 -5.33301 8 -6 26c-17.333 -12 -43.666 -29.333 -78.999 -52c-22.667 -13.333 -64 -22.333 -124 -27
c-80 -6 -147.333 16.333 -202 67c-68 63.333 -101.333 160.666 -100 291.999c1.33301 130.667 29.333 224 84 280c38 38.667 97.333 63.667 178 75c9.33301 1.33301 16 2 20 2c28 0 54.667 -8 80 -24l46 -32c25.333 -17.333 40 -26 44 -26c2 0 3 1.66699 3 5
c0 14.667 -7.33301 31.334 -22 50.001c-6.66699 6.66699 -10 10.667 -10 12c0.666992 0.666992 2 1 4 1c1.33301 0 9.66602 -1 24.999 -3c5.33301 -0.666992 10.333 -1 15 -1c6 0 10 1.66699 12 5c2.66699 2.66699 9.66699 2.33398 21 -0.999023
c18 -4.66699 29.667 -11.167 35 -19.5s9.33301 -22.833 12 -43.5c1.33301 -12 1.33301 -30 0 -54c-0.666992 -15.333 1.5 -27.5 6.5 -36.5s7.5 -12.5 7.5 -10.5c0 -1.33301 -13 -3.33301 -39 -6c-8 -0.666992 -38 18 -90 56c-55.333 40.667 -98.166 62.667 -128.499 66
s-46.833 5 -49.5 5c-18 0 -32 -6.66699 -42 -20c-66.667 -91.333 -100 -189 -100 -293c0 -51.333 8.33301 -112.666 25 -183.999c8.66699 -36 29 -67 61 -93s66.667 -39 104 -39c70 0 137.333 35.667 202 107c3.33301 4 10.666 12.333 21.999 25z" />
    <glyph glyph-name="H" unicode="H" horiz-adv-x="710" 
d="M150 218l11.9961 -116.997c1.33301 -13.333 2 -22.666 2 -27.999c0 -16.667 -7.33301 -35 -22 -55c-7.33301 -10 -12.333 -15 -15 -15c-2 0 -7.66699 3.33301 -17 10c-17.333 10 -48.666 32 -93.999 66c-2 2 -5.16699 3.5 -9.5 4.5s-6.5 2.5 -6.5 4.5
c4 15.333 8.66699 36.666 14 63.999c6.66699 56 11.334 142.333 14.001 259c2 102 2.33301 171.333 1 208c-0.666992 11.333 0.333008 29.333 3 54c2 21.333 2 47.666 0 78.999c14.667 3.33301 28.667 -8.66699 42 -36c10 -19.333 17 -40 21 -62
c10.667 -52.667 27.334 -184 50.001 -394l3 1c32 10.667 73.5 36.5 124.5 77.5s96.833 66.167 137.5 75.5l51 12c2 85.333 2 148.666 0 189.999c-0.666992 11.333 0 27.333 2 48s3 35.667 3 45c0 12.667 -0.333008 25.667 -1 39c14.667 4 28.667 -7.66699 42 -35
c9.33301 -19.333 16.333 -40.333 21 -63c6.66699 -32.667 17.334 -110.667 32.001 -234c14.667 -6.66699 30.334 -16.334 47.001 -29.001c42 -32 63 -50.667 63 -56c0 -4 -4.66699 -6 -14 -6c-14.667 0 -43.667 4.66699 -87 14l26 -241c0.666992 -7.33301 1 -17 1 -29
c0 -17.333 -7 -35.666 -21 -54.999c-6.66699 -9.33301 -11.667 -14 -15 -14c-2.66699 0 -8.33398 3 -17.001 9c-29.333 19.333 -60.666 41.666 -93.999 66.999c-2 2 -5.16699 3.5 -9.5 4.5s-6.5 2.16699 -6.5 3.5l6 19c3.33301 10.667 6 26 8 46
c5.33301 46 9.66602 115.333 12.999 208c-41.333 -2 -96.333 -24.667 -165 -68c-70.667 -44 -119 -67.667 -145 -71z" />
    <glyph glyph-name="I" unicode="I" horiz-adv-x="781" 
d="M338 43c-115.333 0 -187.668 1.33301 -217.001 4c-7.33301 -0.666992 -19 -1.33398 -35 -2.00098c-4 0 -20.333 14 -49 42c-24.667 24 -37 37.333 -37 40c0.666992 1.33301 1.66699 2 3 2c2 0 14.667 -5 38 -15l49 -21c16 -4 43.667 -6 83 -6c24 0 44.667 -1.33301 62 -4
l26 -5c5.33301 0 11.333 2.33301 18 7c2.66699 6.66699 7.66699 28 15 64c6 50 10.333 136.667 13 260c2.66699 106.667 3 176.334 1 209.001c-1.33301 21.333 1 35.333 7 42c2 3.33301 9.66699 7 23 11c11.333 3.33301 19.666 5 24.999 5
c4.66699 0 8.66699 -7.66699 12 -23c18.667 -91.333 41 -276 67 -554c0 -4.66699 0.333008 -8.66699 1 -12c6.66699 -5.33301 14.334 -8 23.001 -8c10 0 25.833 1.16699 47.5 3.5s38.167 3.5 49.5 3.5c37.333 0 64.666 3 81.999 9l49 18c33.333 10 48.333 15 45 15
c17.333 0 7.83301 -13.833 -28.5 -41.5s-57.166 -41.5 -62.499 -41.5c6 0 3 0.5 -9 1.5s-20 1.16699 -24 0.5c-21.333 -2 -79.666 -3 -174.999 -3c-3.33301 -8 -9.33301 -18 -18 -30c-6.66699 -9.33301 -11.667 -14 -15 -14c-2.66699 0 -14 6.66699 -34 20zM150.998 675
c-32 17.333 -48 28.332 -48 32.999c0 2 2.33301 3 7 3c6 0 16.333 -1.5 31 -4.5s26 -4.5 34 -4.5c24.667 0 61.167 6.66699 109.5 20s84.833 20 109.5 20c72.667 0 132 -16.667 178 -50c24.667 -18 37 -30 37 -36c0 -7.33301 -14.667 -5.33301 -44 6
c-62 23.333 -120.667 36 -176 38c-22 0.666992 -53.667 -4.66602 -95 -15.999s-72.333 -17 -93 -17c-17.333 0 -34 2.66699 -50 8z" />
    <glyph glyph-name="J" unicode="J" horiz-adv-x="590" 
d="M108 702c24.667 -0.666992 62.001 4.99707 112.001 16.9971s88.333 17.667 115 17c51.333 -0.666992 81 -1.66699 89 -3c23.333 -4 50.166 -16.333 80.499 -37s45.5 -37 45.5 -49c0 -4 -3 -6 -9 -6c-10 0 -24.333 4.33301 -43 13
c-35.333 16.667 -62.333 27.334 -81 32.001c-21.333 4.66699 -50.333 7.33398 -87 8.00098c-19.333 0 -49.5 -5.5 -90.5 -16.5s-71.5 -16.5 -91.5 -16.5c-32.667 0 -65 10.333 -97 31c-6 4 -9 7 -9 9c0 2.66699 2.66699 4.33398 8 5.00098c10.667 2 30 0.666992 58 -4z
M418.001 646.997c31.333 0 50.999 1.00098 58.999 3.00098l1 -1c-0.666992 -2.66699 -0.666992 -6 0 -10c12.667 -90 19 -172 19 -246c0 -262 -70 -393 -210 -393c-40.667 0 -72.667 3 -96 9c-31.333 8.66699 -58.333 24.667 -81 48l-60 61
c-33.333 33.333 -50 51.666 -50 54.999h1c2.66699 0 26.334 -16.333 71.001 -49c48 -34.667 76 -54.334 84 -59.001c30.667 -16.667 61 -25 91 -25c17.333 0 34.666 2.66699 51.999 8c34.667 10.667 63 86 85 226c17.333 110.667 26 213.667 26 309
c0 0.666992 -0.666992 10.334 -2 29.001s-1.66602 28.667 -0.999023 30c2 3.33301 5.66699 5 11 5z" />
    <glyph glyph-name="K" unicode="K" horiz-adv-x="689" 
d="M150 219c20.667 26 61.665 93.6699 122.998 203.003c42 75.333 75 128 99 158c50.667 65.333 100 98 148 98c20.667 0 36 -5.66699 46 -17c9.33301 -11.333 9 -23 -1 -35c-19.333 -23.333 -56.666 -66 -111.999 -128l-102 -114
c-4.66699 -4 -7.33398 -7.33301 -8.00098 -10c-2 -4.66699 -0.333008 -7 5 -7c14.667 0 28.667 -12 42 -36c6 -10.667 25.667 -53.667 59 -129c18 -40.667 38.667 -75.667 62 -105c32.667 -42.667 64.667 -65.334 96 -68.001c7.33301 0 16 0.666992 26 2l15 1
c4 0 -9.66699 -9 -41 -27c-6 -3.33301 -12.667 -5 -20 -5c-39.333 0 -101 38.667 -185 116c-72.667 66.667 -121 120 -145 160c-0.666992 0.666992 -1.66699 1 -3 1c-12 0 -43.333 -50.667 -94 -152c0 -6 0.666992 -14.667 2 -26s2 -20 2 -26
c0 -16.667 -7.33301 -35 -22 -55c-7.33301 -10 -12.333 -15 -15 -15c-2 0 -7.66699 3.33301 -17 10c-17.333 10 -48.666 32 -93.999 66c-2 2 -5.16699 3.5 -9.5 4.5s-6.5 2.5 -6.5 4.5c4 15.333 8.66699 36.666 14 63.999c6.66699 56.667 11.334 143 14.001 259
c2 102 2.33301 171.333 1 208c-0.666992 11.333 0.333008 29.333 3 54c2 21.333 2 47.666 0 78.999c14.667 3.33301 28.667 -8.66699 42 -36c10 -19.333 17 -40 21 -62c10.667 -56.667 29 -201.667 55 -435z" />
    <glyph glyph-name="L" unicode="L" horiz-adv-x="604" 
d="M163 94c11.333 -7.33301 40.998 -11.335 88.998 -12.002c-68.667 0.666992 -23.667 1 135 1c29.333 0 52.333 2.33301 69 7l62 20c32.667 10 47.667 15 45 15c17.333 0 7.83301 -13.833 -28.5 -41.5s-57.166 -41.5 -62.499 -41.5c6.66699 0 3.83398 0.5 -8.49902 1.5
s-20.5 1.16699 -24.5 0.5c-17.333 -2 -44.666 -3 -81.999 -3c-41.333 0 -78 0.333008 -110 1l-86 2c-3.33301 -8 -9.33301 -18 -18 -30c-6.66699 -9.33301 -11.667 -14 -15 -14c-2.66699 0 -8.33398 3 -17.001 9c-10.667 5.33301 -42 27.666 -94 66.999
c-1.33301 0.666992 -4.5 1.83398 -9.5 3.50098s-7.5 3.5 -7.5 5.5c4 15.333 8.66699 36.666 14 63.999c6.66699 56.667 11.334 143.334 14.001 260.001c2 102.667 2.33301 172.334 1 209.001c2 29.333 3.33301 74 4 134c14.667 3.33301 28.667 -8.66699 42 -36
c9.33301 -20 16.333 -41 21 -63c7.33301 -36 19.666 -129.333 36.999 -280c14.667 -125.333 24.667 -216.666 30 -273.999v-5z" />
    <glyph glyph-name="M" unicode="M" horiz-adv-x="676" 
d="M39 629c2 -48.667 1.33301 -134.667 -2 -258c-4.66699 -147.333 -11.334 -234.333 -20.001 -261c-4.66699 -14 -7 -22 -7 -24c0 -1.33301 2.66699 -3 8 -5s8.33301 -3 9 -3c23.333 -15.333 55 -38 95 -68c8.66699 -6.66699 14.667 -10 18 -10c2.66699 0 7.66699 5 15 15
c14.667 20 22 38.667 22 56c0 5.33301 -0.666992 15 -2 29c-26 279.333 -48.667 467.333 -68 564c-3.33301 15.333 -7.33301 23 -12 23s-13.5 -2 -26.5 -6s-20.5 -7.33301 -22.5 -10c-5.33301 -7.33301 -7.66602 -21.333 -6.99902 -42zM570 751
c31.333 26.667 47.0039 42.333 47.0039 47c-0.666992 1.33301 -1.66699 2 -3 2c-22 0 -52 -18.333 -90 -55c-28.667 -28 -52.334 -55.667 -71.001 -83c-16.667 -24 -43.667 -68.667 -81 -134c-25.333 -44 -40.666 -66 -45.999 -66c-4.66699 0 -22 24.667 -52 74
c-38 62 -70.667 108.667 -98 140c-44.667 50.667 -86 76.667 -124 78c-14.667 0.666992 -28 0.666992 -40 0c-8 0 -12 -0.666992 -12 -2c0 -2 20.167 -12.667 60.5 -32s64.166 -33.333 71.499 -42s31 -43.667 71 -105c6 -9.33301 36.667 -66 92 -170
c33.333 -62.667 58 -93.334 74 -92.001c12 0.666992 29 25 51 73c9.33301 20 26.666 63.667 51.999 131c16.667 44 25 64 25 60c2 -59.333 1.66699 -135.333 -1 -228c-4 -126.667 -10.667 -204 -20 -232c-4.66699 -14 -7 -22 -7 -24c0 -1.33301 2.66699 -3 8 -5
s8.33301 -3 9 -3c23.333 -15.333 55 -38 95 -68c8.66699 -6.66699 14.667 -10 18 -10c2.66699 0 7.66699 5 15 15c14.667 20 22 38.667 22 56c0 5.33301 -0.666992 15 -2 29c-26.667 284 -49.334 472 -68.001 564c-0.666992 3.33301 -1.33398 11 -2.00098 23
c-0.666992 -0.666992 -8 -2.66699 -22 -6c-6.66699 2.66699 -10 7.33398 -10 14.001c0 12.667 12.667 29.667 38 51z" />
    <glyph glyph-name="N" unicode="N" horiz-adv-x="690" 
d="M56 617c-1.33301 20.667 1 34.3311 7 40.998c2 3.33301 9.33301 6.83301 22 10.5s21.334 5.5 26.001 5.5c5.33301 0 9.33301 -7.66699 12 -23c17.333 -88 39.333 -272.333 66 -553c1.33301 -14 2 -23.667 2 -29c0 -17.333 -7 -35.666 -21 -54.999
c-6.66699 -9.33301 -12 -14 -16 -14c-2.66699 0 -8.33398 3 -17.001 9l-93 67c-1.33301 0.666992 -4.5 1.83398 -9.5 3.50098s-7.5 3.5 -7.5 5.5l6 18c10 32 16.333 82.333 19 151c1.33301 51.333 2.33301 102.666 3 153.999c2.66699 106.667 3 176.334 1 209.001z
M510 269.997c7.33301 152 8.99805 268.333 4.99805 349c-0.666992 11.333 0 27.333 2 48c2 23.333 3 39.666 3 48.999c0 11.333 -0.333008 23.333 -1 36c14.667 3.33301 28.667 -8.66699 42 -36c9.33301 -19.333 16.333 -40.333 21 -63c18 -90 40 -274 66 -552
c1.33301 -14.667 2 -24.334 2 -29.001c0 -17.333 -7 -35.666 -21 -54.999c-7.33301 -10 -12.666 -15 -15.999 -15s-8.66602 3.33301 -15.999 10c-22 13.333 -53.333 35.333 -94 66c-1.33301 0.666992 -4.5 1.83398 -9.5 3.50098s-7.5 3.5 -7.5 5.5
c0 2.66699 1.66699 8.66699 5 18c-42 108.667 -98.667 223.667 -170 345c-87.333 149.333 -158 233.333 -212 252c-72.667 25.333 -109 42.333 -109 51c-0 2 2.33301 3.33301 7 4c10 2 26.667 2 50 0c32 -2.66699 67.333 -16 106 -40c29.333 -18 77.333 -73.333 144 -166z
" />
    <glyph glyph-name="O" unicode="O" horiz-adv-x="594" 
d="M228 730c-152 -36 -228 -138.667 -228 -308c0 -17.333 1 -37 3 -59c22.667 -252 111.667 -372.667 267 -362c94 6.66699 166.333 43 217 109c48.667 62.667 71 142 67 238c-2.66699 72 -14.334 134 -35.001 186c-28 72.667 -70.333 115.334 -127 128.001
s-83.334 19 -80.001 19c-1.33301 0 -2 -0.333008 -2 -1c0 -24.667 20.667 -52 62 -82c44.667 -32 69.334 -59 74.001 -81c2 -8.66699 7.66699 -59.334 17 -152.001c0.666992 -8.66699 1 -17.334 1 -26.001c0 -52 -14.667 -110.667 -44 -176
c-38 -84.667 -81.667 -126.667 -131 -126c-64.667 1.33301 -115.667 39 -153 113c-28 55.333 -44.667 120.666 -50 195.999c-2.66699 40 -4 72 -4 96c0 68.667 8.33301 122.334 25 161.001c22.667 52 62.334 86.333 119.001 103c50 14.667 75 25 75 31
c0 6.66699 -24.333 4.33398 -73 -6.99902z" />
    <glyph glyph-name="P" unicode="P" horiz-adv-x="607" 
d="M29 618c2 -44 1.33105 -128.334 -2.00195 -253.001c-4 -144 -10.667 -229.667 -20 -257c-4.66699 -13.333 -7 -21 -7 -23s2.5 -3.66699 7.5 -5s8.16699 -2.66602 9.5 -3.99902c22.667 -14.667 54 -37 94 -67c8 -6 13.667 -9 17 -9s8.33301 4.66699 15 14
c14 19.333 21 38 21 56c0 12 -0.333008 21.667 -1 29c-25.333 274 -47.666 458.667 -66.999 554c-3.33301 15.333 -7.33301 23 -12 23c-5.33301 0 -14.166 -1.83301 -26.499 -5.5s-19.833 -7.16699 -22.5 -10.5c-5.33301 -6 -7.33301 -20 -6 -42zM66.998 718.999
c4 -0.666992 8.3291 -1.00098 12.9961 -1.00098c18.667 0 57.334 7 116.001 21c56 13.333 103 19 141 17c155.333 -9.33301 232 -86.666 230 -231.999c-1.33301 -80 -31.666 -144.667 -90.999 -194c-55.333 -45.333 -119.666 -66.666 -192.999 -63.999
c-63.333 2.66699 -95 6.33398 -95 11.001c0 1.33301 32.667 11.666 98 30.999c69.333 20 111 37 125 51c42 42.667 62 97.667 60 165c-4 114 -58.667 174 -164 180c-18 1.33301 -42.333 -1.33398 -73 -8.00098c-32.667 -6.66699 -56.667 -10 -72 -10
c-17.333 0 -37.333 2 -60 6c-57.333 10 -86 19 -86 27c0 1.33301 2.33301 2.66602 7 3.99902c10.667 2.66699 25.334 1.33398 44.001 -3.99902z" />
    <glyph glyph-name="Q" unicode="Q" horiz-adv-x="660" 
d="M260 171c14 9.33301 30.335 13.998 49.002 13.998c34 0 67.333 -12.333 100 -37c51.333 132 75 219.667 71 263c-9.33301 94.667 -15 147 -17 157c-6.66699 29.333 -32.334 66.333 -77.001 111c-41.333 40.667 -62.666 60 -63.999 58
c-0.666992 -0.666992 27.833 -7.16699 85.5 -19.5s101.167 -56.166 130.5 -131.499c20.667 -54 32.334 -118.333 35.001 -193c5.33301 -132.667 -34.667 -232 -120 -298c39.333 -46 73 -69 101 -69c8 0 19.333 2.33301 34 7s24 7 28 7c2.66699 0 4 -0.666992 4 -2
c0 -3.33301 -12.667 -12.333 -38 -27c-12.667 -7.33301 -26 -11 -40 -11c-20.667 0 -43.334 8 -68.001 24c-21.333 14 -39.333 30.333 -54 49c-40.667 -22.667 -87.667 -36 -141 -40c-160 -11.333 -252 113.667 -276 375c-2 22 -3 42.333 -3 61
c0 176.667 78.667 283.334 236 320.001c28.667 6.66699 50.334 10 65.001 10c8 0 12 -1 12 -3c0 -6.66699 -26.333 -17.667 -79 -33c-59.333 -16.667 -100.333 -52 -123 -106c-17.333 -40 -26 -95.667 -26 -167c0 -28.667 1.33301 -62 4 -100
c5.33301 -78 22.666 -145.667 51.999 -203c38.667 -76 91.667 -114.667 159 -116c28 -0.666992 55 13.333 81 42l-2 2c-20.667 30 -48.667 45 -84 45c-10 0 -19 -1.33301 -27 -4c-22.667 -7.33301 -38.334 -11 -47.001 -11c-2.66699 0 -4.33398 0.666992 -5.00098 2
c0 4 14.667 12 44 24z" />
    <glyph glyph-name="R" unicode="R" horiz-adv-x="688" 
d="M29 619c-0.666992 17.333 0.499023 29.498 3.49902 36.498s11.5 12.167 25.5 15.5s22.667 5 26 5c4.66699 0 8.66699 -7.66699 12 -23c17.333 -88 39.333 -272.333 66 -553c1.33301 -14 2 -23.667 2 -29c0 -16.667 -7.33301 -35 -22 -55
c-6.66699 -9.33301 -11.667 -14 -15 -14c-2.66699 0 -8.33398 3 -17.001 9l-94 67c-0.666992 0.666992 -3.5 1.83398 -8.5 3.50098s-7.5 3.16699 -7.5 4.5l6 18c2.66699 10.667 5.33398 26 8.00098 46c6.66699 56.667 11.334 143.334 14.001 260.001
c2 105.333 2.33301 175 1 209zM334.999 269.998l1.99805 0.999023c-18.667 -3.33301 -37 -4.66602 -55 -3.99902c-62.667 2.66699 -94 6.33398 -94 11.001c0 1.33301 32.333 11.333 97 30c69.333 20 111 37.333 125 52c42 42.667 62 97.334 60 164.001
c-4 114 -58.333 174.333 -163 181c-17.333 1.33301 -41.666 -1.33398 -72.999 -8.00098c-33.333 -6.66699 -57.666 -10 -72.999 -10c-19.333 0 -39 1.66699 -59 5c-57.333 9.33301 -86 18.333 -86 27c0 1.33301 2.33301 2.66602 7 3.99902
c11.333 2.66699 26 1.33398 44 -3.99902c4 -0.666992 8.33301 -1 13 -1c19.333 0 58.333 7.33301 117 22c56 13.333 102.333 19 139 17c155.333 -8.66699 232 -86.334 230 -233.001c-1.33301 -95.333 -42.333 -167.333 -123 -216l85 -146c40 -66.667 68 -109 84 -127
c4.66699 -5.33301 13 -13 25 -23c7.33301 -6 11 -10 11 -12h-1c-2 0 -18 6 -48 18c-70 27.333 -130.333 69.333 -181 126c-36 40 -63.667 82 -83 126z" />
    <glyph glyph-name="S" unicode="S" horiz-adv-x="625" 
d="M453.5 724.5c22.333 2.33301 38.833 3.50488 49.5 3.50488c2 0 3 -1 3 -3c-8 -16 -12 -30.667 -12 -44c0 -46 7 -81.667 21 -107c8.66699 -16 13 -27 13 -33c0 -4 -2 -6 -6 -6c-16.667 0 -43.334 15 -80.001 45c-31.333 25.333 -56.333 43.666 -75 54.999
c-30 18 -57.333 25.667 -82 23c-67.333 -6.66699 -101 -36 -101 -88c0 -13.333 2 -29.666 6 -48.999c11.333 -54.667 23.666 -90 36.999 -106c19.333 -22.667 57 -37.334 113 -44.001c69.333 -8 126 -29.667 170 -65c50 -40.667 75 -94 75 -160
c0 -59.333 -16.667 -99.666 -50 -120.999c-28.667 -18.667 -78.667 -26.667 -150 -24c-38.667 1.33301 -94.167 13.666 -166.5 36.999s-114.5 35 -126.5 35c-18 0 -25.333 0.333008 -22 1c-2.66699 -0.666992 -9.33398 -3.33398 -20.001 -8.00098
c-25.333 -11.333 -41 -17 -47 -17c-2 0 -3 0.666992 -3 2c0 3.33301 9.33301 10.666 28 21.999c16.667 10 28.334 16 35.001 18c12 3.33301 31.667 5 59 5c24.667 0 62.334 -7.16699 113.001 -21.5s89.334 -21.5 116.001 -21.5c32 0 56.667 7.66699 74 23
c22.667 20 34 48 34 84c0 47.333 -18.333 87.666 -55 120.999c-33.333 30.667 -74.666 49.667 -123.999 57c-70 10.667 -121.667 31.667 -155 63c-36 33.333 -57 84 -63 152c-4 39.333 14.333 76 55 110c38 31.333 77.333 46.333 118 45
c23.333 -0.666992 40.666 -1.66699 51.999 -3c20 -2 37 -5.33301 51 -10c7.33301 -2.66699 21.333 -8.33398 42 -17.001c3.33301 -0.666992 6 -1 8 -1c7.33301 0 11 3 11 9c0 2 -0.333008 4.33301 -1 7l-13 25c0 2 5.83301 3 17.5 3s28.667 1.16699 51 3.5z" />
    <glyph glyph-name="T" unicode="T" horiz-adv-x="537" 
d="M47 678c10 -1.33301 20 -1.99902 30 -1.99902c22.667 0 57 5.83301 103 17.5s81 17.167 105 16.5c54 -1.33301 109.333 -13 166 -35c22.667 -8.66699 37 -13 43 -13c2 0 3 0.666992 3 2c0 4 -11.333 14.333 -34 31c-52 38 -109.667 57 -173 57
c-26.667 0 -63.667 -7.66699 -111 -23c-49.333 -16.667 -85 -25.334 -107 -26.001c-48 -2 -72 -6 -72 -12c0 -4.66699 15.667 -9 47 -13zM208 618.001c2 -44 1.33105 -128.334 -2.00195 -253.001c-4 -144 -10.667 -229.667 -20 -257c-4.66699 -13.333 -7 -21 -7 -23
s2.5 -3.66699 7.5 -5s8.16699 -2.66602 9.5 -3.99902c22.667 -14.667 54 -37 94 -67c8 -6 13.667 -9 17 -9s8.33301 4.66699 15 14c14 19.333 21 38 21 56c0 12 -0.333008 21.667 -1 29c-25.333 274 -47.666 458.667 -66.999 554c-3.33301 15.333 -7.33301 23 -12 23
c-5.33301 0 -13.666 -1.66699 -24.999 -5c-13.333 -4 -21 -7.66699 -23 -11c-6 -6.66699 -8.33301 -20.667 -7 -42z" />
    <glyph glyph-name="U" unicode="U" horiz-adv-x="612" 
d="M112 576c0.666992 -14 -0.00195312 -47.5 -2.00195 -100.5s-3 -93.833 -3 -122.5c0 -178.667 50 -269 150 -271c74 -1.33301 121 18.667 141 60c8.66699 18.667 17.334 38.334 26.001 59.001c26 241.333 44 387.333 54 438c4 20.667 11 41 21 61
c13.333 26.667 27 38.334 41 35.001c-0.666992 -12 -1 -23.667 -1 -35c0 -9.33301 1 -25.333 3 -48c2 -20 2.66699 -35.667 2 -47c-2 -50.667 -1.66699 -133.334 1 -248.001c3.33301 -137.333 10.333 -221 21 -251c4 -11.333 6 -19 6 -23
c0 -1.33301 -2.5 -2.83301 -7.5 -4.5s-7.83301 -2.83398 -8.5 -3.50098l-92 -66c-8 -6 -13.667 -9 -17 -9s-8.33301 4.66699 -15 14c-9.33301 13.333 -15.333 25 -18 35c-1.33301 4 -2 10.333 -2 19c0 8 0.333008 17.333 1 28c-24 -30 -48.667 -49.333 -74 -58
c-18.667 -6 -50 -8.33301 -94 -7c-58.667 2 -109.667 24.333 -153 67c-61.333 60.667 -92 154.667 -92 282c0 46 4 96 12 150c2 7.33301 10.667 30.333 26 69c14.667 36 21.334 63.667 20.001 83c-2 42.667 1 64 9 64c10.667 0 21 -25.667 31 -77
c8 -39.333 12.667 -70.333 14 -93z" />
    <glyph glyph-name="V" unicode="V" horiz-adv-x="617" 
d="M0 642c-0.666992 -38 13.667 -108.334 43 -211.001c31.333 -110.667 67 -206.667 107 -288c46.667 -96 88.667 -143.667 126 -143c38 0.666992 67.667 35 89 103l69 253c34.667 124.667 77 234.667 127 330c10.667 20 16 32.333 16 37c0 2.66699 -1 4 -3 4
c-4.66699 0 -27 -13 -67 -39c-24 -15.333 -55 -68.666 -93 -159.999l-97 -243c-33.333 -84 -55.333 -126 -66 -126c-17.333 0 -48 43.333 -92 130c-31.333 62.667 -55.333 116 -72 160c-30.667 80.667 -46 142.667 -46 186z" />
    <glyph glyph-name="W" unicode="W" horiz-adv-x="1011" 
d="M283 0c-40 4 -84.3311 58.332 -132.998 162.999c-38 82.667 -73.667 186 -107 310c-30 112.667 -44.333 188.334 -43 227.001l44 -8c0 -47.333 14 -112 42 -194c15.333 -45.333 37.666 -99 66.999 -161c40.667 -87.333 70.334 -131 89.001 -131s52.667 52 102 156
l101 216l63 -204c41.333 -122 76 -183 104 -183c11.333 0 35.666 45 72.999 135l108 261c42 96.667 76 153.667 102 171c43.333 28 67.666 42 72.999 42c2 0 3 -1.33301 3 -4c0 -4.66699 -5.66699 -18 -17 -40c-54 -104 -100 -223.333 -138 -358
c-16 -62 -41.333 -154.667 -76 -278c-22.667 -75.333 -54.667 -115.333 -96 -120c-32 -4 -69.333 34.333 -112 115c-6.66699 12.667 -34.667 75.667 -84 189l-91 -219c-25.333 -58.667 -50 -87 -74 -85z" />
    <glyph glyph-name="X" unicode="X" horiz-adv-x="550" 
d="M495 683c1.33301 -15.333 -63.999 -113.998 -195.999 -295.998c-5.33301 -12.667 11.334 -66 50.001 -160c9.33301 -23.333 40.666 -61.333 93.999 -114c44.667 -44 67 -83.667 67 -119h-1c-6 0 -35.667 15.667 -89 47c-32 18.667 -60.667 53 -86 103
c-13.333 26.667 -29 67 -47 121c-13.333 39.333 -22.666 59 -27.999 59c-78 -156.667 -132 -248 -162 -274c-40.667 -36 -67 -54 -79 -54c-6 0 -9 4.33301 -9 13c0 26.667 67 172 201 436c2.66699 35.333 -26 87.666 -86 156.999l-53 62
c-4.66699 5.33301 -16.667 13.333 -36 24c-23.333 12.667 -35 21.667 -35 27c0 4 15.667 -1.16699 47 -15.5s57.166 -27.833 77.499 -40.5s44.333 -42.5 72 -89.5s44.167 -71.5 49.5 -73.5c99.333 154.667 158.333 232.667 177 234c14 1.33301 29.167 -2.83398 45.5 -12.501
s25.166 -21.167 26.499 -34.5z" />
    <glyph glyph-name="Y" unicode="Y" horiz-adv-x="631" 
d="M70 772c1.33301 -0.666992 39.6641 -57.332 114.997 -169.999c73.333 -109.333 117.333 -163.666 132 -162.999c16.667 1.33301 59.334 49.666 128.001 144.999c62.667 87.333 102.667 148.333 120 183c11.333 22 19 33 23 33c2 0 3 -2.66699 3 -8
c0 -16 -8.66699 -51 -26 -105c-10 -32.667 -54.333 -122 -133 -268c-69.333 -130 -107.666 -221 -114.999 -273c-13.333 -97.333 -27.666 -146 -42.999 -146c-10.667 0 -21 28.333 -31 85c-8 47.333 -12 83.333 -12 108c0 52 14.667 106.667 44 164
c-3.33301 20.667 -43.333 94.667 -120 222c-10 17.333 -40.667 52.666 -92 105.999c-44.667 46.667 -65.667 73 -63 79c4 9.33301 16 14 36 14c14 0 25.333 -2 34 -6z" />
    <glyph glyph-name="Z" unicode="Z" horiz-adv-x="850" 
d="M220 667c196 88.667 315.669 132.999 359.002 132.999c28 0 42 -12 42 -36c0 -47.333 -55.333 -145 -166 -293l-147 -191c-52.667 -69.333 -82 -116.666 -88 -141.999c-2 -7.33301 8.66699 -11 32 -11c15.333 0 31 0.666992 47 2l49 4c43.333 2 97 -7.33301 161 -28
c66.667 -21.333 118 -32 154 -32c30.667 0 65.334 7.66699 104.001 23c25.333 10 39 15 41 15c14.667 0 7 -6.66699 -23 -20c-24 -10.667 -46.667 -19.667 -68 -27c-34 -11.333 -64 -17 -90 -17c-30 0 -76.333 6.33301 -139 19s-111 19.334 -145 20.001
c-72.667 1.33301 -130.334 -5.33398 -173.001 -20.001c-21.333 -7.33301 -51.333 -23 -90 -47c-21.333 -13.333 -39 -20 -53 -20c-16.667 0 -25 9 -25 27c0 34 29.333 95.667 88 185c32 48.667 75 96.334 129 143.001c91.333 78.667 167.666 159.667 228.999 243
c29.333 39.333 44 68.666 44 87.999c0 18 -12.667 27 -38 27c-28.667 0 -74.334 -11.667 -137.001 -35c-72 -26.667 -117.667 -40 -137 -40c-4 0 -6 0.666992 -6 2c0 4.66699 15.333 14 46 28z" />
    <glyph glyph-name="bracketleft" unicode="[" horiz-adv-x="300" 
d="M257 40c-30.667 -2.66699 -49.332 -4 -55.999 -4c-21.333 0 -35.333 6 -42 18c-2.66699 3.33301 -4 9 -4 17c0 23.333 4.66699 56.666 14 99.999c10 46.667 15.333 80.334 16 101.001c2 40 -9.66699 71 -35 93l-58 40l57 39c24 22 35 53 33 93
c-0.666992 20.667 -6 54.334 -16 101.001c-8.66699 43.333 -13 76.666 -13 99.999c0 20 11 30 33 30c9.33301 0 21.666 -1 36.999 -3c18.667 -2.66699 31 -4.33398 37 -5.00098c-51.333 26.667 -90.666 40 -117.999 40c-26.667 0 -46.334 -11 -59.001 -33
c-3.33301 -6 -5 -14 -5 -24c0 -4.66699 6.33301 -41 19 -109c10 -54.667 10.667 -98 2 -130c-12.667 -46.667 -45.667 -80.667 -99 -102c69.333 -27.333 104 -78.666 104 -153.999c0 -22.667 -5 -56 -15 -100s-15 -74.333 -15 -91c0 -10.667 1.66699 -18.667 5 -24
c13.333 -22 33 -33 59 -33c27.333 -0 67 13.333 119 40z" />
    <glyph glyph-name="backslash" unicode="\" horiz-adv-x="421" 
d="M0 577c46 -87.333 92.666 -171.002 139.999 -251.002c104.667 -176.667 185 -286.667 241 -330c-15.333 70.667 -41.666 141.334 -78.999 212.001c-24.667 46.667 -66 114.834 -124 204.501s-99.333 158.167 -124 205.5z" />
    <glyph glyph-name="bracketright" unicode="]" horiz-adv-x="300" 
d="M4 40c16.667 -2 33.001 -3.33203 49.001 -3.99902c24.667 -1.33301 41 4.66699 49 18c2 3.33301 3 9 3 17c0 23.333 -4.33301 56.666 -13 99.999c-10 46.667 -15.333 80.334 -16 101.001c-2 40 9.33301 71 34 93l58 40l-56 39c-24.667 22 -36 53 -34 93
c1.33301 21.333 6.66602 55.333 15.999 102c9.33301 44.667 14 77.667 14 99c0 20 -11 30 -33 30c-9.33301 0 -22 -1 -38 -3c-18.667 -2.66699 -31 -4.33398 -37 -5.00098c52 26.667 91.667 40 119 40c26 0 45.667 -11 59 -33c3.33301 -5.33301 5 -13.333 5 -24
c0 -16.667 -4.66699 -46.167 -14 -88.5s-14 -74.5 -14 -96.5c0 -75.333 35 -127.333 105 -156c-68.667 -27.333 -103 -78.666 -103 -153.999c0 -26.667 6.33301 -69.334 19 -128.001c10 -46 11.667 -75 5 -87c-12.667 -22 -32.334 -33 -59.001 -33
c-27.333 -0 -66.666 13.333 -117.999 40z" />
    <glyph glyph-name="asciicircum" unicode="^" horiz-adv-x="1147" 
d="M737 221c20 50 37.9932 86.9961 53.9932 110.996c18.667 28 46.334 56.333 83.001 85c9.33301 7.33301 20.333 11 33 11c22 0 38 -9.33301 48 -28c7.33301 -14 42.666 -91.667 105.999 -233c45.333 -101.333 87.333 -172.333 126 -213
c-57.333 0 -108.666 29.667 -153.999 89c-21.333 28 -52.666 83.333 -93.999 166c-30 60.667 -54 91.334 -72 92.001s-39 -15.666 -63 -48.999l-47 -75c46.667 -106.667 90.334 -181.334 131.001 -224.001c-57.333 0 -108.666 29.667 -153.999 89
c-21.333 28 -52.666 83.333 -93.999 166c-30 60.667 -54.333 91.334 -73 92.001c-17.333 0.666992 -38 -16 -62 -50l-47 -74c45.333 -102.667 88 -175 128 -217c-57.333 0 -108.666 29.667 -153.999 89c-21.333 28 -52.666 83.333 -93.999 166
c-30 59.333 -54.333 89.666 -73 90.999c-19.333 1.33301 -41.666 -17 -66.999 -55l-63 -96c0.666992 -3.33301 3.83398 -15.666 9.50098 -36.999s8.5 -32.666 8.5 -33.999s-2.33301 -2.66602 -7 -3.99902s-7.66699 -2.66602 -9 -3.99902c-24 -16 -53.333 -36.667 -88 -62
c-8 -6 -13.333 -9 -16 -9s-7.33398 4.33301 -14.001 13c-10.667 14 -17 26.333 -19 37c-2 8.66699 -2 22.667 0 42l15 155c6.66699 60.667 14.334 113.667 23.001 159c4 19.333 10.667 29 20 29c5.33301 0 12.333 -0.666992 21 -2c11.333 -2 18.666 -3 21.999 -3
c6.66699 -1.33301 9.66699 -6.33301 9 -15c-2.66699 -48 3 -120 17 -216c28.667 64.667 49 106.667 61 126c21.333 34.667 49.333 65.667 84 93c9.33301 7.33301 20.333 11 33 11c22.667 0 39 -9.33301 49 -28c15.333 -28.667 43.333 -90.334 84 -185.001
c20 50 38 87 54 111c19.333 28.667 46.666 57 81.999 85c9.33301 7.33301 20.333 11 33 11c22.667 0 39 -9.33301 49 -28c16.667 -30 43.667 -89.333 81 -178z" />
    <glyph glyph-name="underscore" unicode="_" horiz-adv-x="556" 
d="M0 -66c70.667 44.667 129.664 67 176.997 67c26.667 0 60 -6.33301 100 -19c50.667 -16 90 -24 118 -24c36.667 0 83.667 13.333 141 40c-57.333 -48 -110.666 -72 -159.999 -72c-27.333 0 -67.166 7.83301 -119.499 23.5s-92.166 23.5 -119.499 23.5
c-42 0 -87.667 -13 -137 -39z" />
    <glyph glyph-name="grave" unicode="`" horiz-adv-x="323" 
d="M14 794c58.667 -1.33301 94.002 -5.33398 106.002 -12.001c6.66699 -4.66699 26.334 -30.667 59.001 -78l42 -62c13.333 -14 34 -24.333 62 -31c-56.667 4.66699 -89.334 9.33398 -98.001 14.001c-11.333 6 -32 31 -62 75c-28.667 41.333 -43.334 62.333 -44.001 63
c-14.667 16 -36.334 26.333 -65.001 31z" />
    <glyph glyph-name="a" unicode="a" 
d="M369 409c-42.667 10.667 -83.332 16.001 -121.999 16.001c-62 0 -117 -15 -165 -45c-56 -34.667 -83.333 -81.334 -82 -140.001c2 -62 43.333 -111.333 124 -148c64 -29.333 131.333 -44 202 -44c13.333 0 27 0.666992 41 2l-3 15
c-62.667 8.66699 -115.334 23.667 -158.001 45c-62 30 -94 70 -96 120c-1.33301 48.667 30.667 89 96 121c53.333 25.333 107 38 161 38zM495.002 550.001c-3.33301 -29.333 -4.99902 -62.001 -4.99902 -98.001c0 -66 5 -133 15 -201c8.66699 -60.667 18.667 -107 30 -139
c4.66699 -13.333 7 -21.333 7 -24s-1.66699 -4 -5 -4c-5.33301 -0.666992 -9.33301 -2.33398 -12 -5.00098c-26 -16 -58.667 -39 -98 -69c-8.66699 -6.66699 -14.334 -10 -17.001 -10c-3.33301 0 -8.66602 5 -15.999 15c-14.667 20 -22 39 -22 57
c0 12.667 0.333008 22.667 1 30c10.667 116.667 14.667 232 12 346c0 6.66699 -15.667 10 -47 10c-24.667 0 -61.834 -2.33301 -111.501 -7s-86.5 -7 -110.5 -7c-18 0 -27 2 -27 6c0 2.66699 25.667 7.33398 77 14.001c70.667 8.66699 124.667 17.334 162 26.001
c64 14 111 32.333 141 55l20 15c2.66699 2 4.66699 2.33301 6 1c0.666992 -1.33301 0.666992 -5 0 -11z" />
    <glyph glyph-name="b" unicode="b" horiz-adv-x="590" 
d="M170 68c168 0 257.999 57 269.999 171c1.33301 12.667 2 21 2 25c0 68.667 -37.333 114.667 -112 138c-41.333 12.667 -107 19 -197 19c16.667 -142.667 28.334 -249 35.001 -319c1.33301 -14 2 -25.333 2 -34zM130.999 437c88.667 22 154 33 196 33
c62 0 111 -21.667 147 -65c28 -33.333 51 -84.333 69 -153c4.66699 -18 7 -35.667 7 -53c0 -58.667 -31 -101.334 -93 -128.001c-43.333 -19.333 -99.333 -29.666 -168 -30.999c-54.667 -1.33301 -95.334 1.66699 -122.001 9c-2 -6.66699 -8.66699 -18 -20 -34
c-7.33301 -10 -12.333 -15 -15 -15s-8.66699 3.33301 -18 10c-14.667 8 -47 31 -97 69c-1.33301 0.666992 -4.5 1.83398 -9.5 3.50098s-7.5 3.5 -7.5 5.5l6 19c10.667 36 17.334 88.333 20.001 157c0.666992 52.667 1.66699 105.667 3 159c2.66699 110 3 182 1 216
c-1.33301 21.333 1 35.666 7 42.999c2 3.33301 9.5 6.83301 22.5 10.5s22.167 5.5 27.5 5.5c11.333 0 20.333 -28 27 -84c6 -58.667 11.667 -117.667 17 -177z" />
    <glyph glyph-name="c" unicode="c" horiz-adv-x="559" 
d="M444 471c4 0 9.00098 0.834961 15.001 2.50195s10 2.5 12 2.5c3.33301 0 5 -19.333 5 -58c0 -52 -2.66699 -78 -8 -78c-0.666992 0 -3.66699 1.16699 -9 3.5s-10.333 3.16602 -15 2.49902c-2 -0.666992 -7.16699 -2 -15.5 -4s-13.833 -3 -16.5 -3
c-9.33301 0 -14 23 -14 69c-74 0 -135 -9.33301 -183 -28c-70 -26.667 -104 -71.667 -102 -135c4 -113.333 63.667 -170 179 -170c58.667 0 130.667 15.667 216 47l11 -14c-112.667 -61.333 -209.334 -92 -290.001 -92s-141.667 30 -183 90c-30 44 -45.667 93.667 -47 149
c-1.33301 61.333 30 110.666 94 147.999c54 32 113.667 48 179 48c40.667 0 83 -5.66699 127 -17c0.666992 18 4.33398 29.333 11.001 34c3.33301 2 14.666 3 33.999 3z" />
    <glyph glyph-name="d" unicode="d" horiz-adv-x="590" 
d="M380 68c-168 0 -258 56.999 -270 170.999c-1.33301 12.667 -2 21 -2 25c0 69.333 37.333 115.333 112 138c40.667 12.667 106.334 19 197.001 19c-16.667 -137.333 -28.334 -243.666 -35.001 -318.999c-1.33301 -14.667 -2 -26 -2 -34zM419 436.999
c-88.667 22 -153.999 33.001 -195.999 33.001c-62 0 -111 -21.667 -147 -65c-28 -33.333 -51 -84.333 -69 -153c-4.66699 -18 -7 -35.667 -7 -53c0 -60.667 33 -104.334 99 -131.001c46 -18.667 104.667 -28 176 -28c48 0 84 3 108 9c2 -8 8.33301 -19.333 19 -34
c7.33301 -10 12.666 -15 15.999 -15c2.66699 0 8.66699 3.33301 18 10c14 8 46.333 31 97 69c2.66699 2.66699 6.66699 4 12 4c3.33301 0.666992 5 2.33398 5 5.00098l-5 19c-11.333 36 -18.333 88.333 -21 157c-0.666992 52.667 -1.66699 105.667 -3 159
c-2.66699 110 -3 182 -1 216c1.33301 21.333 -1 35.666 -7 42.999c-2 3.33301 -9.5 6.83301 -22.5 10.5s-22.167 5.5 -27.5 5.5c-11.333 0 -20.333 -28 -27 -84c-6 -58.667 -11.667 -117.667 -17 -177z" />
    <glyph glyph-name="e" unicode="e" horiz-adv-x="487" 
d="M97 227c37.333 2 70.333 4.66699 99 8c52 6.66699 99 16.667 141 30l2 -2c3.33301 0 1 23.333 -7 70c-15.333 94.667 -59.333 139.667 -132 135c-30.667 -2 -56.667 -36 -78 -102c-16 -50.667 -24.333 -97 -25 -139zM97 209
c1.33301 -83.333 25.666 -135.665 72.999 -156.998c23.333 -10.667 47 -16 71 -16c39.333 0 85.333 16.667 138 50c59.333 37.333 95.666 57.666 108.999 60.999c24 5.33301 40 8 48 8c4.66699 0 7 -0.666992 7 -2c0 -4 -14.333 -11 -43 -21
c-14.667 -4.66699 -36.667 -19.334 -66 -44.001c-33.333 -28 -57 -45.667 -71 -53c-44 -23.333 -94.333 -35 -151 -35c-80.667 0 -140 25.667 -178 77c-22.667 30.667 -34 75.667 -34 135c0 72 16.333 135.667 49 191c38 64.667 90.667 99 158 103c70 4 129.333 -28 178 -96
c41.333 -57.333 62 -116 62 -176c0 -26 -5 -42.833 -15 -50.5s-28 -11.5 -54 -11.5c-31.333 0 -78.166 6.16699 -140.499 18.5s-109.166 18.5 -140.499 18.5z" />
    <glyph glyph-name="f" unicode="f" horiz-adv-x="536" 
d="M-3 317c62.667 46.667 114.332 70 154.999 70c0 48 1 126 3 234c1.33301 50.667 18.333 93.5 51 128.5s74 52.5 124 52.5c49.333 0 91 -25 125 -75c31.333 -46.667 44.666 -95 39.999 -145c-0.666992 -4.66699 -1.33398 -9.66699 -2.00098 -15
c-0.666992 4.66699 -5 21 -13 49c-26.667 92.667 -76.667 139 -150 139c-71.333 0 -107 -40 -107 -120c0 -27.333 3.66699 -61 11 -101l16 -90c3.33301 -22.667 7 -52 11 -88c22.667 -8 41.334 -12 56.001 -12c24.667 0 55.334 10.333 92.001 31
c-51.333 -51.333 -98.333 -76 -141 -74c8 -71.333 15 -138 21 -200c1.33301 -13.333 2 -23 2 -29c0 -16.667 -7.33301 -35 -22 -55c-7.33301 -10 -12.333 -15 -15 -15c-2 0 -7.66699 3.33301 -17 10c-13.333 8 -44.666 30.333 -93.999 67l-8.5 3
c-5.66699 2 -8.5 3.66699 -8.5 5c0 2.66699 2.33301 10.667 7 24c8.66699 24 14.667 99 18 225c-24 7.33301 -45 11 -63 11c-28.667 0 -59 -10 -91 -30z" />
    <glyph glyph-name="g" unicode="g" horiz-adv-x="637" 
d="M437 93c-90.667 -22.667 -158.333 -34 -203 -34c-63.333 0 -113.333 21 -150 63c-29.333 33.333 -53.333 84.333 -72 153c-5.33301 20 -8 37 -8 51c0 64 37.333 110 112 138c52 19.333 116.333 29 193 29c46.667 0 79.667 -2.33301 99 -7l10 -23
c-76 0 -139.667 -11 -191 -33c-68.667 -29.333 -106.334 -76.666 -113.001 -141.999c-0.666992 -6.66699 -1 -14.334 -1 -23.001c0 -69.333 39.667 -115.333 119 -138c43.333 -12.667 111 -19 203 -19v8c-1.33301 14.667 -2 32.667 -2 54c0 42.667 3 101.334 9 176.001
c8 97.333 17.333 150 28 158c2.66699 2 6.33398 3 11.001 3c24 0 49.333 -11.833 76 -35.5s40 -47.167 40 -70.5c0 -29.333 -14 -97.5 -42 -204.5s-42 -188.833 -42 -245.5c0 -26 2 -49.667 6 -71c8 -43.333 12 -77 12 -101c0 -32.667 -8.33301 -53.334 -25 -62.001
c-10.667 -5.33301 -36 -8.66602 -76 -9.99902c-27.333 -0.666992 -114.333 19 -261 59c-142 39.333 -232.333 58.333 -271 57h-124c-40.667 0 -78.667 -10.667 -114 -32c-6 0 -9 1 -9 3c0 9.33301 25.333 22.666 76 39.999c58.667 20 115.667 30 171 30
s136.833 -17.833 244.5 -53.5s187.167 -54.167 238.5 -55.5s77 42.334 77 131.001c0 31.333 -2.66699 67.666 -8 108.999z" />
    <glyph glyph-name="h" unicode="h" horiz-adv-x="576" 
d="M152 206c38.667 52 67.001 99 85.001 141c12 28 30.667 52 56 72c9.33301 7.33301 20.666 11 33.999 11c22 0 38 -9 48 -27c8 -14 43.667 -92.333 107 -235c46 -102.667 88.333 -174 127 -214c-57.333 0 -109 29.667 -155 89c-22 28 -53.667 83.667 -95 167
c-30.667 60.667 -55 91.334 -73 92.001c-19.333 0.666992 -41.666 -17.333 -66.999 -54c-7.33301 -10.667 -28 -42.334 -62 -95.001l6 -54c0.666992 -6 1 -15.667 1 -29c0 -18 -7 -36.667 -21 -56c-6.66699 -9.33301 -11.667 -14 -15 -14c-2.66699 0 -8.33398 3 -17.001 9
c-10.667 5.33301 -42 27.666 -94 66.999c-1.33301 0.666992 -4.5 1.83398 -9.5 3.50098s-7.5 3.5 -7.5 5.5c4 15.333 8.66699 36.666 14 63.999c6.66699 56.667 11.334 143.334 14.001 260.001c2 106 2.33301 175.667 1 209c-1.33301 22 0.666992 36 6 42
c2.66699 3.33301 10.167 6.83301 22.5 10.5s21.166 5.5 26.499 5.5c4.66699 0 8.66699 -7.66699 12 -23c10 -52 28.667 -201 56 -447z" />
    <glyph glyph-name="i" unicode="i" horiz-adv-x="211" 
d="M115 418c-2.66699 -34 0.333984 -87.333 9.00098 -160s18 -124 28 -154c4 -11.333 6 -18.666 6 -21.999c0 -2 -1.33301 -3.33301 -4 -4c-4.66699 0 -8.33398 -1.33301 -11.001 -4c-22 -14 -51.667 -35 -89 -63c-8 -6 -13 -9 -15 -9c-3.33301 0 -8.33301 4.66699 -15 14
c-10.667 14.667 -16.667 25 -18 31c-2 8.66699 -2 24.667 0 48l15 154c8 74 15.333 127.333 22 160c4 18.667 11 28 21 28c4.66699 0 11.334 -0.666992 20.001 -2c11.333 -2 18.333 -3 21 -3c7.33301 -0.666992 10.666 -5.33398 9.99902 -14.001zM71.001 634
c-48.667 -33.333 -73 -65.666 -73 -96.999c0 -24.667 16.667 -37.334 50 -38.001c25.333 -0.666992 51 5.33301 77 18c30.667 14.667 46 33.667 46 57c0 16 -9 32 -27 48c4 -8 6 -15.667 6 -23c0 -16.667 -8.66699 -30.667 -26 -42c-14.667 -10.667 -31 -16 -49 -16
c-22 -0.666992 -33 6.33301 -33 21c0 13.333 9.66699 37.333 29 72z" />
    <glyph glyph-name="j" unicode="j" horiz-adv-x="236" 
d="M56 401c2 1.33301 5.00195 1.99902 9.00195 1.99902c20 0 44 -12 72 -36c31.333 -26.667 47 -53 47 -79c0 -11.333 -14.667 -57 -44 -137s-44 -144.333 -44 -193c0 -20.667 2 -41.667 6 -63c8 -43.333 12 -77 12 -101c0 -32.667 -8.66699 -53.334 -26 -62.001
c-10.667 -5.33301 -36 -8.66602 -76 -9.99902c-26.667 -0.666992 -114.334 19.333 -263.001 60c-140.667 38.667 -230.334 57.334 -269.001 56.001h-123c-41.333 -0.666992 -79.666 -11.334 -114.999 -32.001c-6 0 -9 1 -9 3c0 9.33301 25.333 22.666 76 39.999
c59.333 20 116.333 30 171 30c56.667 0 138.167 -17.667 244.5 -53s186.166 -53.666 239.499 -54.999c46 -1.33301 69 33.667 69 105c0 28.667 -5.5 74.834 -16.5 138.501s-16.833 102.834 -17.5 117.501c-2 32.667 2.33301 80 13 142c12 71.333 26.667 113.666 44 126.999z
M96.002 591.999c-48.667 -32.667 -73 -64.666 -73 -95.999c0 -24.667 16.667 -37.334 50 -38.001c26 0 51.667 6 77 18c30.667 14.667 46 33.667 46 57c0 16 -9 32 -27 48c4 -8 6 -15.667 6 -23c0 -16.667 -8.66699 -30.667 -26 -42c-14.667 -10 -31 -15.333 -49 -16
c-22 -0.666992 -33 6.33301 -33 21c0 13.333 9.66699 37 29 71z" />
    <glyph glyph-name="k" unicode="k" horiz-adv-x="523" 
d="M154 184c30.667 16 53.002 42.0029 67.002 78.0029c7.33301 20 14.666 52.333 21.999 97c5.33301 37.333 12.333 61.666 21 72.999c14.667 18.667 42.167 38 82.5 58s72.166 30 95.499 30c14.667 0 23.334 -4.33301 26.001 -13c5.33301 -16.667 -18.667 -50 -72 -100
c-60.667 -56 -93 -88 -97 -96c33.333 -90 69.666 -164.667 108.999 -224c60.667 -92 121.667 -134.333 183 -127c-28.667 -12 -53.334 -18 -74.001 -18c-34 0 -72.333 19 -115 57c-16.667 14.667 -77.667 75.667 -183 183c-30 -10.667 -48.667 -41 -56 -91
c2 -20.667 1.66699 -35.167 -1 -43.5s-9 -19.5 -19 -33.5c-7.33301 -10 -12.666 -15 -15.999 -15c-2.66699 0 -8.33398 3 -17.001 9l-95 68c-2.66699 2.66699 -6.16699 4.5 -10.5 5.5s-6.5 2.5 -6.5 4.5l5 18c4.66699 16 8.33398 38.333 11.001 67
c15.333 147.333 19.666 299.666 12.999 456.999c-1.33301 21.333 0.666992 35.666 6 42.999c2.66699 2.66699 10.334 5.83398 23.001 9.50098s21.667 5.5 27 5.5c4.66699 0 8.66699 -7.66699 12 -23c12 -60.667 31.667 -220.334 59 -479.001z" />
    <glyph glyph-name="l" unicode="l" horiz-adv-x="204" 
d="M29 618c2 -44 1.33105 -128.334 -2.00195 -253.001c-4 -144 -10.667 -229.667 -20 -257c-4.66699 -13.333 -7 -21 -7 -23s2.5 -3.66699 7.5 -5s8.16699 -2.66602 9.5 -3.99902c22.667 -14.667 54 -37 94 -67c8 -6 13.667 -9 17 -9s8.33301 4.66699 15 14
c14 19.333 21 38 21 56c0 12 -0.333008 21.667 -1 29c-25.333 274 -47.666 458.667 -66.999 554c-3.33301 15.333 -7.33301 23 -12 23c-5.33301 0 -14.166 -1.83301 -26.499 -5.5s-19.833 -7.16699 -22.5 -10.5c-5.33301 -6 -7.33301 -20 -6 -42z" />
    <glyph glyph-name="m" unicode="m" horiz-adv-x="848" 
d="M439 228c20 49.333 36.9951 84.3389 50.9951 105.006c16.667 24 44 51.333 82 82c10 8 21 12 33 12c22 0 38 -9.33301 48 -28c7.33301 -14 42.666 -91.667 105.999 -233c45.333 -101.333 87.333 -172.333 126 -213c-56.667 0 -108 29.667 -154 89
c-21.333 27.333 -52.666 82.666 -93.999 165.999c-30 60 -54 90.333 -72 91c-19.333 1.33301 -37.666 -11.334 -54.999 -38.001l-51 -79c46.667 -106.667 90.334 -181.334 131.001 -224.001c-57.333 0 -108.666 29.667 -153.999 89c-21.333 28 -52.666 83.333 -93.999 166
c-30 59.333 -54.333 89.666 -73 90.999c-19.333 1.33301 -41.666 -16.667 -66.999 -54l-62 -95c0.666992 -3.33301 3.83398 -16 9.50098 -38s8.5 -33.667 8.5 -35c0 -2 -1.33301 -3.33301 -4 -4c-4.66699 0 -8.33398 -1.33301 -11.001 -4c-22 -14 -51.667 -35 -89 -63
c-8 -6 -13 -9 -15 -9c-3.33301 0 -8.33301 4.66699 -15 14c-10.667 14.667 -16.667 25 -18 31c-2 8.66699 -2 24.667 0 48l15 154c8 74 15.333 127.333 22 160c4 18.667 11 28 21 28c4.66699 0 11.334 -0.666992 20.001 -2c11.333 -2 18.333 -3 21 -3
c7.33301 -0.666992 10.666 -5.33398 9.99902 -14.001c-2 -29.333 3.66699 -100.333 17 -213c28.667 63.333 49 105 61 125c20 32.667 47.667 63 83 91c9.33301 7.33301 20.333 11 33 11c22.667 0 39 -9.33301 49 -28c16.667 -30.667 43.667 -89.334 81 -176.001z" />
    <glyph glyph-name="n" unicode="n" horiz-adv-x="554" 
d="M131 202c39.333 52 68.3359 100.333 87.0029 145c12 27.333 31 51.333 57 72c9.33301 7.33301 20.666 11 33.999 11c22 0 38 -9 48 -27c6.66699 -12.667 42.334 -91 107.001 -235c45.333 -101.333 87.666 -172.666 126.999 -213.999c-57.333 0 -109 30 -155 90
c-22.667 29.333 -54.334 84.666 -95.001 165.999c-30 60.667 -54.333 91.334 -73 92.001c-19.333 1.33301 -41.666 -16.667 -66.999 -54c-12.667 -18 -33.667 -50 -63 -96c0.666992 -3.33301 3.83398 -16 9.50098 -38s8.5 -33.667 8.5 -35c0 -2 -1.33301 -3.33301 -4 -4
c-4.66699 0 -8.33398 -1.33301 -11.001 -4c-26 -17.333 -55.667 -38.333 -89 -63c-8 -6 -13.333 -9 -16 -9s-7.33398 4.66699 -14.001 14c-10.667 14.667 -17 27 -19 37c-2 7.33301 -2 21.333 0 42c6 70 11 121.667 15 155c8.66699 74.667 16 128 22 160
c4 19.333 11 29 21 29c5.33301 0 12.833 -0.833008 22.5 -2.5s16.167 -2.5 19.5 -2.5c7.33301 -0.666992 10.666 -5.33398 9.99902 -14.001c-2.66699 -46 3.33301 -117.667 18 -215z" />
    <glyph glyph-name="o" unicode="o" horiz-adv-x="533" 
d="M294 465c-24 4 -47.0029 6.00098 -69.0029 6.00098c-68.667 0 -123.167 -18 -163.5 -54s-61.5 -87.667 -63.5 -155c-1.33301 -74.667 24.334 -134 77.001 -178c47.333 -40 109.666 -62.667 186.999 -68c62.667 -4.66699 119 23.666 169 84.999c38 46 58.333 83 61 111
c0.666992 8 1 15.667 1 23c0 34 -8 65.333 -24 94c-36 63.333 -106.667 92.333 -212 87c88.667 -4.66699 133 -60.334 133 -167.001c0 -50.667 -12.333 -96 -37 -136c-28 -46 -66 -69.667 -114 -71c-51.333 -1.33301 -89.666 21 -114.999 67
c-19.333 35.333 -29.666 81 -30.999 137c-1.33301 56.667 17.834 107.334 57.501 152.001s87.5 67 143.5 67z" />
    <glyph glyph-name="p" unicode="p" horiz-adv-x="578" 
d="M165 464c23.333 5.33301 57.001 8.00293 101.001 8.00293c70.667 0 129 -9.66699 175 -29c64.667 -26.667 97 -70.334 97 -131.001c0 -15.333 -2.66699 -33.333 -8 -54c-18 -69.333 -40.667 -120.333 -68 -153c-35.333 -43.333 -84.333 -65 -147 -65
c-41.333 0 -103 10.333 -185 31c-14.667 -124.667 -25.334 -203 -32.001 -235c-3.33301 -16 -7.33301 -24 -12 -24s-13.5 2 -26.5 6s-20.833 7.33301 -23.5 10c-5.33301 8 -7.66602 22.333 -6.99902 43c2 49.333 1.33301 136.666 -2 261.999
c-4.66699 149.333 -11.667 237.666 -21 264.999c-4.66699 13.333 -7 21.666 -7 24.999c0 1.33301 2.66699 2.83301 8 4.5s8.33301 2.83398 9 3.50098c18 12 50.667 35 98 69c9.33301 6.66699 15 10 17 10c3.33301 0 8.66602 -5 15.999 -15c10 -14 16 -24.333 18 -31z
M132.001 90.0029c88 0 151.668 6.33203 191.001 18.999c71.333 22.667 107 68 107 136c0 4.66699 -0.666992 13.334 -2 26.001c-12 113.333 -98.333 170.333 -259 171c0 -8 -0.666992 -19.333 -2 -34c-6.66699 -74 -18.334 -180 -35.001 -318z" />
    <glyph glyph-name="q" unicode="q" horiz-adv-x="601" 
d="M383 443c-166 0 -255 -56.999 -267 -170.999c-0.666992 -6.66699 -1 -15.667 -1 -27c0 -68 36.667 -113.333 110 -136c40 -12.667 104.667 -19 194 -19c-16 137.333 -27.333 243.666 -34 318.999c-1.33301 14.667 -2 26 -2 34zM421 73.001
c-86 -21.333 -149.666 -32 -190.999 -32c-62 0 -111 21.667 -147 65c-28 33.333 -51 84.333 -69 153c-4.66699 18 -7 35.667 -7 53c0 61.333 33 105.666 99 132.999c46 18.667 105 28 177 28c48 0 82.333 -3 103 -9c2.66699 7.33301 9 18 19 32
c7.33301 10 12.666 15 15.999 15c2 0 8 -3.33301 18 -10s42.333 -29.667 97 -69c2.66699 -2.66699 6.66699 -4.33398 12 -5.00098c3.33301 0 5 -1.33301 5 -4c0 -3.33301 -2.33301 -11.333 -7 -24c-8.66699 -23.333 -15.667 -83.666 -21 -180.999
c-4.66699 -84 -7 -163.667 -7 -239c0 -39.333 1 -65.666 3 -78.999c0 -4 9.66699 -6 29 -6c16 0 40 2.83301 72 8.5s56 8.5 72 8.5c9.33301 0 14 -1.33301 14 -4c0 -6.66699 -23.667 -16.667 -71 -30c-16.667 -4.66699 -41 -14.667 -73 -30s-56.167 -25 -72.5 -29
s-25.166 -6 -26.499 -6c-4.66699 0 -8.33398 8 -11.001 24c-7.33301 39.333 -18.333 118.333 -33 237z" />
    <glyph glyph-name="r" unicode="r" horiz-adv-x="452" 
d="M147 260c26.667 22 49.6699 51.0059 69.0029 87.0059l41 75c16.667 20.667 40.334 31 71.001 31c25.333 0 45.666 -7.83301 60.999 -23.5s23 -36.167 23 -61.5c0 -29.333 -5.66699 -44 -17 -44c-4.66699 0 -12.667 6.33301 -24 19c-13.333 15.333 -21 23.666 -23 24.999
c-12.667 9.33301 -29.334 13.666 -50.001 12.999c-20 -0.666992 -39.333 -23.334 -58 -68.001c-10.667 -25.333 -23.334 -68.333 -38.001 -129c-14 -58 -26.667 -99 -38 -123c-0.666992 -13.333 -7.66699 -29 -21 -47c-6.66699 -9.33301 -11.667 -14 -15 -14
c-2.66699 0 -8.33398 3 -17.001 9c-10.667 5.33301 -42 27.666 -94 66.999c-1.33301 0.666992 -4.5 1.83398 -9.5 3.50098s-7.5 3.5 -7.5 5.5c-0 1.33301 2.33301 9 7 23c10.667 31.333 20.334 86.666 29.001 165.999c8.66699 77.333 12 133.666 10 168.999
c-0.666992 8 3.16602 12.833 11.499 14.5s16.5 3 24.5 4s14.333 1.5 19 1.5c10.667 0 18 -10 22 -30c7.33301 -36.667 15.333 -94.334 24 -173.001z" />
    <glyph glyph-name="s" unicode="s" horiz-adv-x="512" 
d="M354 317c2.66699 10.667 3.99902 21.335 3.99902 32.002c0 39.333 -17.333 71.333 -52 96c-29.333 22 -65 34.667 -107 38c-53.333 4.66699 -97.333 -11.833 -132 -49.5s-52 -83.5 -52 -137.5c0 -47.333 3 -78 9 -92c10.667 -25.333 35.334 -38 74.001 -38
c11.333 0 35.666 10.5 72.999 31.5s74.333 31.5 111 31.5c54 0 81 -13.333 81 -40c-1.33301 -4.66699 -5 -20.667 -11 -48c-5.33301 -21.333 -19.333 -43.333 -42 -66c-27.333 -26.667 -55.666 -39.334 -84.999 -38.001c-22.667 0.666992 -59.5 10.5 -110.5 29.5
s-91.167 28.833 -120.5 29.5c-41.333 1.33301 -75 -1.33398 -101 -8.00098c-11.333 -2.66699 -31.333 -10.334 -60 -23.001c14.667 1.33301 28.667 2 42 2c41.333 0 104 -12.667 188 -38c79.333 -23.333 142 -33.666 188 -30.999c50.667 3.33301 94.667 13 132 29
c50.667 22.667 79 54.334 85 95.001c2.66699 18.667 4 34 4 46c0 77.333 -26.333 118.333 -79 123c-34.667 2.66699 -78 -6 -130 -26c-48 -18.667 -75.333 -29 -82 -31c-30 0 -44 26 -42 78l3 90c4 28.667 17.667 42.667 41 42c41.333 -2 62 -29.667 62 -83
c0 -8.66699 -0.666992 -17.334 -2 -26.001z" />
    <glyph glyph-name="t" unicode="t" horiz-adv-x="449" 
d="M0 439c48 -16.667 79.333 -24.999 94 -24.999c12.667 0 26.334 2 41.001 6c3.33301 64 12.333 130.333 27 199l72 -3c-6.66699 -57.333 -11 -113 -13 -167c17.333 4.66699 33.666 7 48.999 7c39.333 0 71.666 -15.667 96.999 -47c-39.333 12.667 -66.666 19 -81.999 19
c-14.667 0 -36.334 -5.33301 -65.001 -16c-1.33301 -72 2.33398 -140 11.001 -204c14.667 -108.667 41 -163 79 -163c30.667 0 63.667 38.667 99 116c-12 -55.333 -28.5 -96 -49.5 -122s-49.5 -39 -85.5 -39c-56.667 0 -96 26.667 -118 80c-16 39.333 -24 100 -24 182
c0 9.33301 0.666992 49.666 2 120.999c-10 -2 -19.667 -3 -29 -3c-39.333 0 -74.333 19.667 -105 59z" />
    <glyph glyph-name="u" unicode="u" horiz-adv-x="575" 
d="M378 419c8.66699 -34.667 13.002 -72.6689 13.002 -114.002c0 -63.333 -9.66699 -117.333 -29 -162c-26 -59.333 -66 -91 -120 -95c-48 -3.33301 -82.667 21.334 -104 74.001c-14.667 36.667 -22 83.334 -22 140.001c0 58.667 6.66699 114.667 20 168l-71 22
c-43.333 -58 -65 -120 -65 -186c0 -72 23.5 -131.333 70.5 -178s106.833 -70 179.5 -70c31.333 0 75 21 131 63c3.33301 -9.33301 8.66602 -23.333 15.999 -42c10.667 -26 24.667 -39 42 -39c26.667 0 58.667 37 96 111l-30 95c-18.667 59.333 -32.334 134 -41.001 224z" />
    <glyph glyph-name="v" unicode="v" horiz-adv-x="540" 
d="M540 524c-76 -6 -140.333 -40.999 -193 -104.999c-30.667 -36.667 -64 -95 -100 -175c-28 -62 -50 -93.667 -66 -95c-20.667 -1.33301 -40.667 19.667 -60 63c-10.667 23.333 -25 66 -43 128c-13.333 45.333 -20.333 68.333 -21 69c-8.66699 16 -27.667 24.333 -57 25
c0 -74.667 14.667 -159 44 -253c38.667 -120.667 87 -181 145 -181c30 0 71.333 40.333 124 121c34 52 78.667 131 134 237c50.667 97.333 81.667 152.666 93 165.999z" />
    <glyph glyph-name="w" unicode="w" horiz-adv-x="864" 
d="M864 522c-10.667 -13.333 -41.668 -68.666 -93.001 -165.999c-55.333 -104.667 -100 -183.334 -134 -236.001c-52 -80 -93 -120 -123 -120c-37.333 0 -74 35.667 -110 107c-24 48.667 -42.667 100.667 -56 156c-54 -173.333 -107.333 -260 -160 -260
c-58 0 -106 60.333 -144 181c-29.333 92.667 -44 176.334 -44 251.001c12.667 0 28.667 -3.33301 48 -10c4.66699 -4.66699 14.334 -32.334 29.001 -83.001c15.333 -54 30 -96.333 44 -127c20 -43.333 39.667 -64.333 59 -63c18 1.33301 49 46 93 134s75.667 133.333 95 136
c8.66699 1.33301 19.667 -22 33 -70c19.333 -68 33.333 -112.667 42 -134c20 -48 41 -71.333 63 -70c15.333 1.33301 37.333 33 66 95c36.667 80 69.667 138 99 174c52.667 64 117 99 193 105z" />
    <glyph glyph-name="x" unicode="x" horiz-adv-x="543" 
d="M417 441l50 -10.998l-192 -207c16 -40 46.333 -82 91 -126c48.667 -48.667 94.334 -78.334 137.001 -89.001c-66 -3.33301 -122 6.66699 -168 30s-86.333 62.666 -121 117.999l-144 -156l-70 5l188 197l-1 3c-43.333 82 -66.333 124.667 -69 128
c-24 36.667 -57.333 65.667 -100 87c45.333 0 91.666 -16.667 138.999 -50c40.667 -28.667 72.667 -62 96 -100z" />
    <glyph glyph-name="y" unicode="y" horiz-adv-x="532" 
d="M335 134c-28 -42.667 -45.998 -68.668 -53.998 -78.001c-33.333 -36.667 -72 -55 -116 -55c-42 0 -80.667 48 -116 144c-32.667 88.667 -49 173.667 -49 255c0 22.667 1.66699 42 5 58c10 -113.333 50 -212 120 -296c24.667 -30 42.334 -45 53.001 -45
c22.667 0 46 7 70 21c40.667 23.333 69 61.666 85 114.999c10 34 16.333 83.167 19 147.5s7 98.833 13 103.5c2 2 5.33301 3 10 3c23.333 0 48.666 -11.833 75.999 -35.5s41 -47.167 41 -70.5c0 -28.667 -14.167 -96.667 -42.5 -204s-42.5 -189.333 -42.5 -246
c0 -26.667 2 -50.334 6 -71.001c8.66699 -44 13 -77.667 13 -101c0 -32.667 -8.66699 -53.334 -26 -62.001c-10.667 -5.33301 -36 -8.66602 -76 -9.99902c-26.667 -0.666992 -114.334 19.333 -263.001 60c-140.667 38.667 -230.334 57.334 -269.001 56.001h-124
c-40.667 0 -78.667 -10.667 -114 -32c-6 0 -9 1 -9 3c0 10 25.333 23.333 76 40c58 19.333 115 29 171 29c55.333 0 136.833 -17.667 244.5 -53s187.167 -53.666 238.5 -54.999c49.333 -1.33301 74 46.667 74 144c0 31.333 -3 77 -9 137
c-5.33301 52.667 -7 85.334 -5 98.001z" />
    <glyph glyph-name="z" unicode="z" horiz-adv-x="663" 
d="M134 399c24.667 4 99.668 21.6699 225.001 53.0029c97.333 24 157.333 36 180 36c8.66699 0 13.667 -1.33301 15 -4c6.66699 -13.333 -19.666 -51 -78.999 -113c-38 -39.333 -94.667 -94.333 -170 -165c-62 -56.667 -92.333 -85.667 -91 -87
c4.66699 -4.66699 12.667 -7 24 -7c4.66699 0 21 1.33301 49 4s52.333 3 73 1c44 -4 103 -19 177 -45c66 -23.333 118 -34 156 -32c50 2 78.667 4.66699 86 8l34 29c-8 -23.333 -19.667 -40.333 -35 -51c-24 -16 -63 -24.667 -117 -26
c-34.667 -0.666992 -85.167 8.16602 -151.5 26.499s-116.5 27.166 -150.5 26.499c-38.667 -0.666992 -96.667 -9.83398 -174 -27.501s-135.333 -26.5 -174 -26.5c-7.33301 0 -11 2.33301 -11 7c0 18.667 26.333 54 79 106c38.667 38.667 74.167 70.5 106.5 95.5
s66.166 53.833 101.499 86.5c55.333 50 83 82.667 83 98c0 1.33301 -0.5 3 -1.5 5s-5.83301 3 -14.5 3c-16.667 0 -41.5 -2.33301 -74.5 -7s-57.833 -7 -74.5 -7c-30.667 0 -54.334 4.33301 -71.001 13z" />
    <glyph glyph-name="braceleft" unicode="{" horiz-adv-x="300" 
d="M257 40c-30.667 -2.66699 -49.332 -4 -55.999 -4c-21.333 0 -35.333 6 -42 18c-2.66699 3.33301 -4 9 -4 17c0 23.333 4.66699 56.666 14 99.999c10 46.667 15.333 80.334 16 101.001c2 40 -9.66699 71 -35 93l-58 40l57 39c24 22 35 53 33 93
c-0.666992 20.667 -6 54.334 -16 101.001c-8.66699 43.333 -13 76.666 -13 99.999c0 20 11 30 33 30c9.33301 0 21.666 -1 36.999 -3c18.667 -2.66699 31 -4.33398 37 -5.00098c-51.333 26.667 -90.666 40 -117.999 40c-26.667 0 -46.334 -11 -59.001 -33
c-3.33301 -6 -5 -14 -5 -24c0 -4.66699 6.33301 -41 19 -109c10 -54.667 10.667 -98 2 -130c-12.667 -46.667 -45.667 -80.667 -99 -102c69.333 -27.333 104 -78.666 104 -153.999c0 -22.667 -5 -56 -15 -100s-15 -74.333 -15 -91c0 -10.667 1.66699 -18.667 5 -24
c13.333 -22 33 -33 59 -33c27.333 -0 67 13.333 119 40z" />
    <glyph glyph-name="bar" unicode="|" horiz-adv-x="112" 
d="M8 797c16 1.33301 28.667 2 38 2s15 -0.666992 17 -2c0 -20 1.66699 -103.667 5 -251c2.66699 -117.333 4 -215.333 4 -294c0 -115.333 -3 -200.333 -9 -255c-13.333 1.33301 -24.666 2 -33.999 2s-16.333 -0.666992 -21 -2c-0.666992 10 -2.33398 94.333 -5.00098 253
c-2 120 -3 217.333 -3 292c0 118.667 2.66699 203.667 8 255z" />
    <glyph glyph-name="braceright" unicode="}" horiz-adv-x="300" 
d="M4 40c16.667 -2 33.001 -3.33203 49.001 -3.99902c24.667 -1.33301 41 4.66699 49 18c2 3.33301 3 9 3 17c0 23.333 -4.33301 56.666 -13 99.999c-10 46.667 -15.333 80.334 -16 101.001c-2 40 9.33301 71 34 93l58 40l-56 39c-24.667 22 -36 53 -34 93
c1.33301 21.333 6.66602 55.333 15.999 102c9.33301 44.667 14 77.667 14 99c0 20 -11 30 -33 30c-9.33301 0 -22 -1 -38 -3c-18.667 -2.66699 -31 -4.33398 -37 -5.00098c52 26.667 91.667 40 119 40c26 0 45.667 -11 59 -33c3.33301 -5.33301 5 -13.333 5 -24
c0 -16.667 -4.66699 -46.167 -14 -88.5s-14 -74.5 -14 -96.5c0 -75.333 35 -127.333 105 -156c-68.667 -27.333 -103 -78.666 -103 -153.999c0 -26.667 6.33301 -69.334 19 -128.001c10 -46 11.667 -75 5 -87c-12.667 -22 -32.334 -33 -59.001 -33
c-27.333 -0 -66.666 13.333 -117.999 40z" />
    <glyph glyph-name="asciitilde" unicode="~" horiz-adv-x="432" 
d="M0 739c54 40.667 99.332 61 135.999 61c20.667 0 46.334 -5.66699 77.001 -17c39.333 -14.667 69.333 -22 90 -22c28.667 0 65 12 109 36c-44 -43.333 -85 -65 -123 -65c-20.667 0 -51 7.16699 -91 21.5s-71 21.5 -93 21.5c-32 0 -67 -12 -105 -36z" />
    <glyph glyph-name="nonbreakingspace" unicode="&#xa0;" horiz-adv-x="400" 
 />
    <glyph glyph-name="exclamdown" unicode="&#xa1;" horiz-adv-x="235" 
d="M132 613c-2 -43.333 -1.33301 -126.998 2 -250.998c4 -141.333 11 -226.333 21 -255c4 -11.333 6 -19 6 -23c0 -1.33301 -2.5 -2.83301 -7.5 -4.5s-7.83301 -2.83398 -8.5 -3.50098l-93 -67c-8 -6 -13.667 -9 -17 -9s-8.33301 4.66699 -15 14
c-10.667 14.667 -17 25.667 -19 33c-2.66699 10.667 -3 27.667 -1 51c26 274 48 457 66 549c3.33301 15.333 7.33301 23 12 23c4 0 12.5 -2 25.5 -6s20.5 -7.33301 22.5 -10c5.33301 -6.66699 7.33301 -20.334 6 -41.001zM127 674.002
c45.333 30.667 68.001 60.666 68.001 89.999c0 23.333 -15.333 35.333 -46 36c-23.333 0.666992 -47.333 -5 -72 -17c-29.333 -14 -44 -31.667 -44 -53c0 -15.333 8.66699 -30.333 26 -45c-4 6.66699 -6 13.667 -6 21c0 16 8 29.333 24 40
c13.333 8.66699 28.666 13.334 45.999 14.001c20.667 0.666992 31 -6 31 -20c0 -12 -9 -34 -27 -66z" />
    <glyph glyph-name="cent" unicode="&#xa2;" horiz-adv-x="535" 
d="M232 239c0 150.667 0.332031 249.667 0.999023 297c-85.333 -24 -126.666 -70.333 -123.999 -139c3.33301 -91.333 44.333 -144 123 -158zM231.999 123v56h-13c-76.667 0 -134.667 28.667 -174 86c-28.667 42 -43.667 89.333 -45 142c-1.33301 53.333 25 98 79 134
c46 30.667 97.667 47.667 155 51c0.666992 32 1.66699 62.667 3 92l21 2l5 -93c38 0 77.333 -5.33301 118 -16c0.666992 17.333 4 28 10 32c3.33301 2 14.333 3 33 3c3.33301 0 8 0.833008 14 2.5s9.66699 2.5 11 2.5c3.33301 0 5 -18.333 5 -55
c0 -49.333 -2.33301 -74 -7 -74c-0.666992 0 -3.66699 1 -9 3s-10 2.66699 -14 2c-2 0 -6.83301 -1 -14.5 -3s-13.167 -3 -16.5 -3c-8.66699 0 -13 21.667 -13 65c-42.667 0 -80.334 -2.66699 -113.001 -8c5.33301 -68.667 11.666 -171.667 18.999 -309
c54.667 1.33301 121 16.333 199 45l10 -13c-77.333 -42 -146.666 -69 -207.999 -81c0.666992 -18.667 1 -37 1 -55c0 -10 -4.16699 -18.833 -12.5 -26.5s-17.5 -11.5 -27.5 -11.5c-1.33301 0 -3.16602 -0.5 -5.49902 -1.5s-3.83301 -1.5 -4.5 -1.5c-4 0 -6 11 -6 33z" />
    <glyph glyph-name="sterling" unicode="&#xa3;" horiz-adv-x="733" 
d="M0 315c62.667 46.667 114.333 70 155 70c0 48 1 126 3 234c1.33301 50.667 18.333 93.5 51 128.5s74 52.5 124 52.5c49.333 0 91 -25 125 -75c31.333 -46.667 44.666 -95 39.999 -145c-0.666992 -4.66699 -1.33398 -9.66699 -2.00098 -15c-0.666992 4.66699 -5 21 -13 49
c-26.667 92.667 -76.667 139 -150 139c-67.333 0 -103 -35.667 -107 -107c7.33301 -40 19.333 -131 36 -273l2 -19c22.667 -8 41.334 -12 56.001 -12c24.667 0 55.334 10.333 92.001 31c-51.333 -51.333 -98.333 -76 -141 -74l22 -205
c10.667 -6.66699 32 -10.334 64 -11.001c-8 0 45 0 159 0c29.333 0 52.333 2.33301 69 7l62 20c14 4 29 8.66699 45 14c0.666992 0.666992 1.16699 1 1.5 1s-0.166992 -0.333008 -1.5 -1c-1.33301 -3.33301 -14.666 -16.666 -39.999 -39.999c-30 -28 -47 -42 -51 -42
c6.66699 0 3.83398 0.5 -8.49902 1.5s-20.5 1.16699 -24.5 0.5c-17.333 -2 -44.666 -3 -81.999 -3c-41.333 0 -78 0.333008 -110 1l-86 2c-3.33301 -8 -9.33301 -18 -18 -30c-6.66699 -9.33301 -11.667 -14 -15 -14c-2.66699 0 -8.33398 3 -17.001 9
c-10.667 5.33301 -42 27.666 -94 66.999c-1.33301 0.666992 -4.5 1.83398 -9.5 3.50098s-7.5 3.5 -7.5 5.5s2.33301 10 7 24l1 2c5.33301 24 9.66602 63.333 12.999 118c1.33301 24.667 2.66602 59.667 3.99902 105c-24 7.33301 -45 11 -63 11c-28.667 0 -59 -10 -91 -30z
" />
    <glyph glyph-name="currency" unicode="&#xa4;" horiz-adv-x="543" 
d="M373 389c0 101.333 -42.332 154.335 -126.999 159.002c36 2 67.667 -0.333008 95 -7l76 79l50 -11l-79 -85c55.333 -30 83 -79.667 83 -149c0 -6.66699 -0.333008 -13.667 -1 -21c-2.66699 -30 -24.334 -68 -65.001 -114c30.667 -26.667 63.334 -44.334 98.001 -53.001
c-51.333 -2.66699 -96.666 2.66602 -135.999 15.999c-36 -26.667 -74.667 -38.667 -116 -36c-60 4 -110.333 19 -151 45l-30 -33l-70 5l59 61c-40.667 42 -60.334 94 -59.001 156c1.33301 71.333 26.333 124.666 75 159.999c-16.667 14.667 -35.667 27.334 -57 38.001
c28.667 0 58 -6.66699 88 -20c30 14 66.667 21 110 21c20.667 0 42.334 -1.66699 65.001 -5c-53.333 0 -98.833 -21.333 -136.5 -64s-55.834 -91 -54.501 -145c1.33301 -53.333 11.333 -97 30 -131c24 -43.333 60.333 -64.333 109 -63c45.333 1.33301 81.666 24 108.999 68
c23.333 37.333 35 80.333 35 129z" />
    <glyph glyph-name="yen" unicode="&#xa5;" horiz-adv-x="631" 
d="M70 772c1.33301 -0.666992 39.6641 -57.332 114.997 -169.999c73.333 -109.333 117.333 -163.666 132 -162.999c16.667 1.33301 59.334 49.666 128.001 144.999c62.667 87.333 102.667 148.333 120 183c11.333 22 19 33 23 33c2 0 3 -2.66699 3 -8
c0 -16 -8.66699 -51 -26 -105c-10 -32.667 -54.333 -122 -133 -268c-69.333 -130 -107.666 -221 -114.999 -273c-13.333 -97.333 -27.666 -146 -42.999 -146c-10.667 0 -21 28.333 -31 85c-8 47.333 -12 83.333 -12 108c0 52 14.667 106.667 44 164
c-3.33301 20.667 -43.333 94.667 -120 222c-10 17.333 -40.667 52.666 -92 105.999c-44.667 46.667 -65.667 73 -63 79c4 9.33301 16 14 36 14c14 0 25.333 -2 34 -6zM31.998 224.002c70.667 44.667 129.664 67 176.997 67c26.667 0 60 -6.33301 100 -19
c50.667 -16 90 -24 118 -24c36.667 0 83.667 13.333 141 40c-57.333 -48 -110.666 -72 -159.999 -72c-27.333 0 -67.166 7.83301 -119.499 23.5s-92.166 23.5 -119.499 23.5c-42 0 -87.667 -13 -137 -39zM31.9951 322.002c70.667 44.667 129.664 67 176.997 67
c26.667 0 60 -6.33301 100 -19c50.667 -16 90 -24 118 -24c36.667 0 83.667 13.333 141 40c-57.333 -48 -110.666 -72 -159.999 -72c-27.333 0 -67.166 7.83301 -119.499 23.5s-92.166 23.5 -119.499 23.5c-42 0 -87.667 -13 -137 -39z" />
    <glyph glyph-name="brokenbar" unicode="&#xa6;" horiz-adv-x="221" 
d="M29 618c2 -44 1.33105 -128.334 -2.00195 -253.001c-4 -144 -10.667 -229.667 -20 -257c-4.66699 -13.333 -7 -21 -7 -23s2.5 -3.66699 7.5 -5s8.16699 -2.66602 9.5 -3.99902c22.667 -14.667 54 -37 94 -67c8 -6 13.667 -9 17 -9s8.33301 4.66699 15 14
c14 19.333 21 38 21 56c0 12 -0.333008 21.667 -1 29c-25.333 274 -47.666 458.667 -66.999 554c-3.33301 15.333 -7.33301 23 -12 23c-5.33301 0 -14.166 -1.83301 -26.499 -5.5s-19.833 -7.16699 -22.5 -10.5c-5.33301 -6 -7.33301 -20 -6 -42z" />
    <glyph glyph-name="section" unicode="&#xa7;" horiz-adv-x="625" 
d="M553 112c21.333 -32.667 31.9971 -69.9961 31.9971 -111.996c0 -59.333 -16.667 -99.666 -50 -120.999c-28.667 -18.667 -78.667 -26.667 -150 -24c-38.667 1.33301 -94.167 13.666 -166.5 36.999s-114.5 35 -126.5 35c-14.667 0 -22.334 0.333008 -23.001 1
c-5.33301 -2 -11.666 -4.66699 -18.999 -8c-25.333 -11.333 -41 -17 -47 -17c-2 0 -3 0.666992 -3 2c0 3.33301 9.33301 10.666 28 21.999c16.667 10 28.334 16 35.001 18c12 3.33301 31.667 5 59 5c24.667 0 62.334 -7.16699 113.001 -21.5s89.334 -21.5 116.001 -21.5
c32 0 56.667 7.66699 74 23c22.667 20 34 48 34 84c0 47.333 -18.333 87.666 -55 120.999c-33.333 30.667 -74.666 49.667 -123.999 57c-70 10.667 -121.667 31.667 -155 63c-36 33.333 -57 84 -63 152c-3.33301 32.667 9.33398 63.334 38.001 92.001
c-21.333 30.667 -34.333 72.334 -39 125.001c-4 39.333 14.333 75.666 55 108.999c38 31.333 77.333 46.666 118 45.999l52 -3c20 -2 37 -5.33301 51 -10c7.33301 -2.66699 21.333 -8.33398 42 -17.001c3.33301 -1.33301 6 -2 8 -2c7.33301 0 11 3.33301 11 10
c0 1.33301 -0.333008 3.66602 -1 6.99902l-13 25c0 2 5.83301 3 17.5 3s28.667 1.16699 51 3.5s38.833 3.5 49.5 3.5c2 0 3 -1 3 -3c-8 -16 -12 -30.667 -12 -44c0 -46 7 -82 21 -108c8.66699 -15.333 13 -26 13 -32c0 -4 -2 -6 -6 -6c-16.667 0 -43.334 15 -80.001 45
c-31.333 25.333 -56.333 43.666 -75 54.999c-30 17.333 -57.333 25 -82 23c-67.333 -6.66699 -101 -36 -101 -88c0 -14 2 -30.333 6 -49c11.333 -55.333 23.666 -90.666 36.999 -105.999c19.333 -23.333 57 -38 113 -44c69.333 -8.66699 126 -30.667 170 -66
c50 -40.667 75 -93.667 75 -159c0 -46.667 -10.333 -81.667 -31 -105zM183.997 434.004v-9.99805c0 -13.333 2 -29.666 6 -48.999c11.333 -54.667 23.666 -90 36.999 -106c19.333 -22.667 57 -37.334 113 -44.001c43.333 -4.66699 81.333 -14.667 114 -30
c2.66699 10.667 4 22.667 4 36c0 47.333 -18.333 87.666 -55 120.999c-33.333 30 -74.666 49 -123.999 57c-36 5.33301 -67.667 13.666 -95 24.999zM502.997 582.006z" />
    <glyph glyph-name="dieresis" unicode="&#xa8;" horiz-adv-x="419" 
d="M71 802c-47.333 -32 -71 -63.333 -71 -94c0 -24.667 16 -37.334 48 -38.001c24.667 -0.666992 49.667 5.33301 75 18c30.667 14 46 32.333 46 55c0 16 -9 31.667 -27 47c4.66699 -7.33301 7 -14.666 7 -21.999c0 -17.333 -7.83301 -31 -23.5 -41s-32.5 -15 -50.5 -15
c-21.333 -0.666992 -32 6 -32 20c0 12.667 9.33301 36 28 70zM281 802c-47.333 -32 -71 -63.333 -71 -94c0 -24.667 16 -37.334 48 -38.001c24.667 -0.666992 49.667 5.33301 75 18c30.667 14 46 32.333 46 55c0 16 -9 31.667 -27 47c4.66699 -7.33301 7 -14.666 7 -21.999
c0 -17.333 -7.83301 -31 -23.5 -41s-32.5 -15 -50.5 -15c-21.333 -0.666992 -32 6 -32 20c0 12.667 9.33301 36 28 70z" />
    <glyph glyph-name="ordfeminine" unicode="&#xaa;" horiz-adv-x="311" 
d="M205 654c-21.333 5.33301 -41.6689 8 -61.002 8c-31.333 0 -59 -7.66699 -83 -23c-28 -17.333 -41.667 -40.666 -41 -69.999c0.666992 -31.333 21.334 -56 62.001 -74c32 -14.667 65.667 -22 101 -22c6.66699 0 13.667 0.333008 21 1l-2 8
c-83.333 11.333 -125.666 38.666 -126.999 81.999c-0.666992 24.667 15.333 44.667 48 60c26.667 13.333 53.667 20 81 20zM267.997 724c-2 -14.667 -3.00098 -30.999 -3.00098 -48.999c0 -70 7.66699 -126.667 23 -170c2 -6.66699 3 -10.667 3 -12s-1 -2 -3 -2
s-3.66699 -0.666992 -5 -2c-13.333 -8.66699 -29.666 -20.334 -48.999 -35.001c-4.66699 -3.33301 -7.66699 -5 -9 -5s-4 2.66699 -8 8c-7.33301 10 -11 19.333 -11 28c0 6 0.333008 11 1 15c4.66699 58.667 6.66699 116.334 6 173.001c-0.666992 3.33301 -8.66699 5 -24 5
c-12 0 -30.5 -1.16699 -55.5 -3.5s-43.5 -3.5 -55.5 -3.5c-8.66699 0 -13 1 -13 3c3.33301 2 16 4.33301 38 7c35.333 4.66699 62.333 9 81 13c32 7.33301 55.667 16.666 71 27.999l10 7c0.666992 0.666992 1.66699 1 3 1v-6zM19.9961 416.001
c35.333 22.667 64.999 34 88.999 34c12 0 30 -3.66699 54 -11s42.333 -11 55 -11c18 0 41.333 6.66699 70 20c-28.667 -24 -55.334 -36 -80.001 -36c-13.333 0 -33.166 4 -59.499 12s-46.166 12 -59.499 12c-21.333 0 -44.333 -6.66699 -69 -20z" />
    <glyph glyph-name="minus" unicode="&#xad;" horiz-adv-x="365" 
d="M0 295c30.667 30.667 50 49 58 55c12.667 9.33301 25.667 14 39 14c18.667 0 47 -4.16699 85 -12.5s66.333 -12.5 85 -12.5c10.667 0 27.667 7.66699 51 23l-59 -52c-12 -9.33301 -24.667 -14 -38 -14c-18.667 0 -46.667 4 -84 12s-65.333 12 -84 12
c-13.333 0 -31 -8.33301 -53 -25z" />
    <glyph glyph-name="minus" unicode="&#x2212;" horiz-adv-x="365" 
d="M0 295c30.667 30.667 50 49 58 55c12.667 9.33301 25.667 14 39 14c18.667 0 47 -4.16699 85 -12.5s66.333 -12.5 85 -12.5c10.667 0 27.667 7.66699 51 23l-59 -52c-12 -9.33301 -24.667 -14 -38 -14c-18.667 0 -46.667 4 -84 12s-65.333 12 -84 12
c-13.333 0 -31 -8.33301 -53 -25z" />
    <glyph glyph-name="degree" unicode="&#xb0;" horiz-adv-x="213" 
d="M71 816c-47.333 -32 -71 -63.333 -71 -94c0 -24.667 16 -37.334 48 -38.001c24.667 -0.666992 49.667 5.33301 75 18c30.667 14 46 32.333 46 55c0 16 -9 31.667 -27 47c4.66699 -7.33301 7 -14.666 7 -21.999c0 -17.333 -7.83301 -31 -23.5 -41s-32.5 -15 -50.5 -15
c-21.333 -0.666992 -32 6 -32 20c0 12.667 9.33301 36 28 70z" />
    <glyph glyph-name="plusminus" unicode="&#xb1;" horiz-adv-x="364" 
d="M131 450h55.001v-100c45.333 -7.33301 72.333 -11 81 -11c10.667 0 27.667 7.66699 51 23l-59 -52c-12 -9.33301 -24.667 -14 -38 -14c-7.33301 0 -19 1.33301 -35 4v-87h-55v97c-41.333 6.66699 -67.333 10 -78 10c-13.333 0 -31 -8.33301 -53 -25
c30.667 30.667 50 49 58 55c12.667 9.33301 25.667 14 39 14c7.33301 0 18.666 -1.33301 33.999 -4v90zM6.00098 133c30.667 30.667 50 49 58 55c12.667 9.33301 25.667 14 39 14c18.667 0 47 -4.16699 85 -12.5s66.333 -12.5 85 -12.5c10.667 0 27.667 7.66699 51 23
l-59 -52c-12 -9.33301 -24.667 -14 -38 -14c-18 0 -45.5 4 -82.5 12s-64.833 12 -83.5 12c-12.667 0 -31 -8.33301 -55 -25z" />
    <glyph glyph-name="acute" unicode="&#xb4;" horiz-adv-x="309" 
d="M0 611c58.667 1.33301 94.002 5.33398 106.002 12.001c6.66699 4.66699 26.334 30.667 59.001 78l42 62c13.333 14 34 24.333 62 31c-56.667 -4.66699 -89.334 -9.33398 -98.001 -14.001c-11.333 -6 -32 -31 -62 -75c-28.667 -41.333 -43.334 -62.333 -44.001 -63
c-14.667 -16 -36.334 -26.333 -65.001 -31z" />
    <glyph glyph-name="mu" unicode="&#xb5;" horiz-adv-x="614" 
d="M29 -162c2 44 1.33105 128.336 -2.00195 253.003c-4 144 -10.667 229.667 -20 257c-4.66699 13.333 -7 21 -7 23s2.5 3.66699 7.5 5s8.16699 2.66602 9.5 3.99902c22.667 14.667 54 37 94 67c8 6 13.667 9 17 9s8.33301 -4.66699 15 -14c14 -19.333 21 -38 21 -56
c0 -12 -0.333008 -21.667 -1 -29l-8 -83v-14c0 -56.667 7.33301 -103.334 22 -140.001c21.333 -52.667 56 -77.334 104 -74.001c54 4 94 35.667 120 95c19.333 44.667 29 98.667 29 162c0 41.333 -4.33301 79.333 -13 114l86 11c8.66699 -90 22.334 -164.667 41.001 -224
l30 -95c-37.333 -74 -69.333 -111 -96 -111c-17.333 0 -31.333 13 -42 39l-16 42c22.667 0 10.667 -10.5 -36 -31.5s-78.334 -31.5 -95.001 -31.5c-61.333 0 -113.333 16.333 -156 49c-13.333 -118.667 -25.666 -206 -36.999 -262c-3.33301 -15.333 -7.33301 -23 -12 -23
c-5.33301 0 -14.166 1.83301 -26.499 5.5s-19.833 7.16699 -22.5 10.5c-5.33301 6 -7.33301 20 -6 42z" />
    <glyph glyph-name="mu" unicode="&#x3bc;" horiz-adv-x="614" 
d="M29 -162c2 44 1.33105 128.336 -2.00195 253.003c-4 144 -10.667 229.667 -20 257c-4.66699 13.333 -7 21 -7 23s2.5 3.66699 7.5 5s8.16699 2.66602 9.5 3.99902c22.667 14.667 54 37 94 67c8 6 13.667 9 17 9s8.33301 -4.66699 15 -14c14 -19.333 21 -38 21 -56
c0 -12 -0.333008 -21.667 -1 -29l-8 -83v-14c0 -56.667 7.33301 -103.334 22 -140.001c21.333 -52.667 56 -77.334 104 -74.001c54 4 94 35.667 120 95c19.333 44.667 29 98.667 29 162c0 41.333 -4.33301 79.333 -13 114l86 11c8.66699 -90 22.334 -164.667 41.001 -224
l30 -95c-37.333 -74 -69.333 -111 -96 -111c-17.333 0 -31.333 13 -42 39l-16 42c22.667 0 10.667 -10.5 -36 -31.5s-78.334 -31.5 -95.001 -31.5c-61.333 0 -113.333 16.333 -156 49c-13.333 -118.667 -25.666 -206 -36.999 -262c-3.33301 -15.333 -7.33301 -23 -12 -23
c-5.33301 0 -14.166 1.83301 -26.499 5.5s-19.833 7.16699 -22.5 10.5c-5.33301 6 -7.33301 20 -6 42z" />
    <glyph glyph-name="paragraph" unicode="&#xb6;" horiz-adv-x="591" 
d="M411 616c-1.33301 22 0.667969 36.001 6.00098 42.001c2.66699 3.33301 10.167 6.83301 22.5 10.5s21.166 5.5 26.499 5.5c4.66699 0 8.66699 -7.66699 12 -23c19.333 -95.333 41.666 -280 66.999 -554c0.666992 -7.33301 1 -17 1 -29c0 -18 -7 -36.667 -21 -56
c-6.66699 -9.33301 -11.667 -14 -15 -14s-9 3 -17 9c-39.333 30 -70.666 52.333 -93.999 67c-1.33301 1.33301 -4.5 2.66602 -9.5 3.99902s-7.5 3 -7.5 5s2.33301 9.66699 7 23c9.33301 27.333 16 113 20 257c3.33301 124.667 4 209 2 253zM500.001 727.001
c18.667 5.33301 33.332 6.66504 43.999 3.99805c4.66699 -1.33301 7 -2.66602 7 -3.99902c0 -8 -28.667 -17 -86 -27c-22.667 -4 -42.667 -6 -60 -6c-15.333 0 -38.833 3.33301 -70.5 10s-56.5 9.33398 -74.5 8.00098c-105.333 -6 -160 -66 -164 -180
c-2.66699 -80.667 25.666 -143 84.999 -187l1 20c3.33301 122.667 4 207 2 253c-1.33301 22 0.666992 36 6 42c2.66699 3.33301 10.167 6.83301 22.5 10.5s21.166 5.5 26.499 5.5c4.66699 0 8.66699 -7.66699 12 -23c14 -69.333 29.667 -186.666 47 -351.999
c54 -6.66699 81 -12 81 -16c0 -4.66699 -26 -8 -78 -10l17 -176c0.666992 -7.33301 1 -17 1 -29c0 -18 -7 -36.667 -21 -56c-6.66699 -9.33301 -11.667 -14 -15 -14c-3.33301 1.33301 -9 4.33301 -17 9c-40 30 -71.333 52.333 -94 67
c-1.33301 1.33301 -4.5 2.66602 -9.5 3.99902s-7.5 3 -7.5 5s2.33301 9.66699 7 23c7.33301 22 13 82 17 180c-31.333 10.667 -60.666 27.334 -87.999 50.001c-59.333 49.333 -89.666 114 -90.999 194c-2 145.333 74.667 222.666 230 231.999c38 2 85 -3.66699 141 -17
c58.667 -14 97.334 -21 116.001 -21c4.66699 0 9 0.333008 13 1z" />
    <glyph glyph-name="cedilla" unicode="&#xb8;" horiz-adv-x="284" 
d="M14 -80l47.0029 -0.00292969h43c21.333 -2.66699 32 -11 32 -25c0 -3.33301 -0.333008 -7 -1 -11c-10.667 -34 -30.334 -51 -59.001 -51c-8.66699 0 -15.667 2.33301 -21 7c-12 10 -22.667 15 -32 15c-3.33301 0 -5 -1.33301 -5 -4c0 -12 17.333 -24.333 52 -37
c30 -10.667 52.667 -16 68 -16c8.66699 0 17.667 0.666992 27 2c20.667 4 39 14.5 55 31.5s24 34.167 24 51.5c0 22 -13 37 -39 45c-32 10 -58 15 -78 15c-10 0 -20 -0.333008 -30 -1c-6.66699 0.666992 -10.334 1.33398 -11.001 2.00098
c-1.33301 1.33301 -1.33301 4.33301 0 9s7 18.334 17 41.001c5.33301 10.667 8 18.334 8 23.001c0 8.66699 -14 13 -42 13c-16.667 0 -30.334 -8.66699 -41.001 -26c-9.33301 -14 -15 -30.333 -17 -49c-7.33301 -17.333 -11 -27 -11 -29c0 -2.66699 4.66699 -4.66699 14 -6z
" />
    <glyph glyph-name="ordmasculine" unicode="&#xba;" horiz-adv-x="308" 
d="M20 425c35.333 22.667 64.999 34 88.999 34c12 0 30 -3.66699 54 -11s42.333 -11 55 -11c18 0 41.333 6.66699 70 20c-28.667 -24 -55.334 -36 -80.001 -36c-13.333 0 -33.166 4 -59.499 12s-46.166 12 -59.499 12c-21.333 0 -44.333 -6.66699 -69 -20zM188.999 694
c-12 2 -23.333 3.00098 -34 3.00098c-74 0 -112 -35 -114 -105c-0.666992 -36.667 12.333 -66 39 -88c23.333 -20 54.333 -31.333 93 -34c31.333 -2.66699 59.666 11.333 84.999 42c18.667 23.333 28.667 42 30 56c2 21.333 -1.66699 40.666 -11 57.999
c-18 32 -53.333 46.667 -106 44c44 -2.66699 66 -30.667 66 -84c0 -25.333 -6 -48 -18 -68c-14 -22.667 -33 -34.334 -57 -35.001c-47.333 -1.33301 -71.666 32.334 -72.999 101.001c-0.666992 28.667 8.83301 54.167 28.5 76.5s43.5 33.5 71.5 33.5z" />
    <glyph glyph-name="questiondown" unicode="&#xbf;" horiz-adv-x="517" 
d="M203 665c48.667 32.667 72.999 64.668 72.999 96.001c0 25.333 -16.667 38.333 -50 39c-25.333 0.666992 -51 -5.33301 -77 -18c-30.667 -15.333 -46 -34.333 -46 -57c0 -16 9 -32 27 -48c-4 7.33301 -6 15 -6 23c0 17.333 8.33301 31.333 25 42
c14.667 10 31.334 15 50.001 15c22 0.666992 33 -6.33301 33 -21c0 -12.667 -9.66699 -36.334 -29 -71.001zM329.999 272.001c23.333 -23.333 35.332 -35.667 35.999 -37c9.33301 -14.667 14 -39 14 -73c0 -36 -19.333 -68.333 -58 -97
c-35.333 -26 -71.666 -39 -108.999 -39c-36 0 -66.333 18.667 -91 56c-21.333 32.667 -33 68 -35 106c-2.66699 40.667 6.33301 76 27 106c12.667 18.667 39.667 45.334 81 80.001c56.667 48 85 103 85 165c0 34.667 -11.333 65.667 -34 93l-96 -54
c25.333 -34 38 -72.667 38 -116c0 -36 -9.66699 -64.333 -29 -85c-8.66699 -9.33301 -30 -24 -64 -44c-29.333 -17.333 -51 -36.333 -65 -57s-23.667 -52.667 -29 -96c-6 -42.667 18.333 -84.334 73 -125.001c48.667 -36 95.667 -55.333 141 -58
c47.333 -2.66699 100 14 158 50c69.333 43.333 104 97.333 104 162c0 48.667 -21 101 -63 157z" />
    <glyph glyph-name="Agrave" unicode="&#xc0;" horiz-adv-x="658" 
d="M390 313c-57.333 149.333 -91.666 224.001 -102.999 224.001c-18 0 -51 -57.333 -99 -172c-37.333 -88 -64 -157.667 -80 -209c25.333 8.66699 64.666 34 117.999 76c50.667 39.333 95.667 63.666 135 72.999c5.33301 1.33301 15 4 29 8zM42 6.00098
c-0.666992 18.667 3.33301 53.667 12 105c-36 4 -54 11.333 -54 22c0 0.666992 2.5 -0.5 7.5 -3.5s9.83301 -4.5 14.5 -4.5c2.66699 0 15 4.66699 37 14c26 138.667 58.667 265 98 379c50 144.667 95 216.667 135 216c36.667 -0.666992 68 -42 94 -124l83 -290
c27.333 -4 56.333 -17.667 87 -41c41.333 -31.333 62 -50 62 -56c0 -3.33301 -4.66699 -5 -14 -5c-16.667 0 -53.334 6.33301 -110.001 19c33.333 -106 68.333 -193.667 105 -263c8 -15.333 12 -26 12 -32s-2.33301 -9 -7 -9c-9.33301 0 -30.333 14.667 -63 44
c-23.333 21.333 -65.666 112 -126.999 272c-76.667 -2 -183 -48.333 -319 -139c-12.667 -46.667 -19 -83 -19 -109zM99 935.001c58.667 -1.33301 94.002 -5.33398 106.002 -12.001c6.66699 -4.66699 26.334 -30.667 59.001 -78l42 -62c13.333 -14 34 -24.333 62 -31
c-56.667 4.66699 -89.334 9.33398 -98.001 14.001c-11.333 6 -32 31 -62 75c-28.667 41.333 -43.334 62.333 -44.001 63c-14.667 16 -36.334 26.333 -65.001 31z" />
    <glyph glyph-name="Aacute" unicode="&#xc1;" horiz-adv-x="658" 
d="M390 313c-57.333 149.333 -91.666 224.001 -102.999 224.001c-18 0 -51 -57.333 -99 -172c-37.333 -88 -64 -157.667 -80 -209c25.333 8.66699 64.666 34 117.999 76c50.667 39.333 95.667 63.666 135 72.999c5.33301 1.33301 15 4 29 8zM42 6.00098
c-0.666992 18.667 3.33301 53.667 12 105c-36 4 -54 11.333 -54 22c0 0.666992 2.5 -0.5 7.5 -3.5s9.83301 -4.5 14.5 -4.5c2.66699 0 15 4.66699 37 14c26 138.667 58.667 265 98 379c50 144.667 95 216.667 135 216c36.667 -0.666992 68 -42 94 -124l83 -290
c27.333 -4 56.333 -17.667 87 -41c41.333 -31.333 62 -50 62 -56c0 -3.33301 -4.66699 -5 -14 -5c-16.667 0 -53.334 6.33301 -110.001 19c33.333 -106 68.333 -193.667 105 -263c8 -15.333 12 -26 12 -32s-2.33301 -9 -7 -9c-9.33301 0 -30.333 14.667 -63 44
c-23.333 21.333 -65.666 112 -126.999 272c-76.667 -2 -183 -48.333 -319 -139c-12.667 -46.667 -19 -83 -19 -109zM229 780.001c58.667 1.33301 94.002 5.33398 106.002 12.001c6.66699 4.66699 26.334 30.667 59.001 78l42 62c13.333 14 34 24.333 62 31
c-56.667 -4.66699 -89.334 -9.33398 -98.001 -14.001c-11.333 -6 -32 -31 -62 -75c-28.667 -41.333 -43.334 -62.333 -44.001 -63c-14.667 -16 -36.334 -26.333 -65.001 -31z" />
    <glyph glyph-name="Acircumflex" unicode="&#xc2;" horiz-adv-x="658" 
d="M390 313c-57.333 149.333 -91.666 224.001 -102.999 224.001c-18 0 -51 -57.333 -99 -172c-37.333 -88 -64 -157.667 -80 -209c25.333 8.66699 64.666 34 117.999 76c50.667 39.333 95.667 63.666 135 72.999c5.33301 1.33301 15 4 29 8zM42 6.00098
c-0.666992 18.667 3.33301 53.667 12 105c-36 4 -54 11.333 -54 22c0 0.666992 2.5 -0.5 7.5 -3.5s9.83301 -4.5 14.5 -4.5c2.66699 0 15 4.66699 37 14c26 138.667 58.667 265 98 379c50 144.667 95 216.667 135 216c36.667 -0.666992 68 -42 94 -124l83 -290
c27.333 -4 56.333 -17.667 87 -41c41.333 -31.333 62 -50 62 -56c0 -3.33301 -4.66699 -5 -14 -5c-16.667 0 -53.334 6.33301 -110.001 19c33.333 -106 68.333 -193.667 105 -263c8 -15.333 12 -26 12 -32s-2.33301 -9 -7 -9c-9.33301 0 -30.333 14.667 -63 44
c-23.333 21.333 -65.666 112 -126.999 272c-76.667 -2 -183 -48.333 -319 -139c-12.667 -46.667 -19 -83 -19 -109zM263 955.001c12.667 27.333 27.6689 41 45.002 41c11.333 0 19 -3.83301 23 -11.5s22.333 -47.5 55 -119.5c22.667 -50.667 43.667 -86.334 63 -107.001
c-28.667 0 -54.334 15 -77.001 45c-11.333 14.667 -27.333 42.334 -48 83.001c-14.667 30 -26.667 45.333 -36 46c-11.333 0.666992 -33 -24.333 -65 -75c-0.666992 -0.666992 -7.66699 -14 -21 -40c-8 -16 -14.667 -24 -20 -24c-8 -1.33301 -12 2.66699 -12 12
c0 6 2.33301 12.333 7 19l28 38c15.333 22 34.666 53 57.999 93z" />
    <glyph glyph-name="Atilde" unicode="&#xc3;" horiz-adv-x="658" 
d="M390 313c-57.333 149.333 -91.666 224.001 -102.999 224.001c-18 0 -51 -57.333 -99 -172c-37.333 -88 -64 -157.667 -80 -209c25.333 8.66699 64.666 34 117.999 76c50.667 39.333 95.667 63.666 135 72.999c5.33301 1.33301 15 4 29 8zM42 6.00098
c-0.666992 18.667 3.33301 53.667 12 105c-36 4 -54 11.333 -54 22c0 0.666992 2.5 -0.5 7.5 -3.5s9.83301 -4.5 14.5 -4.5c2.66699 0 15 4.66699 37 14c26 138.667 58.667 265 98 379c50 144.667 95 216.667 135 216c36.667 -0.666992 68 -42 94 -124l83 -290
c27.333 -4 56.333 -17.667 87 -41c41.333 -31.333 62 -50 62 -56c0 -3.33301 -4.66699 -5 -14 -5c-16.667 0 -53.334 6.33301 -110.001 19c33.333 -106 68.333 -193.667 105 -263c8 -15.333 12 -26 12 -32s-2.33301 -9 -7 -9c-9.33301 0 -30.333 14.667 -63 44
c-23.333 21.333 -65.666 112 -126.999 272c-76.667 -2 -183 -48.333 -319 -139c-12.667 -46.667 -19 -83 -19 -109zM100 811.001c54 40.667 99.332 61 135.999 61c20.667 0 46.334 -5.66699 77.001 -17c39.333 -14.667 69.333 -22 90 -22c28.667 0 65 12 109 36
c-44 -43.333 -85 -65 -123 -65c-20.667 0 -51 7.16699 -91 21.5s-71 21.5 -93 21.5c-32 0 -67 -12 -105 -36z" />
    <glyph glyph-name="Adieresis" unicode="&#xc4;" horiz-adv-x="658" 
d="M390 313c-57.333 149.333 -91.666 224.001 -102.999 224.001c-18 0 -51 -57.333 -99 -172c-37.333 -88 -64 -157.667 -80 -209c25.333 8.66699 64.666 34 117.999 76c50.667 39.333 95.667 63.666 135 72.999c5.33301 1.33301 15 4 29 8zM42 6.00098
c-0.666992 18.667 3.33301 53.667 12 105c-36 4 -54 11.333 -54 22c0 0.666992 2.5 -0.5 7.5 -3.5s9.83301 -4.5 14.5 -4.5c2.66699 0 15 4.66699 37 14c26 138.667 58.667 265 98 379c50 144.667 95 216.667 135 216c36.667 -0.666992 68 -42 94 -124l83 -290
c27.333 -4 56.333 -17.667 87 -41c41.333 -31.333 62 -50 62 -56c0 -3.33301 -4.66699 -5 -14 -5c-16.667 0 -53.334 6.33301 -110.001 19c33.333 -106 68.333 -193.667 105 -263c8 -15.333 12 -26 12 -32s-2.33301 -9 -7 -9c-9.33301 0 -30.333 14.667 -63 44
c-23.333 21.333 -65.666 112 -126.999 272c-76.667 -2 -183 -48.333 -319 -139c-12.667 -46.667 -19 -83 -19 -109zM193 893.001c-47.333 -32 -71 -63.333 -71 -94c0 -24.667 16 -37.334 48 -38.001c24.667 -0.666992 49.667 5.33301 75 18c30.667 14 46 32.333 46 55
c0 16 -9 31.667 -27 47c4.66699 -7.33301 7 -14.666 7 -21.999c0 -17.333 -7.83301 -31 -23.5 -41s-32.5 -15 -50.5 -15c-21.333 -0.666992 -32 6 -32 20c0 12.667 9.33301 36 28 70zM403 893.001c-47.333 -32 -71 -63.333 -71 -94c0 -24.667 16 -37.334 48 -38.001
c24.667 -0.666992 49.667 5.33301 75 18c30.667 14 46 32.333 46 55c0 16 -9 31.667 -27 47c4.66699 -7.33301 7 -14.666 7 -21.999c0 -17.333 -7.83301 -31 -23.5 -41s-32.5 -15 -50.5 -15c-21.333 -0.666992 -32 6 -32 20c0 12.667 9.33301 36 28 70z" />
    <glyph glyph-name="Aring" unicode="&#xc5;" horiz-adv-x="658" 
d="M390 313c-57.333 149.333 -91.666 224.001 -102.999 224.001c-18 0 -51 -57.333 -99 -172c-37.333 -88 -64 -157.667 -80 -209c25.333 8.66699 64.666 34 117.999 76c50.667 39.333 95.667 63.666 135 72.999c5.33301 1.33301 15 4 29 8zM42 6.00098
c-0.666992 18.667 3.33301 53.667 12 105c-36 4 -54 11.333 -54 22c0 0.666992 2.5 -0.5 7.5 -3.5s9.83301 -4.5 14.5 -4.5c2.66699 0 15 4.66699 37 14c26 138.667 58.667 265 98 379c50 144.667 95 216.667 135 216c36.667 -0.666992 68 -42 94 -124l83 -290
c27.333 -4 56.333 -17.667 87 -41c41.333 -31.333 62 -50 62 -56c0 -3.33301 -4.66699 -5 -14 -5c-16.667 0 -53.334 6.33301 -110.001 19c33.333 -106 68.333 -193.667 105 -263c8 -15.333 12 -26 12 -32s-2.33301 -9 -7 -9c-9.33301 0 -30.333 14.667 -63 44
c-23.333 21.333 -65.666 112 -126.999 272c-76.667 -2 -183 -48.333 -319 -139c-12.667 -46.667 -19 -83 -19 -109zM304 895.001c-47.333 -32 -71 -63.333 -71 -94c0 -24.667 16 -37.334 48 -38.001c24.667 -0.666992 49.667 5.33301 75 18c30.667 14 46 32.333 46 55
c0 16 -9 31.667 -27 47c4.66699 -7.33301 7 -14.666 7 -21.999c0 -17.333 -7.83301 -31 -23.5 -41s-32.5 -15 -50.5 -15c-21.333 -0.666992 -32 6 -32 20c0 12.667 9.33301 36 28 70z" />
    <glyph glyph-name="AE" unicode="&#xc6;" horiz-adv-x="911" 
d="M372 308l-14.999 90.001c-38 92.667 -61.333 139 -70 139c-18 0 -51 -57.333 -99 -172c-37.333 -88 -64 -157.667 -80 -209c25.333 8.66699 64.666 34 117.999 76c50.667 39.333 95.667 63.666 135 72.999c2 0.666992 5.66699 1.66699 11 3zM464.001 381.001
c8 -4.66699 57.334 -6.99609 148.001 -6.99609c26.667 0 62.334 1 107.001 3l68 3c-1.33301 0 6.33398 1.33301 23.001 4c-0.666992 -0.666992 -8.33398 -7.66699 -23.001 -21l-24 -22c0.666992 -0.666992 0.333984 -1 -0.999023 -1l1 1
c-6.66699 4.66699 -21.334 9 -44.001 13c-20 4 -35.333 6 -46 6c-9.33301 0 -22 -2.33301 -38 -7c-20 -5.33301 -33.667 -8.66602 -41 -9.99902c-40.667 -6.66699 -62 -10 -64 -10c-16.667 -4 -31.334 -11.333 -44.001 -22l23 -75
c1.33301 -0.666992 1.33301 -1.33398 0 -2.00098l41 -135c2 -6.66699 3.33301 -11.667 4 -15c12 -6 34.333 -9.66699 67 -11c-2 0.666992 22.333 1 73 1c28.667 0 51.667 2 69 6c2.66699 0.666992 23.334 7.66699 62.001 21c3.33301 0.666992 18.666 5 45.999 13
c-0.666992 0 -1 0.333008 -1 1c1.33301 0 1.66602 -0.333008 0.999023 -1c-0.666992 -2.66699 -14.334 -16.334 -41.001 -41.001c-30 -27.333 -47 -41 -51 -41c-0.666992 0 -4 0.666992 -10 2c-6 0.666992 -13.667 0.666992 -23 0c-15.333 -1.33301 -42.666 -2 -81.999 -2
c-6 0 -5.66699 0 1 0c8 0.666992 3 1 -15 1l-80 1c7.33301 -16 15 -31.667 23 -47c12 -24.667 18 -39.667 18 -45c0 -6 -2.33301 -9 -7 -9c-9.33301 0 -30.333 14.667 -63 44c-6 5.33301 -13 15 -21 29l-5 3c-29.333 17.333 -65 39.666 -107 66.999
c-5.33301 1.33301 -11.333 4.33301 -18 9c0.666992 2 1.33398 7.33301 2.00098 16c2.66699 23.333 -1 71.666 -11 144.999c-73.333 -12.667 -168.666 -58 -285.999 -136c-12.667 -46.667 -19 -83 -19 -109l-34 5c-0.666992 18.667 3.33301 53.667 12 105
c-36 4 -54 11.333 -54 22c0 0.666992 2.5 -0.5 7.5 -3.5s9.83301 -4.5 14.5 -4.5c2.66699 0 15 4.66699 37 14c26 138.667 58.667 265 98 379c50 144.667 95 216.667 135 216c15.333 0 30.333 -8.33301 45 -25h7c22 0.666992 57.667 9.33398 107 26.001
c47.333 15.333 84.333 23 111 23c64 0 121.667 -18.667 173 -56c22.667 -16.667 34 -27 34 -31c-0.666992 -1.33301 -2 -2 -4 -2c-6 0 -20.333 4.33301 -43 13c-32.667 12.667 -56.334 20.667 -71.001 24c-22.667 5.33301 -54 8.66602 -94 9.99902
c-24.667 0.666992 -58.334 -4.33301 -101.001 -15c-46 -12 -79.333 -18.333 -100 -19l3 -6c4 -1.33301 9 -9 15 -23c15.333 -40.667 45.333 -131.334 90 -272.001z" />
    <glyph glyph-name="Ccedilla" unicode="&#xc7;" horiz-adv-x="622" 
d="M449 696c8 -1.33301 13.332 -2.00195 15.999 -2.00195c5.33301 0 9 1.66699 11 5c2 2.66699 8.66699 2.33398 20 -0.999023c18.667 -5.33301 30.667 -11.833 36 -19.5s9.33301 -21.834 12 -42.501c1.33301 -8 1 -26 -1 -54c-0.666992 -14.667 1.5 -26.5 6.5 -35.5
s7.5 -12.5 7.5 -10.5c0 -1.33301 -12.667 -3.66602 -38 -6.99902c-11.333 -1.33301 -40.666 17 -87.999 55c-50.667 40.667 -94.334 63 -131.001 67c-29.333 3.33301 -45.333 5 -48 5c-17.333 0 -31 -6.66699 -41 -20c-66.667 -91.333 -100 -188.333 -100 -291
c0 -48.667 8.66699 -109.667 26 -183c10.667 -44 34.667 -78 72 -102c30 -19.333 60.333 -29 91 -29c27.333 0 58 8 92 24c23.333 10.667 61.333 33 114 67c44 28 69 42 75 42s-12.333 -18.667 -55 -56c-53.333 -47.333 -84.666 -73.333 -93.999 -78
c-27.333 -14.667 -71.333 -24.334 -132 -29.001c-80 -6 -147 16.333 -201 67c-67.333 62.667 -100.333 159.334 -99 290.001c1.33301 129.333 29.333 222 84 278c22 22.667 52.333 41.334 91 56.001c36.667 13.333 72 20 106 20c26 0 52.333 -7.66699 79 -23
c54 -38.667 83.667 -58 89 -58c2 0 3 1.33301 3 4c0 15.333 -7.33301 32 -22 50c-6 6.66699 -9 10.667 -9 12s1 2 3 2c4.66699 0 13 -1 25 -3zM227.999 -80.002l47.0029 -0.00292969h43c21.333 -2.66699 32 -11 32 -25c0 -3.33301 -0.333008 -7 -1 -11
c-10.667 -34 -30.334 -51 -59.001 -51c-8.66699 0 -15.667 2.33301 -21 7c-12 10 -22.667 15 -32 15c-3.33301 0 -5 -1.33301 -5 -4c0 -12 17.333 -24.333 52 -37c30 -10.667 52.667 -16 68 -16c8.66699 0 17.667 0.666992 27 2c20.667 4 39 14.5 55 31.5s24 34.167 24 51.5
c0 22 -13 37 -39 45c-32 10 -58 15 -78 15c-10 0 -20 -0.333008 -30 -1c-6.66699 0.666992 -10.334 1.33398 -11.001 2.00098c-1.33301 1.33301 -1.33301 4.33301 0 9s7 18.334 17 41.001c5.33301 10.667 8 18.334 8 23.001c0 8.66699 -14 13 -42 13
c-16.667 0 -30.334 -8.66699 -41.001 -26c-9.33301 -14 -15 -30.333 -17 -49c-7.33301 -17.333 -11 -27 -11 -29c0 -2.66699 4.66699 -4.66699 14 -6z" />
    <glyph glyph-name="Egrave" unicode="&#xc8;" horiz-adv-x="618" 
d="M47 685c-31.333 4.66699 -46.998 8.99805 -46.998 12.998c0 6 24 10 72 12c22 0.666992 57.667 9.33398 107 26.001c47.333 15.333 84.333 23 111 23c64 0 121.667 -18.667 173 -56c22.667 -16.667 34 -27 34 -31c0 -1.33301 -17.667 3.66699 -53 15
c-40 12.667 -61.667 19.334 -65 20.001c-22.667 5.33301 -54 8.66602 -94 9.99902c-24.667 0.666992 -59.334 -4.66602 -104.001 -15.999c-46.667 -12 -81.334 -18 -104.001 -18c-10.667 0 -20.667 0.666992 -30 2zM148.002 380.998
c6.66699 -4.66699 30.9951 -6.99805 72.9951 -6.99805c26.667 0 62.334 1 107.001 3l68 3c-1.33301 0 6.33398 1.33301 23.001 4c-0.666992 -0.666992 -8.33398 -7.66699 -23.001 -21l-25 -23c14 0 5.16699 3.33301 -26.5 10s-52.5 10 -62.5 10
c-25.333 0 -51.666 -5.66699 -78.999 -17c-20.667 -8.66699 -31.667 -14 -33 -16c-2.66699 -6 -7.33398 -11.333 -14.001 -16c8 -72 15.333 -142.667 22 -212c0.666992 -6.66699 1 -11.667 1 -15c13.333 -7.33301 43.666 -11.333 90.999 -12c-90 1.33301 -46.333 2 131 2
c28 0 51 2.33301 69 7l62 20c26.667 9.33301 41.667 14 45 14c17.333 0 7.83301 -13.833 -28.5 -41.5s-57.166 -41.5 -62.499 -41.5c-0.666992 0.666992 -4 1.33398 -10 2.00098s-13.667 0.666992 -23 0c-15.333 -1.33301 -42.666 -2 -81.999 -2
c-26.667 0 -64 0.333008 -112 1l-86 1v3c-2 -5.33301 -6.33301 -12.333 -13 -21c-8 -10.667 -13.667 -16 -17 -16c-2.66699 0 -8.33398 3 -17.001 9c-29.333 19.333 -60.666 41.666 -93.999 66.999c-2 2 -5.16699 3.5 -9.5 4.5s-6.5 2.5 -6.5 4.5
c4 15.333 8.66699 36.666 14 63.999c6.66699 56.667 11.334 143.334 14.001 260.001c2 106 2.33301 175.667 1 209c-1.33301 22 0.666992 36 6 42c2.66699 3.33301 10.334 6.66602 23.001 9.99902c16 4 24.667 6 26 6c4.66699 0 8.33398 -7.66699 11.001 -23
c8 -40.667 20.333 -131.334 37 -272.001zM91.9971 962c58.667 -1.33301 94.002 -5.33398 106.002 -12.001c6.66699 -4.66699 26.334 -30.667 59.001 -78l42 -62c13.333 -14 34 -24.333 62 -31c-56.667 4.66699 -89.334 9.33398 -98.001 14.001c-11.333 6 -32 31 -62 75
c-28.667 41.333 -43.334 62.333 -44.001 63c-14.667 16 -36.334 26.333 -65.001 31z" />
    <glyph glyph-name="Eacute" unicode="&#xc9;" horiz-adv-x="618" 
d="M47 685c-31.333 4.66699 -46.998 8.99805 -46.998 12.998c0 6 24 10 72 12c22 0.666992 57.667 9.33398 107 26.001c47.333 15.333 84.333 23 111 23c64 0 121.667 -18.667 173 -56c22.667 -16.667 34 -27 34 -31c0 -1.33301 -17.667 3.66699 -53 15
c-40 12.667 -61.667 19.334 -65 20.001c-22.667 5.33301 -54 8.66602 -94 9.99902c-24.667 0.666992 -59.334 -4.66602 -104.001 -15.999c-46.667 -12 -81.334 -18 -104.001 -18c-10.667 0 -20.667 0.666992 -30 2zM148.002 380.998
c6.66699 -4.66699 30.9951 -6.99805 72.9951 -6.99805c26.667 0 62.334 1 107.001 3l68 3c-1.33301 0 6.33398 1.33301 23.001 4c-0.666992 -0.666992 -8.33398 -7.66699 -23.001 -21l-25 -23c14 0 5.16699 3.33301 -26.5 10s-52.5 10 -62.5 10
c-25.333 0 -51.666 -5.66699 -78.999 -17c-20.667 -8.66699 -31.667 -14 -33 -16c-2.66699 -6 -7.33398 -11.333 -14.001 -16c8 -72 15.333 -142.667 22 -212c0.666992 -6.66699 1 -11.667 1 -15c13.333 -7.33301 43.666 -11.333 90.999 -12c-90 1.33301 -46.333 2 131 2
c28 0 51 2.33301 69 7l62 20c26.667 9.33301 41.667 14 45 14c17.333 0 7.83301 -13.833 -28.5 -41.5s-57.166 -41.5 -62.499 -41.5c-0.666992 0.666992 -4 1.33398 -10 2.00098s-13.667 0.666992 -23 0c-15.333 -1.33301 -42.666 -2 -81.999 -2
c-26.667 0 -64 0.333008 -112 1l-86 1v3c-2 -5.33301 -6.33301 -12.333 -13 -21c-8 -10.667 -13.667 -16 -17 -16c-2.66699 0 -8.33398 3 -17.001 9c-29.333 19.333 -60.666 41.666 -93.999 66.999c-2 2 -5.16699 3.5 -9.5 4.5s-6.5 2.5 -6.5 4.5
c4 15.333 8.66699 36.666 14 63.999c6.66699 56.667 11.334 143.334 14.001 260.001c2 106 2.33301 175.667 1 209c-1.33301 22 0.666992 36 6 42c2.66699 3.33301 10.334 6.66602 23.001 9.99902c16 4 24.667 6 26 6c4.66699 0 8.33398 -7.66699 11.001 -23
c8 -40.667 20.333 -131.334 37 -272.001zM164.997 776c58.667 1.33301 94.002 5.33398 106.002 12.001c6.66699 4.66699 26.334 30.667 59.001 78l42 62c13.333 14 34 24.333 62 31c-56.667 -4.66699 -89.334 -9.33398 -98.001 -14.001c-11.333 -6 -32 -31 -62 -75
c-28.667 -41.333 -43.334 -62.333 -44.001 -63c-14.667 -16 -36.334 -26.333 -65.001 -31z" />
    <glyph glyph-name="Ecircumflex" unicode="&#xca;" horiz-adv-x="618" 
d="M47 685c-31.333 4.66699 -46.998 8.99805 -46.998 12.998c0 6 24 10 72 12c22 0.666992 57.667 9.33398 107 26.001c47.333 15.333 84.333 23 111 23c64 0 121.667 -18.667 173 -56c22.667 -16.667 34 -27 34 -31c0 -1.33301 -17.667 3.66699 -53 15
c-40 12.667 -61.667 19.334 -65 20.001c-22.667 5.33301 -54 8.66602 -94 9.99902c-24.667 0.666992 -59.334 -4.66602 -104.001 -15.999c-46.667 -12 -81.334 -18 -104.001 -18c-10.667 0 -20.667 0.666992 -30 2zM148.002 380.998
c6.66699 -4.66699 30.9951 -6.99805 72.9951 -6.99805c26.667 0 62.334 1 107.001 3l68 3c-1.33301 0 6.33398 1.33301 23.001 4c-0.666992 -0.666992 -8.33398 -7.66699 -23.001 -21l-25 -23c14 0 5.16699 3.33301 -26.5 10s-52.5 10 -62.5 10
c-25.333 0 -51.666 -5.66699 -78.999 -17c-20.667 -8.66699 -31.667 -14 -33 -16c-2.66699 -6 -7.33398 -11.333 -14.001 -16c8 -72 15.333 -142.667 22 -212c0.666992 -6.66699 1 -11.667 1 -15c13.333 -7.33301 43.666 -11.333 90.999 -12c-90 1.33301 -46.333 2 131 2
c28 0 51 2.33301 69 7l62 20c26.667 9.33301 41.667 14 45 14c17.333 0 7.83301 -13.833 -28.5 -41.5s-57.166 -41.5 -62.499 -41.5c-0.666992 0.666992 -4 1.33398 -10 2.00098s-13.667 0.666992 -23 0c-15.333 -1.33301 -42.666 -2 -81.999 -2
c-26.667 0 -64 0.333008 -112 1l-86 1v3c-2 -5.33301 -6.33301 -12.333 -13 -21c-8 -10.667 -13.667 -16 -17 -16c-2.66699 0 -8.33398 3 -17.001 9c-29.333 19.333 -60.666 41.666 -93.999 66.999c-2 2 -5.16699 3.5 -9.5 4.5s-6.5 2.5 -6.5 4.5
c4 15.333 8.66699 36.666 14 63.999c6.66699 56.667 11.334 143.334 14.001 260.001c2 106 2.33301 175.667 1 209c-1.33301 22 0.666992 36 6 42c2.66699 3.33301 10.334 6.66602 23.001 9.99902c16 4 24.667 6 26 6c4.66699 0 8.33398 -7.66699 11.001 -23
c8 -40.667 20.333 -131.334 37 -272.001zM243.997 972c12.667 27.333 27.6689 41 45.002 41c11.333 0 19 -3.83301 23 -11.5s22.333 -47.5 55 -119.5c22.667 -50.667 43.667 -86.334 63 -107.001c-28.667 0 -54.334 15 -77.001 45c-11.333 14.667 -27.333 42.334 -48 83.001
c-14.667 30 -26.667 45.333 -36 46c-11.333 0.666992 -33 -24.333 -65 -75c-0.666992 -0.666992 -7.66699 -14 -21 -40c-8 -16 -14.667 -24 -20 -24c-8 -1.33301 -12 2.66699 -12 12c0 6 2.33301 12.333 7 19l28 38c15.333 22 34.666 53 57.999 93z" />
    <glyph glyph-name="Edieresis" unicode="&#xcb;" horiz-adv-x="618" 
d="M47 685c-31.333 4.66699 -46.998 8.99805 -46.998 12.998c0 6 24 10 72 12c22 0.666992 57.667 9.33398 107 26.001c47.333 15.333 84.333 23 111 23c64 0 121.667 -18.667 173 -56c22.667 -16.667 34 -27 34 -31c0 -1.33301 -17.667 3.66699 -53 15
c-40 12.667 -61.667 19.334 -65 20.001c-22.667 5.33301 -54 8.66602 -94 9.99902c-24.667 0.666992 -59.334 -4.66602 -104.001 -15.999c-46.667 -12 -81.334 -18 -104.001 -18c-10.667 0 -20.667 0.666992 -30 2zM148.002 380.998
c6.66699 -4.66699 30.9951 -6.99805 72.9951 -6.99805c26.667 0 62.334 1 107.001 3l68 3c-1.33301 0 6.33398 1.33301 23.001 4c-0.666992 -0.666992 -8.33398 -7.66699 -23.001 -21l-25 -23c14 0 5.16699 3.33301 -26.5 10s-52.5 10 -62.5 10
c-25.333 0 -51.666 -5.66699 -78.999 -17c-20.667 -8.66699 -31.667 -14 -33 -16c-2.66699 -6 -7.33398 -11.333 -14.001 -16c8 -72 15.333 -142.667 22 -212c0.666992 -6.66699 1 -11.667 1 -15c13.333 -7.33301 43.666 -11.333 90.999 -12c-90 1.33301 -46.333 2 131 2
c28 0 51 2.33301 69 7l62 20c26.667 9.33301 41.667 14 45 14c17.333 0 7.83301 -13.833 -28.5 -41.5s-57.166 -41.5 -62.499 -41.5c-0.666992 0.666992 -4 1.33398 -10 2.00098s-13.667 0.666992 -23 0c-15.333 -1.33301 -42.666 -2 -81.999 -2
c-26.667 0 -64 0.333008 -112 1l-86 1v3c-2 -5.33301 -6.33301 -12.333 -13 -21c-8 -10.667 -13.667 -16 -17 -16c-2.66699 0 -8.33398 3 -17.001 9c-29.333 19.333 -60.666 41.666 -93.999 66.999c-2 2 -5.16699 3.5 -9.5 4.5s-6.5 2.5 -6.5 4.5
c4 15.333 8.66699 36.666 14 63.999c6.66699 56.667 11.334 143.334 14.001 260.001c2 106 2.33301 175.667 1 209c-1.33301 22 0.666992 36 6 42c2.66699 3.33301 10.334 6.66602 23.001 9.99902c16 4 24.667 6 26 6c4.66699 0 8.33398 -7.66699 11.001 -23
c8 -40.667 20.333 -131.334 37 -272.001zM183.997 892c-47.333 -32 -71 -63.333 -71 -94c0 -24.667 16 -37.334 48 -38.001c24.667 -0.666992 49.667 5.33301 75 18c30.667 14 46 32.333 46 55c0 16 -9 31.667 -27 47c4.66699 -7.33301 7 -14.666 7 -21.999
c0 -17.333 -7.83301 -31 -23.5 -41s-32.5 -15 -50.5 -15c-21.333 -0.666992 -32 6 -32 20c0 12.667 9.33301 36 28 70zM393.997 892c-47.333 -32 -71 -63.333 -71 -94c0 -24.667 16 -37.334 48 -38.001c24.667 -0.666992 49.667 5.33301 75 18c30.667 14 46 32.333 46 55
c0 16 -9 31.667 -27 47c4.66699 -7.33301 7 -14.666 7 -21.999c0 -17.333 -7.83301 -31 -23.5 -41s-32.5 -15 -50.5 -15c-21.333 -0.666992 -32 6 -32 20c0 12.667 9.33301 36 28 70z" />
    <glyph glyph-name="Igrave" unicode="&#xcc;" horiz-adv-x="781" 
d="M338 43c-115.333 0 -187.668 1.33301 -217.001 4c-7.33301 -0.666992 -19 -1.33398 -35 -2.00098c-4 0 -20.333 14 -49 42c-24.667 24 -37 37.333 -37 40c0.666992 1.33301 1.66699 2 3 2c2 0 14.667 -5 38 -15l49 -21c16 -4 43.667 -6 83 -6c24 0 44.667 -1.33301 62 -4
l26 -5c5.33301 0 11.333 2.33301 18 7c2.66699 6.66699 7.66699 28 15 64c6 50 10.333 136.667 13 260c2.66699 106.667 3 176.334 1 209.001c-1.33301 21.333 1 35.333 7 42c2 3.33301 9.66699 7 23 11c11.333 3.33301 19.666 5 24.999 5
c4.66699 0 8.66699 -7.66699 12 -23c18.667 -91.333 41 -276 67 -554c0 -4.66699 0.333008 -8.66699 1 -12c6.66699 -5.33301 14.334 -8 23.001 -8c10 0 25.833 1.16699 47.5 3.5s38.167 3.5 49.5 3.5c37.333 0 64.666 3 81.999 9l49 18c33.333 10 48.333 15 45 15
c17.333 0 7.83301 -13.833 -28.5 -41.5s-57.166 -41.5 -62.499 -41.5c6 0 3 0.5 -9 1.5s-20 1.16699 -24 0.5c-21.333 -2 -79.666 -3 -174.999 -3c-3.33301 -8 -9.33301 -18 -18 -30c-6.66699 -9.33301 -11.667 -14 -15 -14c-2.66699 0 -14 6.66699 -34 20zM150.998 675
c-32 17.333 -48 28.332 -48 32.999c0 2 2.33301 3 7 3c6 0 16.333 -1.5 31 -4.5s26 -4.5 34 -4.5c24.667 0 61.167 6.66699 109.5 20s84.833 20 109.5 20c72.667 0 132 -16.667 178 -50c24.667 -18 37 -30 37 -36c0 -7.33301 -14.667 -5.33301 -44 6
c-62 23.333 -120.667 36 -176 38c-22 0.666992 -53.667 -4.66602 -95 -15.999s-72.333 -17 -93 -17c-17.333 0 -34 2.66699 -50 8zM202.998 949.999c58.667 -1.33301 94.002 -5.33398 106.002 -12.001c6.66699 -4.66699 26.334 -30.667 59.001 -78l42 -62
c13.333 -14 34 -24.333 62 -31c-56.667 4.66699 -89.334 9.33398 -98.001 14.001c-11.333 6 -32 31 -62 75c-28.667 41.333 -43.334 62.333 -44.001 63c-14.667 16 -36.334 26.333 -65.001 31z" />
    <glyph glyph-name="Iacute" unicode="&#xcd;" horiz-adv-x="781" 
d="M338 43c-115.333 0 -187.668 1.33301 -217.001 4c-7.33301 -0.666992 -19 -1.33398 -35 -2.00098c-4 0 -20.333 14 -49 42c-24.667 24 -37 37.333 -37 40c0.666992 1.33301 1.66699 2 3 2c2 0 14.667 -5 38 -15l49 -21c16 -4 43.667 -6 83 -6c24 0 44.667 -1.33301 62 -4
l26 -5c5.33301 0 11.333 2.33301 18 7c2.66699 6.66699 7.66699 28 15 64c6 50 10.333 136.667 13 260c2.66699 106.667 3 176.334 1 209.001c-1.33301 21.333 1 35.333 7 42c2 3.33301 9.66699 7 23 11c11.333 3.33301 19.666 5 24.999 5
c4.66699 0 8.66699 -7.66699 12 -23c18.667 -91.333 41 -276 67 -554c0 -4.66699 0.333008 -8.66699 1 -12c6.66699 -5.33301 14.334 -8 23.001 -8c10 0 25.833 1.16699 47.5 3.5s38.167 3.5 49.5 3.5c37.333 0 64.666 3 81.999 9l49 18c33.333 10 48.333 15 45 15
c17.333 0 7.83301 -13.833 -28.5 -41.5s-57.166 -41.5 -62.499 -41.5c6 0 3 0.5 -9 1.5s-20 1.16699 -24 0.5c-21.333 -2 -79.666 -3 -174.999 -3c-3.33301 -8 -9.33301 -18 -18 -30c-6.66699 -9.33301 -11.667 -14 -15 -14c-2.66699 0 -14 6.66699 -34 20zM150.998 675
c-32 17.333 -48 28.332 -48 32.999c0 2 2.33301 3 7 3c6 0 16.333 -1.5 31 -4.5s26 -4.5 34 -4.5c24.667 0 61.167 6.66699 109.5 20s84.833 20 109.5 20c72.667 0 132 -16.667 178 -50c24.667 -18 37 -30 37 -36c0 -7.33301 -14.667 -5.33301 -44 6
c-62 23.333 -120.667 36 -176 38c-22 0.666992 -53.667 -4.66602 -95 -15.999s-72.333 -17 -93 -17c-17.333 0 -34 2.66699 -50 8zM260.998 784.999c58.667 1.33301 94.002 5.33398 106.002 12.001c6.66699 4.66699 26.334 30.667 59.001 78l42 62
c13.333 14 34 24.333 62 31c-56.667 -4.66699 -89.334 -9.33398 -98.001 -14.001c-11.333 -6 -32 -31 -62 -75c-28.667 -41.333 -43.334 -62.333 -44.001 -63c-14.667 -16 -36.334 -26.333 -65.001 -31z" />
    <glyph glyph-name="Icircumflex" unicode="&#xce;" horiz-adv-x="781" 
d="M338 43c-115.333 0 -187.668 1.33301 -217.001 4c-7.33301 -0.666992 -19 -1.33398 -35 -2.00098c-4 0 -20.333 14 -49 42c-24.667 24 -37 37.333 -37 40c0.666992 1.33301 1.66699 2 3 2c2 0 14.667 -5 38 -15l49 -21c16 -4 43.667 -6 83 -6c24 0 44.667 -1.33301 62 -4
l26 -5c5.33301 0 11.333 2.33301 18 7c2.66699 6.66699 7.66699 28 15 64c6 50 10.333 136.667 13 260c2.66699 106.667 3 176.334 1 209.001c-1.33301 21.333 1 35.333 7 42c2 3.33301 9.66699 7 23 11c11.333 3.33301 19.666 5 24.999 5
c4.66699 0 8.66699 -7.66699 12 -23c18.667 -91.333 41 -276 67 -554c0 -4.66699 0.333008 -8.66699 1 -12c6.66699 -5.33301 14.334 -8 23.001 -8c10 0 25.833 1.16699 47.5 3.5s38.167 3.5 49.5 3.5c37.333 0 64.666 3 81.999 9l49 18c33.333 10 48.333 15 45 15
c17.333 0 7.83301 -13.833 -28.5 -41.5s-57.166 -41.5 -62.499 -41.5c6 0 3 0.5 -9 1.5s-20 1.16699 -24 0.5c-21.333 -2 -79.666 -3 -174.999 -3c-3.33301 -8 -9.33301 -18 -18 -30c-6.66699 -9.33301 -11.667 -14 -15 -14c-2.66699 0 -14 6.66699 -34 20zM150.998 675
c-32 17.333 -48 28.332 -48 32.999c0 2 2.33301 3 7 3c6 0 16.333 -1.5 31 -4.5s26 -4.5 34 -4.5c24.667 0 61.167 6.66699 109.5 20s84.833 20 109.5 20c72.667 0 132 -16.667 178 -50c24.667 -18 37 -30 37 -36c0 -7.33301 -14.667 -5.33301 -44 6
c-62 23.333 -120.667 36 -176 38c-22 0.666992 -53.667 -4.66602 -95 -15.999s-72.333 -17 -93 -17c-17.333 0 -34 2.66699 -50 8zM295.998 967.999c12.667 27.333 27.6689 41 45.002 41c11.333 0 19 -3.83301 23 -11.5s22.333 -47.5 55 -119.5
c22.667 -50.667 43.667 -86.334 63 -107.001c-28.667 0 -54.334 15 -77.001 45c-11.333 14.667 -27.333 42.334 -48 83.001c-14.667 30 -26.667 45.333 -36 46c-11.333 0.666992 -33 -24.333 -65 -75c-0.666992 -0.666992 -7.66699 -14 -21 -40c-8 -16 -14.667 -24 -20 -24
c-8 -1.33301 -12 2.66699 -12 12c0 6 2.33301 12.333 7 19l28 38c15.333 22 34.666 53 57.999 93z" />
    <glyph glyph-name="Idieresis" unicode="&#xcf;" horiz-adv-x="781" 
d="M338 43c-115.333 0 -187.668 1.33301 -217.001 4c-7.33301 -0.666992 -19 -1.33398 -35 -2.00098c-4 0 -20.333 14 -49 42c-24.667 24 -37 37.333 -37 40c0.666992 1.33301 1.66699 2 3 2c2 0 14.667 -5 38 -15l49 -21c16 -4 43.667 -6 83 -6c24 0 44.667 -1.33301 62 -4
l26 -5c5.33301 0 11.333 2.33301 18 7c2.66699 6.66699 7.66699 28 15 64c6 50 10.333 136.667 13 260c2.66699 106.667 3 176.334 1 209.001c-1.33301 21.333 1 35.333 7 42c2 3.33301 9.66699 7 23 11c11.333 3.33301 19.666 5 24.999 5
c4.66699 0 8.66699 -7.66699 12 -23c18.667 -91.333 41 -276 67 -554c0 -4.66699 0.333008 -8.66699 1 -12c6.66699 -5.33301 14.334 -8 23.001 -8c10 0 25.833 1.16699 47.5 3.5s38.167 3.5 49.5 3.5c37.333 0 64.666 3 81.999 9l49 18c33.333 10 48.333 15 45 15
c17.333 0 7.83301 -13.833 -28.5 -41.5s-57.166 -41.5 -62.499 -41.5c6 0 3 0.5 -9 1.5s-20 1.16699 -24 0.5c-21.333 -2 -79.666 -3 -174.999 -3c-3.33301 -8 -9.33301 -18 -18 -30c-6.66699 -9.33301 -11.667 -14 -15 -14c-2.66699 0 -14 6.66699 -34 20zM150.998 675
c-32 17.333 -48 28.332 -48 32.999c0 2 2.33301 3 7 3c6 0 16.333 -1.5 31 -4.5s26 -4.5 34 -4.5c24.667 0 61.167 6.66699 109.5 20s84.833 20 109.5 20c72.667 0 132 -16.667 178 -50c24.667 -18 37 -30 37 -36c0 -7.33301 -14.667 -5.33301 -44 6
c-62 23.333 -120.667 36 -176 38c-22 0.666992 -53.667 -4.66602 -95 -15.999s-72.333 -17 -93 -17c-17.333 0 -34 2.66699 -50 8zM273.998 894.999c-47.333 -32 -71 -63.333 -71 -94c0 -24.667 16 -37.334 48 -38.001c24.667 -0.666992 49.667 5.33301 75 18
c30.667 14 46 32.333 46 55c0 16 -9 31.667 -27 47c4.66699 -7.33301 7 -14.666 7 -21.999c0 -17.333 -7.83301 -31 -23.5 -41s-32.5 -15 -50.5 -15c-21.333 -0.666992 -32 6 -32 20c0 12.667 9.33301 36 28 70zM483.998 894.999c-47.333 -32 -71 -63.333 -71 -94
c0 -24.667 16 -37.334 48 -38.001c24.667 -0.666992 49.667 5.33301 75 18c30.667 14 46 32.333 46 55c0 16 -9 31.667 -27 47c4.66699 -7.33301 7 -14.666 7 -21.999c0 -17.333 -7.83301 -31 -23.5 -41s-32.5 -15 -50.5 -15c-21.333 -0.666992 -32 6 -32 20
c0 12.667 9.33301 36 28 70z" />
    <glyph glyph-name="Eth" unicode="&#xd0;" horiz-adv-x="681" 
d="M114 618c2 -44 1.33008 -128.333 -2.00293 -253c-4 -144 -10.667 -229.667 -20 -257c-4.66699 -13.333 -7 -21 -7 -23s2.16699 -3.5 6.5 -4.5s7.5 -2.5 9.5 -4.5c22.667 -14 54.334 -36.333 95.001 -67c8 -6 13.667 -9 17 -9s8.33301 4.66699 15 14
c14 19.333 21 38 21 56c0 12 -0.333008 21.667 -1 29c-25.333 274 -47.666 458.667 -66.999 554c-3.33301 15.333 -7.33301 23 -12 23c-5.33301 0 -14.166 -1.83301 -26.499 -5.5s-19.833 -7.16699 -22.5 -10.5c-5.33301 -6 -7.33301 -20 -6 -42zM118.997 712
c26 -0.666992 58.667 5.00195 98 17.002c44.667 13.333 77 21 97 23c34 2.66699 74.667 -8.33301 122 -33c60.667 -32 108 -76.833 142 -134.5s51.667 -121.5 53 -191.5c2 -114.667 -18 -201 -60 -259c-48.667 -66.667 -127.667 -99.334 -237 -98.001
c-40 0.666992 -60 2.33398 -60 5.00098c0 2 19.333 6 58 12c63.333 9.33301 113.666 45 150.999 107c32.667 54 49 115.333 49 184c0 18 -0.666992 33.333 -2 46c-19.333 178.667 -74.666 282.667 -165.999 312c-10.667 3.33301 -21 5 -31 5c-14 0 -40.333 -4.33301 -79 -13
c-34.667 -8.66699 -66.667 -11.667 -96 -9c-14.667 1.33301 -32.667 4.66602 -54 9.99902c-29.333 7.33301 -44 14.666 -44 21.999c0 3.33301 3.33301 5 10 5c10 0 26.333 -3.33301 49 -10zM6.99707 330.002c30.667 30.667 50 49 58 55c12.667 9.33301 25.667 14 39 14
c18.667 0 47 -4.16699 85 -12.5s66.333 -12.5 85 -12.5c10.667 0 27.667 7.66699 51 23l-59 -52c-12 -9.33301 -24.667 -14 -38 -14c-18 0 -45.5 4 -82.5 12s-64.833 12 -83.5 12c-12.667 0 -31 -8.33301 -55 -25z" />
    <glyph glyph-name="Ntilde" unicode="&#xd1;" horiz-adv-x="690" 
d="M56 617c-1.33301 20.667 1 34.3311 7 40.998c2 3.33301 9.33301 6.83301 22 10.5s21.334 5.5 26.001 5.5c5.33301 0 9.33301 -7.66699 12 -23c17.333 -88 39.333 -272.333 66 -553c1.33301 -14 2 -23.667 2 -29c0 -17.333 -7 -35.666 -21 -54.999
c-6.66699 -9.33301 -12 -14 -16 -14c-2.66699 0 -8.33398 3 -17.001 9l-93 67c-1.33301 0.666992 -4.5 1.83398 -9.5 3.50098s-7.5 3.5 -7.5 5.5l6 18c10 32 16.333 82.333 19 151c1.33301 51.333 2.33301 102.666 3 153.999c2.66699 106.667 3 176.334 1 209.001z
M510 269.997c7.33301 152 8.99805 268.333 4.99805 349c-0.666992 11.333 0 27.333 2 48c2 23.333 3 39.666 3 48.999c0 11.333 -0.333008 23.333 -1 36c14.667 3.33301 28.667 -8.66699 42 -36c9.33301 -19.333 16.333 -40.333 21 -63c18 -90 40 -274 66 -552
c1.33301 -14.667 2 -24.334 2 -29.001c0 -17.333 -7 -35.666 -21 -54.999c-7.33301 -10 -12.666 -15 -15.999 -15s-8.66602 3.33301 -15.999 10c-22 13.333 -53.333 35.333 -94 66c-1.33301 0.666992 -4.5 1.83398 -9.5 3.50098s-7.5 3.5 -7.5 5.5
c0 2.66699 1.66699 8.66699 5 18c-42 108.667 -98.667 223.667 -170 345c-87.333 149.333 -158 233.333 -212 252c-72.667 25.333 -109 42.333 -109 51c-0 2 2.33301 3.33301 7 4c10 2 26.667 2 50 0c32 -2.66699 67.333 -16 106 -40c29.333 -18 77.333 -73.333 144 -166z
M123.998 810.997c54 40.667 99.332 61 135.999 61c20.667 0 46.334 -5.66699 77.001 -17c39.333 -14.667 69.333 -22 90 -22c28.667 0 65 12 109 36c-44 -43.333 -85 -65 -123 -65c-20.667 0 -51 7.16699 -91 21.5s-71 21.5 -93 21.5c-32 0 -67 -12 -105 -36z" />
    <glyph glyph-name="Ograve" unicode="&#xd2;" horiz-adv-x="594" 
d="M228 730c-152 -36 -228 -138.667 -228 -308c0 -17.333 1 -37 3 -59c22.667 -252 111.667 -372.667 267 -362c94 6.66699 166.333 43 217 109c48.667 62.667 71 142 67 238c-2.66699 72 -14.334 134 -35.001 186c-28 72.667 -70.333 115.334 -127 128.001
s-83.334 19 -80.001 19c-1.33301 0 -2 -0.333008 -2 -1c0 -24.667 20.667 -52 62 -82c44.667 -32 69.334 -59 74.001 -81c2 -8.66699 7.66699 -59.334 17 -152.001c0.666992 -8.66699 1 -17.334 1 -26.001c0 -52 -14.667 -110.667 -44 -176
c-38 -84.667 -81.667 -126.667 -131 -126c-64.667 1.33301 -115.667 39 -153 113c-28 55.333 -44.667 120.666 -50 195.999c-2.66699 40 -4 72 -4 96c0 68.667 8.33301 122.334 25 161.001c22.667 52 62.334 86.333 119.001 103c50 14.667 75 25 75 31
c0 6.66699 -24.333 4.33398 -73 -6.99902zM69 953c58.667 -1.33301 94.002 -5.33398 106.002 -12.001c6.66699 -4.66699 26.334 -30.667 59.001 -78l42 -62c13.333 -14 34 -24.333 62 -31c-56.667 4.66699 -89.334 9.33398 -98.001 14.001c-11.333 6 -32 31 -62 75
c-28.667 41.333 -43.334 62.333 -44.001 63c-14.667 16 -36.334 26.333 -65.001 31z" />
    <glyph glyph-name="Oacute" unicode="&#xd3;" horiz-adv-x="594" 
d="M228 730c-152 -36 -228 -138.667 -228 -308c0 -17.333 1 -37 3 -59c22.667 -252 111.667 -372.667 267 -362c94 6.66699 166.333 43 217 109c48.667 62.667 71 142 67 238c-2.66699 72 -14.334 134 -35.001 186c-28 72.667 -70.333 115.334 -127 128.001
s-83.334 19 -80.001 19c-1.33301 0 -2 -0.333008 -2 -1c0 -24.667 20.667 -52 62 -82c44.667 -32 69.334 -59 74.001 -81c2 -8.66699 7.66699 -59.334 17 -152.001c0.666992 -8.66699 1 -17.334 1 -26.001c0 -52 -14.667 -110.667 -44 -176
c-38 -84.667 -81.667 -126.667 -131 -126c-64.667 1.33301 -115.667 39 -153 113c-28 55.333 -44.667 120.666 -50 195.999c-2.66699 40 -4 72 -4 96c0 68.667 8.33301 122.334 25 161.001c22.667 52 62.334 86.333 119.001 103c50 14.667 75 25 75 31
c0 6.66699 -24.333 4.33398 -73 -6.99902zM203 768c58.667 1.33301 94.002 5.33398 106.002 12.001c6.66699 4.66699 26.334 30.667 59.001 78l42 62c13.333 14 34 24.333 62 31c-56.667 -4.66699 -89.334 -9.33398 -98.001 -14.001c-11.333 -6 -32 -31 -62 -75
c-28.667 -41.333 -43.334 -62.333 -44.001 -63c-14.667 -16 -36.334 -26.333 -65.001 -31z" />
    <glyph glyph-name="Ocircumflex" unicode="&#xd4;" horiz-adv-x="594" 
d="M228 730c-152 -36 -228 -138.667 -228 -308c0 -17.333 1 -37 3 -59c22.667 -252 111.667 -372.667 267 -362c94 6.66699 166.333 43 217 109c48.667 62.667 71 142 67 238c-2.66699 72 -14.334 134 -35.001 186c-28 72.667 -70.333 115.334 -127 128.001
s-83.334 19 -80.001 19c-1.33301 0 -2 -0.333008 -2 -1c0 -24.667 20.667 -52 62 -82c44.667 -32 69.334 -59 74.001 -81c2 -8.66699 7.66699 -59.334 17 -152.001c0.666992 -8.66699 1 -17.334 1 -26.001c0 -52 -14.667 -110.667 -44 -176
c-38 -84.667 -81.667 -126.667 -131 -126c-64.667 1.33301 -115.667 39 -153 113c-28 55.333 -44.667 120.666 -50 195.999c-2.66699 40 -4 72 -4 96c0 68.667 8.33301 122.334 25 161.001c22.667 52 62.334 86.333 119.001 103c50 14.667 75 25 75 31
c0 6.66699 -24.333 4.33398 -73 -6.99902zM232 945c12.667 27.333 27.6689 41 45.002 41c11.333 0 19 -3.83301 23 -11.5s22.333 -47.5 55 -119.5c22.667 -50.667 43.667 -86.334 63 -107.001c-28.667 0 -54.334 15 -77.001 45c-11.333 14.667 -27.333 42.334 -48 83.001
c-14.667 30 -26.667 45.333 -36 46c-11.333 0.666992 -33 -24.333 -65 -75c-0.666992 -0.666992 -7.66699 -14 -21 -40c-8 -16 -14.667 -24 -20 -24c-8 -1.33301 -12 2.66699 -12 12c0 6 2.33301 12.333 7 19l28 38c15.333 22 34.666 53 57.999 93z" />
    <glyph glyph-name="Otilde" unicode="&#xd5;" 
d="M228 730c-152 -36 -228 -138.667 -228 -308c0 -17.333 1 -37 3 -59c22.667 -252 111.667 -372.667 267 -362c94 6.66699 166.333 43 217 109c48.667 62.667 71 142 67 238c-2.66699 72 -14.334 134 -35.001 186c-28 72.667 -70.333 115.334 -127 128.001
s-83.334 19 -80.001 19c-1.33301 0 -2 -0.333008 -2 -1c0 -24.667 20.667 -52 62 -82c44.667 -32 69.334 -59 74.001 -81c2 -8.66699 7.66699 -59.334 17 -152.001c0.666992 -8.66699 1 -17.334 1 -26.001c0 -52 -14.667 -110.667 -44 -176
c-38 -84.667 -81.667 -126.667 -131 -126c-64.667 1.33301 -115.667 39 -153 113c-28 55.333 -44.667 120.666 -50 195.999c-2.66699 40 -4 72 -4 96c0 68.667 8.33301 122.334 25 161.001c22.667 52 62.334 86.333 119.001 103c50 14.667 75 25 75 31
c0 6.66699 -24.333 4.33398 -73 -6.99902zM81 812c54 40.667 99.332 61 135.999 61c20.667 0 46.334 -5.66699 77.001 -17c39.333 -14.667 69.333 -22 90 -22c28.667 0 65 12 109 36c-44 -43.333 -85 -65 -123 -65c-20.667 0 -51 7.16699 -91 21.5s-71 21.5 -93 21.5
c-32 0 -67 -12 -105 -36z" />
    <glyph glyph-name="Odieresis" unicode="&#xd6;" horiz-adv-x="594" 
d="M228 730c-152 -36 -228 -138.667 -228 -308c0 -17.333 1 -37 3 -59c22.667 -252 111.667 -372.667 267 -362c94 6.66699 166.333 43 217 109c48.667 62.667 71 142 67 238c-2.66699 72 -14.334 134 -35.001 186c-28 72.667 -70.333 115.334 -127 128.001
s-83.334 19 -80.001 19c-1.33301 0 -2 -0.333008 -2 -1c0 -24.667 20.667 -52 62 -82c44.667 -32 69.334 -59 74.001 -81c2 -8.66699 7.66699 -59.334 17 -152.001c0.666992 -8.66699 1 -17.334 1 -26.001c0 -52 -14.667 -110.667 -44 -176
c-38 -84.667 -81.667 -126.667 -131 -126c-64.667 1.33301 -115.667 39 -153 113c-28 55.333 -44.667 120.666 -50 195.999c-2.66699 40 -4 72 -4 96c0 68.667 8.33301 122.334 25 161.001c22.667 52 62.334 86.333 119.001 103c50 14.667 75 25 75 31
c0 6.66699 -24.333 4.33398 -73 -6.99902zM175 898c-47.333 -32 -71 -63.333 -71 -94c0 -24.667 16 -37.334 48 -38.001c24.667 -0.666992 49.667 5.33301 75 18c30.667 14 46 32.333 46 55c0 16 -9 31.667 -27 47c4.66699 -7.33301 7 -14.666 7 -21.999
c0 -17.333 -7.83301 -31 -23.5 -41s-32.5 -15 -50.5 -15c-21.333 -0.666992 -32 6 -32 20c0 12.667 9.33301 36 28 70zM385 898c-47.333 -32 -71 -63.333 -71 -94c0 -24.667 16 -37.334 48 -38.001c24.667 -0.666992 49.667 5.33301 75 18c30.667 14 46 32.333 46 55
c0 16 -9 31.667 -27 47c4.66699 -7.33301 7 -14.666 7 -21.999c0 -17.333 -7.83301 -31 -23.5 -41s-32.5 -15 -50.5 -15c-21.333 -0.666992 -32 6 -32 20c0 12.667 9.33301 36 28 70z" />
    <glyph glyph-name="Oslash" unicode="&#xd8;" horiz-adv-x="594" 
d="M133 37c-14.667 -16 -28.002 -28.6641 -40.002 -37.9971c4 19.333 9 39 15 59c-56.667 58 -91.667 159.667 -105 305c-2 22 -3 41.667 -3 59c0 169.333 76 272 228 308c48.667 11.333 73 13.666 73 6.99902c0 -6 -25 -16.333 -75 -31
c-56.667 -16.667 -96.334 -51 -119.001 -103c-16.667 -38.667 -25 -92.334 -25 -161.001c0 -24 1.33301 -56 4 -96c5.33301 -82 23 -149.667 53 -203c10 22.667 21 45.667 33 69c22 41.333 61.333 105.666 118 192.999c50 78 89.667 143.333 119 196
c-11.333 14.667 -24.666 27.334 -39.999 38.001c-39.333 25.333 -59 39 -59 41c0 0.666992 0.666992 1 2 1c-3.33301 0 23.334 -6.33301 80.001 -19s99 -55.334 127 -128.001c20.667 -52 32.334 -114 35.001 -186c4 -96 -18.333 -175.333 -67 -238
c-50.667 -66 -123 -102.333 -217 -109c-54 -4 -99.667 8 -137 36zM443.998 525.003l-14 -26.001c-100 -182.667 -184.333 -319 -253 -409c32.667 -34.667 70 -52.334 112 -53.001c49.333 -0.666992 93 41.333 131 126c29.333 65.333 44 124 44 176
c0 8.66699 -0.333008 17.334 -1 26.001c-9.33301 92.667 -15 143.334 -17 152.001z" />
    <glyph glyph-name="Ugrave" unicode="&#xd9;" horiz-adv-x="612" 
d="M112 576c0.666992 -14 -0.00195312 -47.5 -2.00195 -100.5s-3 -93.833 -3 -122.5c0 -178.667 50 -269 150 -271c74 -1.33301 121 18.667 141 60c8.66699 18.667 17.334 38.334 26.001 59.001c26 241.333 44 387.333 54 438c4 20.667 11 41 21 61
c13.333 26.667 27 38.334 41 35.001c-0.666992 -12 -1 -23.667 -1 -35c0 -9.33301 1 -25.333 3 -48c2 -20 2.66699 -35.667 2 -47c-2 -50.667 -1.66699 -133.334 1 -248.001c3.33301 -137.333 10.333 -221 21 -251c4 -11.333 6 -19 6 -23
c0 -1.33301 -2.5 -2.83301 -7.5 -4.5s-7.83301 -2.83398 -8.5 -3.50098l-92 -66c-8 -6 -13.667 -9 -17 -9s-8.33301 4.66699 -15 14c-9.33301 13.333 -15.333 25 -18 35c-1.33301 4 -2 10.333 -2 19c0 8 0.333008 17.333 1 28c-24 -30 -48.667 -49.333 -74 -58
c-18.667 -6 -50 -8.33301 -94 -7c-58.667 2 -109.667 24.333 -153 67c-61.333 60.667 -92 154.667 -92 282c0 46 4 96 12 150c2 7.33301 10.667 30.333 26 69c14.667 36 21.334 63.667 20.001 83c-2 42.667 1 64 9 64c10.667 0 21 -25.667 31 -77
c8 -39.333 12.667 -70.333 14 -93zM85.998 947c58.667 -1.33301 94.002 -5.33398 106.002 -12.001c6.66699 -4.66699 26.334 -30.667 59.001 -78l42 -62c13.333 -14 34 -24.333 62 -31c-56.667 4.66699 -89.334 9.33398 -98.001 14.001c-11.333 6 -32 31 -62 75
c-28.667 41.333 -43.334 62.333 -44.001 63c-14.667 16 -36.334 26.333 -65.001 31z" />
    <glyph glyph-name="Uacute" unicode="&#xda;" horiz-adv-x="612" 
d="M206 739c58.667 1.33301 94.002 5.33398 106.002 12.001c6.66699 4.66699 26.334 30.667 59.001 78l42 62c13.333 14 34 24.333 62 31c-56.667 -4.66699 -89.334 -9.33398 -98.001 -14.001c-11.333 -6 -32 -31 -62 -75c-28.667 -41.333 -43.334 -62.333 -44.001 -63
c-14.667 -16 -36.334 -26.333 -65.001 -31zM112.002 576.001c0.666992 -14 -0.00195312 -47.5 -2.00195 -100.5s-3 -93.833 -3 -122.5c0 -178.667 50 -269 150 -271c74 -1.33301 121 18.667 141 60c8.66699 18.667 17.334 38.334 26.001 59.001
c26 241.333 44 387.333 54 438c4 20.667 11 41 21 61c13.333 26.667 27 38.334 41 35.001c-0.666992 -12 -1 -23.667 -1 -35c0 -9.33301 1 -25.333 3 -48c2 -20 2.66699 -35.667 2 -47c-2 -50.667 -1.66699 -133.334 1 -248.001c3.33301 -137.333 10.333 -221 21 -251
c4 -11.333 6 -19 6 -23c0 -1.33301 -2.5 -2.83301 -7.5 -4.5s-7.83301 -2.83398 -8.5 -3.50098l-92 -66c-8 -6 -13.667 -9 -17 -9s-8.33301 4.66699 -15 14c-9.33301 13.333 -15.333 25 -18 35c-1.33301 4 -2 10.333 -2 19c0 8 0.333008 17.333 1 28
c-24 -30 -48.667 -49.333 -74 -58c-18.667 -6 -50 -8.33301 -94 -7c-58.667 2 -109.667 24.333 -153 67c-61.333 60.667 -92 154.667 -92 282c0 46 4 96 12 150c2 7.33301 10.667 30.333 26 69c14.667 36 21.334 63.667 20.001 83c-2 42.667 1 64 9 64
c10.667 0 21 -25.667 31 -77c8 -39.333 12.667 -70.333 14 -93z" />
    <glyph glyph-name="Ucircumflex" unicode="&#xdb;" horiz-adv-x="612" 
d="M112 576c0.666992 -14 -0.00195312 -47.5 -2.00195 -100.5s-3 -93.833 -3 -122.5c0 -178.667 50 -269 150 -271c74 -1.33301 121 18.667 141 60c8.66699 18.667 17.334 38.334 26.001 59.001c26 241.333 44 387.333 54 438c4 20.667 11 41 21 61
c13.333 26.667 27 38.334 41 35.001c-0.666992 -12 -1 -23.667 -1 -35c0 -9.33301 1 -25.333 3 -48c2 -20 2.66699 -35.667 2 -47c-2 -50.667 -1.66699 -133.334 1 -248.001c3.33301 -137.333 10.333 -221 21 -251c4 -11.333 6 -19 6 -23
c0 -1.33301 -2.5 -2.83301 -7.5 -4.5s-7.83301 -2.83398 -8.5 -3.50098l-92 -66c-8 -6 -13.667 -9 -17 -9s-8.33301 4.66699 -15 14c-9.33301 13.333 -15.333 25 -18 35c-1.33301 4 -2 10.333 -2 19c0 8 0.333008 17.333 1 28c-24 -30 -48.667 -49.333 -74 -58
c-18.667 -6 -50 -8.33301 -94 -7c-58.667 2 -109.667 24.333 -153 67c-61.333 60.667 -92 154.667 -92 282c0 46 4 96 12 150c2 7.33301 10.667 30.333 26 69c14.667 36 21.334 63.667 20.001 83c-2 42.667 1 64 9 64c10.667 0 21 -25.667 31 -77
c8 -39.333 12.667 -70.333 14 -93zM228.998 966c12.667 27.333 27.6689 41 45.002 41c11.333 0 19 -3.83301 23 -11.5s22.333 -47.5 55 -119.5c22.667 -50.667 43.667 -86.334 63 -107.001c-28.667 0 -54.334 15 -77.001 45c-11.333 14.667 -27.333 42.334 -48 83.001
c-14.667 30 -26.667 45.333 -36 46c-11.333 0.666992 -33 -24.333 -65 -75c-0.666992 -0.666992 -7.66699 -14 -21 -40c-8 -16 -14.667 -24 -20 -24c-8 -1.33301 -12 2.66699 -12 12c0 6 2.33301 12.333 7 19l28 38c15.333 22 34.666 53 57.999 93z" />
    <glyph glyph-name="Udieresis" unicode="&#xdc;" horiz-adv-x="612" 
d="M112 576c0.666992 -14 -0.00195312 -47.5 -2.00195 -100.5s-3 -93.833 -3 -122.5c0 -178.667 50 -269 150 -271c74 -1.33301 121 18.667 141 60c8.66699 18.667 17.334 38.334 26.001 59.001c26 241.333 44 387.333 54 438c4 20.667 11 41 21 61
c13.333 26.667 27 38.334 41 35.001c-0.666992 -12 -1 -23.667 -1 -35c0 -9.33301 1 -25.333 3 -48c2 -20 2.66699 -35.667 2 -47c-2 -50.667 -1.66699 -133.334 1 -248.001c3.33301 -137.333 10.333 -221 21 -251c4 -11.333 6 -19 6 -23
c0 -1.33301 -2.5 -2.83301 -7.5 -4.5s-7.83301 -2.83398 -8.5 -3.50098l-92 -66c-8 -6 -13.667 -9 -17 -9s-8.33301 4.66699 -15 14c-9.33301 13.333 -15.333 25 -18 35c-1.33301 4 -2 10.333 -2 19c0 8 0.333008 17.333 1 28c-24 -30 -48.667 -49.333 -74 -58
c-18.667 -6 -50 -8.33301 -94 -7c-58.667 2 -109.667 24.333 -153 67c-61.333 60.667 -92 154.667 -92 282c0 46 4 96 12 150c2 7.33301 10.667 30.333 26 69c14.667 36 21.334 63.667 20.001 83c-2 42.667 1 64 9 64c10.667 0 21 -25.667 31 -77
c8 -39.333 12.667 -70.333 14 -93zM186.998 895c-47.333 -32 -71 -63.333 -71 -94c0 -24.667 16 -37.334 48 -38.001c24.667 -0.666992 49.667 5.33301 75 18c30.667 14 46 32.333 46 55c0 16 -9 31.667 -27 47c4.66699 -7.33301 7 -14.666 7 -21.999
c0 -17.333 -7.83301 -31 -23.5 -41s-32.5 -15 -50.5 -15c-21.333 -0.666992 -32 6 -32 20c0 12.667 9.33301 36 28 70zM396.998 895c-47.333 -32 -71 -63.333 -71 -94c0 -24.667 16 -37.334 48 -38.001c24.667 -0.666992 49.667 5.33301 75 18c30.667 14 46 32.333 46 55
c0 16 -9 31.667 -27 47c4.66699 -7.33301 7 -14.666 7 -21.999c0 -17.333 -7.83301 -31 -23.5 -41s-32.5 -15 -50.5 -15c-21.333 -0.666992 -32 6 -32 20c0 12.667 9.33301 36 28 70z" />
    <glyph glyph-name="Yacute" unicode="&#xdd;" horiz-adv-x="642" 
d="M70 772c1.33301 -0.666992 39.6641 -57.332 114.997 -169.999c73.333 -109.333 117.333 -163.666 132 -162.999c16.667 1.33301 59.334 49.666 128.001 144.999c62.667 87.333 102.667 148.333 120 183c11.333 22 19 33 23 33c2 0 3 -2.66699 3 -8
c0 -16 -8.66699 -51 -26 -105c-10 -32.667 -54.333 -122 -133 -268c-69.333 -130 -107.666 -221 -114.999 -273c-13.333 -97.333 -27.666 -146 -42.999 -146c-10.667 0 -21 28.333 -31 85c-8 47.333 -12 83.333 -12 108c0 52 14.667 106.667 44 164
c-3.33301 20.667 -43.333 94.667 -120 222c-10 17.333 -40.667 52.666 -92 105.999c-44.667 46.667 -65.667 73 -63 79c4 9.33301 16 14 36 14c14 0 25.333 -2 34 -6zM156.998 704.002c58.667 1.33301 94.002 5.33398 106.002 12.001
c6.66699 4.66699 26.334 30.667 59.001 78l42 62c13.333 14 34 24.333 62 31c-56.667 -4.66699 -89.334 -9.33398 -98.001 -14.001c-11.333 -6 -32 -31 -62 -75c-28.667 -41.333 -43.334 -62.333 -44.001 -63c-14.667 -16 -36.334 -26.333 -65.001 -31z" />
    <glyph glyph-name="Thorn" unicode="&#xde;" horiz-adv-x="617" 
d="M34 442c-12 4 -18.001 7.66699 -18.001 11s6 5 18 5c2 100 2.33301 168 1 204c2 29.333 3.33301 74 4 134c14.667 3.33301 28.667 -8.66699 42 -36c9.33301 -20 16.333 -41 21 -63c6.66699 -32.667 17.334 -111 32.001 -235c12 3.33301 28.667 7.33301 50 12
c57.333 13.333 108.333 18.666 153 15.999c155.333 -9.33301 232 -86.666 230 -231.999c-1.33301 -80 -31.666 -144.667 -90.999 -194c-55.333 -45.333 -119.666 -66.666 -192.999 -63.999c-63.333 2.66699 -95 6.33398 -95 11.001c0 1.33301 32.667 11.666 98 30.999
c69.333 20 111 37 125 51c42 42.667 62 97.667 60 165c-4 114 -58.667 174 -164 180c-18 1.33301 -42.333 -1.33398 -73 -8.00098c-32.667 -6.66699 -56.667 -10 -72 -10c-7.33301 0 -15 0.333008 -23 1v-4c8 -68 12.667 -165.333 14 -292
c1.33301 -134.667 4.66602 -232 9.99902 -292c0.666992 -7.33301 1 -17 1 -29c0 -18 -7 -36.667 -21 -56c-6.66699 -9.33301 -11.667 -14 -15 -14s-9 3 -17 9c-40 30 -71.333 52.333 -94 67c-3.33301 2.66699 -7 4.5 -11 5.5s-6 2.16699 -6 3.5c0 2 2.33301 9.66699 7 23
c9.33301 27.333 16 113 20 257c1.33301 42.667 3.66602 157 6.99902 343z" />
    <glyph glyph-name="germandbls" unicode="&#xdf;" horiz-adv-x="688" 
d="M481 567c1.33301 -40.667 -5.33398 -77 -20.001 -109c-25.333 14 -54 22.333 -86 25c-53.333 4.66699 -97.333 -11.833 -132 -49.5s-52 -83.5 -52 -137.5c0 -47.333 3 -78 9 -92c10.667 -25.333 35.334 -38 74.001 -38c11.333 0 35.666 10.5 72.999 31.5
s74.333 31.5 111 31.5c53.333 0 80.333 -13.333 81 -40c0.666992 -32 -6.33301 -64.333 -21 -97c-17.333 -38.667 -39.333 -57.334 -66 -56.001c-10.667 0.666992 -32.667 9.33398 -66 26.001s-63.333 25 -90 25c-15.333 0 -31.333 -2.33301 -48 -7
c-14 -4 -34 -11.667 -60 -23c14.667 1.33301 28.667 2 42 2c22.667 0 57.334 -11.333 104.001 -34c44.667 -21.333 92.667 -30.666 144 -27.999c60 3.33301 103.333 18.166 130 44.499s40 68.5 40 126.5c0 77.333 -26.333 118.333 -79 123c-34.667 2.66699 -78 -6 -130 -26
c-48 -18.667 -75.333 -29 -82 -31c-30 0 -44 26 -42 78l3 90c4 28.667 17.667 42.667 41 42c41.333 -2 62 -29.667 62 -83c0 -8.66699 -0.666992 -17.334 -2 -26.001c9.33301 2.66699 25.333 11.667 48 27c25.333 16.667 43 31.334 53 44.001
c37.333 48 56.333 101.667 57 161c2 153.333 -74.667 230.666 -230 231.999l-143 1c-50 0.666992 -91.333 -16.666 -124 -51.999s-49.667 -78.333 -51 -129l-4 -260c-3.33301 -142 -9.33301 -225.333 -18 -250c-4.66699 -13.333 -7 -21.333 -7 -24
c-0 -1.33301 2.83301 -3 8.5 -5l8.5 -3c24 -18 55.333 -40.333 94 -67c9.33301 -6.66699 15 -10 17 -10c2.66699 0 7.66699 5 15 15c14.667 20 22 38.333 22 55c0 6 -0.666992 15.667 -2 29c-10 98 -17.667 170.333 -23 217c-10 80 -20.667 152 -32 216
c-7.33301 40 -11 73.667 -11 101c0 84 35.667 124 107 120l113 -6c105.333 -5.33301 160 -65.333 164 -180z" />
    <glyph glyph-name="agrave" unicode="&#xe0;" 
d="M369 409c-42.667 10.667 -83.332 16.001 -121.999 16.001c-62 0 -117 -15 -165 -45c-56 -34.667 -83.333 -81.334 -82 -140.001c2 -62 43.333 -111.333 124 -148c64 -29.333 131.333 -44 202 -44c13.333 0 27 0.666992 41 2l-3 15
c-62.667 8.66699 -115.334 23.667 -158.001 45c-62 30 -94 70 -96 120c-1.33301 48.667 30.667 89 96 121c53.333 25.333 107 38 161 38zM495.002 550.001c-3.33301 -29.333 -4.99902 -62.001 -4.99902 -98.001c0 -66 5 -133 15 -201c8.66699 -60.667 18.667 -107 30 -139
c4.66699 -13.333 7 -21.333 7 -24s-1.66699 -4 -5 -4c-5.33301 -0.666992 -9.33301 -2.33398 -12 -5.00098c-26 -16 -58.667 -39 -98 -69c-8.66699 -6.66699 -14.334 -10 -17.001 -10c-3.33301 0 -8.66602 5 -15.999 15c-14.667 20 -22 39 -22 57
c0 12.667 0.333008 22.667 1 30c10.667 116.667 14.667 232 12 346c0 6.66699 -15.667 10 -47 10c-24.667 0 -61.834 -2.33301 -111.501 -7s-86.5 -7 -110.5 -7c-18 0 -27 2 -27 6c0 2.66699 25.667 7.33398 77 14.001c70.667 8.66699 124.667 17.334 162 26.001
c64 14 111 32.333 141 55l20 15c2.66699 2 4.66699 2.33301 6 1c0.666992 -1.33301 0.666992 -5 0 -11zM78.0029 751c58.667 -1.33301 94.002 -5.33398 106.002 -12.001c6.66699 -4.66699 26.334 -30.667 59.001 -78l42 -62c13.333 -14 34 -24.333 62 -31
c-56.667 4.66699 -89.334 9.33398 -98.001 14.001c-11.333 6 -32 31 -62 75c-28.667 41.333 -43.334 62.333 -44.001 63c-14.667 16 -36.334 26.333 -65.001 31z" />
    <glyph glyph-name="aacute" unicode="&#xe1;" 
d="M369 409c-42.667 10.667 -83.332 16.001 -121.999 16.001c-62 0 -117 -15 -165 -45c-56 -34.667 -83.333 -81.334 -82 -140.001c2 -62 43.333 -111.333 124 -148c64 -29.333 131.333 -44 202 -44c13.333 0 27 0.666992 41 2l-3 15
c-62.667 8.66699 -115.334 23.667 -158.001 45c-62 30 -94 70 -96 120c-1.33301 48.667 30.667 89 96 121c53.333 25.333 107 38 161 38zM495.002 550.001c-3.33301 -29.333 -4.99902 -62.001 -4.99902 -98.001c0 -66 5 -133 15 -201c8.66699 -60.667 18.667 -107 30 -139
c4.66699 -13.333 7 -21.333 7 -24s-1.66699 -4 -5 -4c-5.33301 -0.666992 -9.33301 -2.33398 -12 -5.00098c-26 -16 -58.667 -39 -98 -69c-8.66699 -6.66699 -14.334 -10 -17.001 -10c-3.33301 0 -8.66602 5 -15.999 15c-14.667 20 -22 39 -22 57
c0 12.667 0.333008 22.667 1 30c10.667 116.667 14.667 232 12 346c0 6.66699 -15.667 10 -47 10c-24.667 0 -61.834 -2.33301 -111.501 -7s-86.5 -7 -110.5 -7c-18 0 -27 2 -27 6c0 2.66699 25.667 7.33398 77 14.001c70.667 8.66699 124.667 17.334 162 26.001
c64 14 111 32.333 141 55l20 15c2.66699 2 4.66699 2.33301 6 1c0.666992 -1.33301 0.666992 -5 0 -11zM133.003 585c58.667 1.33301 94.002 5.33398 106.002 12.001c6.66699 4.66699 26.334 30.667 59.001 78l42 62c13.333 14 34 24.333 62 31
c-56.667 -4.66699 -89.334 -9.33398 -98.001 -14.001c-11.333 -6 -32 -31 -62 -75c-28.667 -41.333 -43.334 -62.333 -44.001 -63c-14.667 -16 -36.334 -26.333 -65.001 -31z" />
    <glyph glyph-name="acircumflex" unicode="&#xe2;" 
d="M369 409c-42.667 10.667 -83.332 16.001 -121.999 16.001c-62 0 -117 -15 -165 -45c-56 -34.667 -83.333 -81.334 -82 -140.001c2 -62 43.333 -111.333 124 -148c64 -29.333 131.333 -44 202 -44c13.333 0 27 0.666992 41 2l-3 15
c-62.667 8.66699 -115.334 23.667 -158.001 45c-62 30 -94 70 -96 120c-1.33301 48.667 30.667 89 96 121c53.333 25.333 107 38 161 38zM495.002 550.001c-3.33301 -29.333 -4.99902 -62.001 -4.99902 -98.001c0 -66 5 -133 15 -201c8.66699 -60.667 18.667 -107 30 -139
c4.66699 -13.333 7 -21.333 7 -24s-1.66699 -4 -5 -4c-5.33301 -0.666992 -9.33301 -2.33398 -12 -5.00098c-26 -16 -58.667 -39 -98 -69c-8.66699 -6.66699 -14.334 -10 -17.001 -10c-3.33301 0 -8.66602 5 -15.999 15c-14.667 20 -22 39 -22 57
c0 12.667 0.333008 22.667 1 30c10.667 116.667 14.667 232 12 346c0 6.66699 -15.667 10 -47 10c-24.667 0 -61.834 -2.33301 -111.501 -7s-86.5 -7 -110.5 -7c-18 0 -27 2 -27 6c0 2.66699 25.667 7.33398 77 14.001c70.667 8.66699 124.667 17.334 162 26.001
c64 14 111 32.333 141 55l20 15c2.66699 2 4.66699 2.33301 6 1c0.666992 -1.33301 0.666992 -5 0 -11zM229.003 763c12.667 27.333 27.6689 41 45.002 41c11.333 0 19 -3.83301 23 -11.5s22.333 -47.5 55 -119.5c22.667 -50.667 43.667 -86.334 63 -107.001
c-28.667 0 -54.334 15 -77.001 45c-11.333 14.667 -27.333 42.334 -48 83.001c-14.667 30 -26.667 45.333 -36 46c-11.333 0.666992 -33 -24.333 -65 -75c-0.666992 -0.666992 -7.66699 -14 -21 -40c-8 -16 -14.667 -24 -20 -24c-8 -1.33301 -12 2.66699 -12 12
c0 6 2.33301 12.333 7 19l28 38c15.333 22 34.666 53 57.999 93z" />
    <glyph glyph-name="atilde" unicode="&#xe3;" 
d="M369 409c-42.667 10.667 -83.332 16.001 -121.999 16.001c-62 0 -117 -15 -165 -45c-56 -34.667 -83.333 -81.334 -82 -140.001c2 -62 43.333 -111.333 124 -148c64 -29.333 131.333 -44 202 -44c13.333 0 27 0.666992 41 2l-3 15
c-62.667 8.66699 -115.334 23.667 -158.001 45c-62 30 -94 70 -96 120c-1.33301 48.667 30.667 89 96 121c53.333 25.333 107 38 161 38zM495.002 550.001c-3.33301 -29.333 -4.99902 -62.001 -4.99902 -98.001c0 -66 5 -133 15 -201c8.66699 -60.667 18.667 -107 30 -139
c4.66699 -13.333 7 -21.333 7 -24s-1.66699 -4 -5 -4c-5.33301 -0.666992 -9.33301 -2.33398 -12 -5.00098c-26 -16 -58.667 -39 -98 -69c-8.66699 -6.66699 -14.334 -10 -17.001 -10c-3.33301 0 -8.66602 5 -15.999 15c-14.667 20 -22 39 -22 57
c0 12.667 0.333008 22.667 1 30c10.667 116.667 14.667 232 12 346c0 6.66699 -15.667 10 -47 10c-24.667 0 -61.834 -2.33301 -111.501 -7s-86.5 -7 -110.5 -7c-18 0 -27 2 -27 6c0 2.66699 25.667 7.33398 77 14.001c70.667 8.66699 124.667 17.334 162 26.001
c64 14 111 32.333 141 55l20 15c2.66699 2 4.66699 2.33301 6 1c0.666992 -1.33301 0.666992 -5 0 -11zM67.0029 742c54 40.667 99.332 61 135.999 61c20.667 0 46.334 -5.66699 77.001 -17c39.333 -14.667 69.333 -22 90 -22c28.667 0 65 12 109 36
c-44 -43.333 -85 -65 -123 -65c-20.667 0 -51 7.16699 -91 21.5s-71 21.5 -93 21.5c-32 0 -67 -12 -105 -36z" />
    <glyph glyph-name="adieresis" unicode="&#xe4;" 
d="M369 409c-42.667 10.667 -83.332 16.001 -121.999 16.001c-62 0 -117 -15 -165 -45c-56 -34.667 -83.333 -81.334 -82 -140.001c2 -62 43.333 -111.333 124 -148c64 -29.333 131.333 -44 202 -44c13.333 0 27 0.666992 41 2l-3 15
c-62.667 8.66699 -115.334 23.667 -158.001 45c-62 30 -94 70 -96 120c-1.33301 48.667 30.667 89 96 121c53.333 25.333 107 38 161 38zM495.002 550.001c-3.33301 -29.333 -4.99902 -62.001 -4.99902 -98.001c0 -66 5 -133 15 -201c8.66699 -60.667 18.667 -107 30 -139
c4.66699 -13.333 7 -21.333 7 -24s-1.66699 -4 -5 -4c-5.33301 -0.666992 -9.33301 -2.33398 -12 -5.00098c-26 -16 -58.667 -39 -98 -69c-8.66699 -6.66699 -14.334 -10 -17.001 -10c-3.33301 0 -8.66602 5 -15.999 15c-14.667 20 -22 39 -22 57
c0 12.667 0.333008 22.667 1 30c10.667 116.667 14.667 232 12 346c0 6.66699 -15.667 10 -47 10c-24.667 0 -61.834 -2.33301 -111.501 -7s-86.5 -7 -110.5 -7c-18 0 -27 2 -27 6c0 2.66699 25.667 7.33398 77 14.001c70.667 8.66699 124.667 17.334 162 26.001
c64 14 111 32.333 141 55l20 15c2.66699 2 4.66699 2.33301 6 1c0.666992 -1.33301 0.666992 -5 0 -11zM160.003 758c-47.333 -32 -71 -63.333 -71 -94c0 -24.667 16 -37.334 48 -38.001c24.667 -0.666992 49.667 5.33301 75 18c30.667 14 46 32.333 46 55
c0 16 -9 31.667 -27 47c4.66699 -7.33301 7 -14.666 7 -21.999c0 -17.333 -7.83301 -31 -23.5 -41s-32.5 -15 -50.5 -15c-21.333 -0.666992 -32 6 -32 20c0 12.667 9.33301 36 28 70zM370.003 758c-47.333 -32 -71 -63.333 -71 -94c0 -24.667 16 -37.334 48 -38.001
c24.667 -0.666992 49.667 5.33301 75 18c30.667 14 46 32.333 46 55c0 16 -9 31.667 -27 47c4.66699 -7.33301 7 -14.666 7 -21.999c0 -17.333 -7.83301 -31 -23.5 -41s-32.5 -15 -50.5 -15c-21.333 -0.666992 -32 6 -32 20c0 12.667 9.33301 36 28 70z" />
    <glyph glyph-name="aring" unicode="&#xe5;" 
d="M369 409c-42.667 10.667 -83.332 16.001 -121.999 16.001c-62 0 -117 -15 -165 -45c-56 -34.667 -83.333 -81.334 -82 -140.001c2 -62 43.333 -111.333 124 -148c64 -29.333 131.333 -44 202 -44c13.333 0 27 0.666992 41 2l-3 15
c-62.667 8.66699 -115.334 23.667 -158.001 45c-62 30 -94 70 -96 120c-1.33301 48.667 30.667 89 96 121c53.333 25.333 107 38 161 38zM495.002 550.001c-3.33301 -29.333 -4.99902 -62.001 -4.99902 -98.001c0 -66 5 -133 15 -201c8.66699 -60.667 18.667 -107 30 -139
c4.66699 -13.333 7 -21.333 7 -24s-1.66699 -4 -5 -4c-5.33301 -0.666992 -9.33301 -2.33398 -12 -5.00098c-26 -16 -58.667 -39 -98 -69c-8.66699 -6.66699 -14.334 -10 -17.001 -10c-3.33301 0 -8.66602 5 -15.999 15c-14.667 20 -22 39 -22 57
c0 12.667 0.333008 22.667 1 30c10.667 116.667 14.667 232 12 346c0 6.66699 -15.667 10 -47 10c-24.667 0 -61.834 -2.33301 -111.501 -7s-86.5 -7 -110.5 -7c-18 0 -27 2 -27 6c0 2.66699 25.667 7.33398 77 14.001c70.667 8.66699 124.667 17.334 162 26.001
c64 14 111 32.333 141 55l20 15c2.66699 2 4.66699 2.33301 6 1c0.666992 -1.33301 0.666992 -5 0 -11zM256.003 735c-47.333 -32 -71 -63.333 -71 -94c0 -24.667 16 -37.334 48 -38.001c24.667 -0.666992 49.667 5.33301 75 18c30.667 14 46 32.333 46 55
c0 16 -9 31.667 -27 47c4.66699 -7.33301 7 -14.666 7 -21.999c0 -17.333 -7.83301 -31 -23.5 -41s-32.5 -15 -50.5 -15c-21.333 -0.666992 -32 6 -32 20c0 12.667 9.33301 36 28 70z" />
    <glyph glyph-name="ae" unicode="&#xe6;" horiz-adv-x="969" 
d="M369 409l-2.00195 -20.001c-54 0 -107.667 -12.667 -161 -38c-65.333 -32 -97.333 -72.333 -96 -121c2 -50 34 -90 96 -120c42.667 -21.333 95.334 -36.333 158.001 -45l3 -15c-14 -1.33301 -27.667 -2 -41 -2c-70.667 0 -138 14.667 -202 44
c-80.667 36.667 -122 86 -124 148c-1.33301 58.667 26 105.334 82 140.001c48 30 103 45 165 45c38.667 0 79.334 -5.33301 122.001 -16zM482.998 226.999c38 2 70.999 4.66699 98.999 8c52 6.66699 99 16.667 141 30l2 -2c3.33301 0 1 23.333 -7 70
c-15.333 94.667 -59.333 139.667 -132 135c-30.667 -2 -56.667 -36 -78 -102c-15.333 -50.667 -23.666 -97 -24.999 -139zM482.997 208.999c1.33301 -83.333 25.668 -135.667 73.001 -157c23.333 -10.667 47 -16 71 -16c40 0 86 16.667 138 50
c59.333 37.333 95.666 57.666 108.999 60.999c24 5.33301 40 8 48 8c4.66699 0 7 -0.666992 7 -2c0 -4 -14.333 -11 -43 -21c-14.667 -4.66699 -36.667 -19.334 -66 -44.001c-33.333 -28 -57 -45.667 -71 -53c-44 -23.333 -94.333 -35 -151 -35
c-55.333 0 -100.666 12 -135.999 36l-35 -26c-8.66699 -6.66699 -14.334 -10 -17.001 -10c-3.33301 0 -8.66602 5 -15.999 15c-14.667 20 -22 39 -22 57c0 12.667 0.333008 22.667 1 30c10.667 116.667 14.667 232 12 346c0 6.66699 -15.667 10 -47 10
c-24.667 0 -61.834 -2.33301 -111.501 -7s-86.5 -7 -110.5 -7c-18 0 -27 2 -27 6c0 2.66699 25.667 7.33398 77 14.001c70.667 8.66699 124.667 17.334 162 26.001c64 14 111 32.333 141 55l20 15c2.66699 2 4.66699 2.33301 6 1c0.666992 -1.33301 0.666992 -5 0 -11
c-2.66699 -25.333 -4.33398 -53 -5.00098 -83c29.333 24 63.666 37 102.999 39c70 4 129.333 -28 178 -96c41.333 -57.333 62 -116 62 -176c0 -26 -5 -42.833 -15 -50.5s-28 -11.5 -54 -11.5c-31.333 0 -78.166 6.16699 -140.499 18.5s-109.166 18.5 -140.499 18.5z" />
    <glyph glyph-name="ccedilla" unicode="&#xe7;" horiz-adv-x="535" 
d="M444 471c4 0 9.00098 0.834961 15.001 2.50195s10 2.5 12 2.5c3.33301 0 5 -19.333 5 -58c0 -52 -2.66699 -78 -8 -78c-0.666992 0 -3.66699 1.16699 -9 3.5s-10.333 3.16602 -15 2.49902c-2 -0.666992 -7.16699 -2 -15.5 -4s-13.833 -3 -16.5 -3
c-9.33301 0 -14 23 -14 69c-74 0 -135 -9.33301 -183 -28c-70 -26.667 -104 -71.667 -102 -135c4 -113.333 63.667 -170 179 -170c58.667 0 130.667 15.667 216 47l11 -14c-112.667 -61.333 -209.334 -92 -290.001 -92s-141.667 30 -183 90c-30 44 -45.667 93.667 -47 149
c-1.33301 61.333 30 110.666 94 147.999c54 32 113.667 48 179 48c40.667 0 83 -5.66699 127 -17c0.666992 18 4.33398 29.333 11.001 34c3.33301 2 14.666 3 33.999 3zM149.001 -79.998l47.0029 -0.00292969h43c21.333 -2.66699 32 -11 32 -25
c0 -3.33301 -0.333008 -7 -1 -11c-10.667 -34 -30.334 -51 -59.001 -51c-8.66699 0 -15.667 2.33301 -21 7c-12 10 -22.667 15 -32 15c-3.33301 0 -5 -1.33301 -5 -4c0 -12 17.333 -24.333 52 -37c30 -10.667 52.667 -16 68 -16c8.66699 0 17.667 0.666992 27 2
c20.667 4 39 14.5 55 31.5s24 34.167 24 51.5c0 22 -13 37 -39 45c-32 10 -58 15 -78 15c-10 0 -20 -0.333008 -30 -1c-6.66699 0.666992 -10.334 1.33398 -11.001 2.00098c-1.33301 1.33301 -1.33301 4.33301 0 9s7 18.334 17 41.001c5.33301 10.667 8 18.334 8 23.001
c0 8.66699 -14 13 -42 13c-16.667 0 -30.334 -8.66699 -41.001 -26c-9.33301 -14 -15 -30.333 -17 -49c-7.33301 -17.333 -11 -27 -11 -29c0 -2.66699 4.66699 -4.66699 14 -6z" />
    <glyph glyph-name="egrave" unicode="&#xe8;" horiz-adv-x="583" 
d="M97 227c37.333 2 70.333 4.66699 99 8c52 6.66699 99 16.667 141 30l2 -2c3.33301 0 1 23.333 -7 70c-15.333 94.667 -59.333 139.667 -132 135c-30.667 -2 -56.667 -36 -78 -102c-16 -50.667 -24.333 -97 -25 -139zM97 209
c1.33301 -83.333 25.666 -135.665 72.999 -156.998c23.333 -10.667 47 -16 71 -16c39.333 0 85.333 16.667 138 50c59.333 37.333 95.666 57.666 108.999 60.999c24 5.33301 40 8 48 8c4.66699 0 7 -0.666992 7 -2c0 -4 -14.333 -11 -43 -21
c-14.667 -4.66699 -36.667 -19.334 -66 -44.001c-33.333 -28 -57 -45.667 -71 -53c-44 -23.333 -94.333 -35 -151 -35c-80.667 0 -140 25.667 -178 77c-22.667 30.667 -34 75.667 -34 135c0 72 16.333 135.667 49 191c38 64.667 90.667 99 158 103c70 4 129.333 -28 178 -96
c41.333 -57.333 62 -116 62 -176c0 -26 -5 -42.833 -15 -50.5s-28 -11.5 -54 -11.5c-31.333 0 -78.166 6.16699 -140.499 18.5s-109.166 18.5 -140.499 18.5zM109 745.001c58.667 -1.33301 94.002 -5.33398 106.002 -12.001c6.66699 -4.66699 26.334 -30.667 59.001 -78
l42 -62c13.333 -14 34 -24.333 62 -31c-56.667 4.66699 -89.334 9.33398 -98.001 14.001c-11.333 6 -32 31 -62 75c-28.667 41.333 -43.334 62.333 -44.001 63c-14.667 16 -36.334 26.333 -65.001 31z" />
    <glyph glyph-name="eacute" unicode="&#xe9;" horiz-adv-x="583" 
d="M97 227c37.333 2 70.333 4.66699 99 8c52 6.66699 99 16.667 141 30l2 -2c3.33301 0 1 23.333 -7 70c-15.333 94.667 -59.333 139.667 -132 135c-30.667 -2 -56.667 -36 -78 -102c-16 -50.667 -24.333 -97 -25 -139zM97 209
c1.33301 -83.333 25.666 -135.665 72.999 -156.998c23.333 -10.667 47 -16 71 -16c39.333 0 85.333 16.667 138 50c59.333 37.333 95.666 57.666 108.999 60.999c24 5.33301 40 8 48 8c4.66699 0 7 -0.666992 7 -2c0 -4 -14.333 -11 -43 -21
c-14.667 -4.66699 -36.667 -19.334 -66 -44.001c-33.333 -28 -57 -45.667 -71 -53c-44 -23.333 -94.333 -35 -151 -35c-80.667 0 -140 25.667 -178 77c-22.667 30.667 -34 75.667 -34 135c0 72 16.333 135.667 49 191c38 64.667 90.667 99 158 103c70 4 129.333 -28 178 -96
c41.333 -57.333 62 -116 62 -176c0 -26 -5 -42.833 -15 -50.5s-28 -11.5 -54 -11.5c-31.333 0 -78.166 6.16699 -140.499 18.5s-109.166 18.5 -140.499 18.5zM133 565.001c58.667 1.33301 94.002 5.33398 106.002 12.001c6.66699 4.66699 26.334 30.667 59.001 78l42 62
c13.333 14 34 24.333 62 31c-56.667 -4.66699 -89.334 -9.33398 -98.001 -14.001c-11.333 -6 -32 -31 -62 -75c-28.667 -41.333 -43.334 -62.333 -44.001 -63c-14.667 -16 -36.334 -26.333 -65.001 -31z" />
    <glyph glyph-name="ecircumflex" unicode="&#xea;" horiz-adv-x="583" 
d="M97 227c37.333 2 70.333 4.66699 99 8c52 6.66699 99 16.667 141 30l2 -2c3.33301 0 1 23.333 -7 70c-15.333 94.667 -59.333 139.667 -132 135c-30.667 -2 -56.667 -36 -78 -102c-16 -50.667 -24.333 -97 -25 -139zM97 209
c1.33301 -83.333 25.666 -135.665 72.999 -156.998c23.333 -10.667 47 -16 71 -16c39.333 0 85.333 16.667 138 50c59.333 37.333 95.666 57.666 108.999 60.999c24 5.33301 40 8 48 8c4.66699 0 7 -0.666992 7 -2c0 -4 -14.333 -11 -43 -21
c-14.667 -4.66699 -36.667 -19.334 -66 -44.001c-33.333 -28 -57 -45.667 -71 -53c-44 -23.333 -94.333 -35 -151 -35c-80.667 0 -140 25.667 -178 77c-22.667 30.667 -34 75.667 -34 135c0 72 16.333 135.667 49 191c38 64.667 90.667 99 158 103c70 4 129.333 -28 178 -96
c41.333 -57.333 62 -116 62 -176c0 -26 -5 -42.833 -15 -50.5s-28 -11.5 -54 -11.5c-31.333 0 -78.166 6.16699 -140.499 18.5s-109.166 18.5 -140.499 18.5zM218 737.001c12.667 27.333 27.6689 41 45.002 41c11.333 0 19 -3.83301 23 -11.5s22.333 -47.5 55 -119.5
c22.667 -50.667 43.667 -86.334 63 -107.001c-28.667 0 -54.334 15 -77.001 45c-11.333 14.667 -27.333 42.334 -48 83.001c-14.667 30 -26.667 45.333 -36 46c-11.333 0.666992 -33 -24.333 -65 -75c-0.666992 -0.666992 -7.66699 -14 -21 -40c-8 -16 -14.667 -24 -20 -24
c-8 -1.33301 -12 2.66699 -12 12c0 6 2.33301 12.333 7 19l28 38c15.333 22 34.666 53 57.999 93z" />
    <glyph glyph-name="edieresis" unicode="&#xeb;" horiz-adv-x="583" 
d="M97 227c37.333 2 70.333 4.66699 99 8c52 6.66699 99 16.667 141 30l2 -2c3.33301 0 1 23.333 -7 70c-15.333 94.667 -59.333 139.667 -132 135c-30.667 -2 -56.667 -36 -78 -102c-16 -50.667 -24.333 -97 -25 -139zM97 209
c1.33301 -83.333 25.666 -135.665 72.999 -156.998c23.333 -10.667 47 -16 71 -16c39.333 0 85.333 16.667 138 50c59.333 37.333 95.666 57.666 108.999 60.999c24 5.33301 40 8 48 8c4.66699 0 7 -0.666992 7 -2c0 -4 -14.333 -11 -43 -21
c-14.667 -4.66699 -36.667 -19.334 -66 -44.001c-33.333 -28 -57 -45.667 -71 -53c-44 -23.333 -94.333 -35 -151 -35c-80.667 0 -140 25.667 -178 77c-22.667 30.667 -34 75.667 -34 135c0 72 16.333 135.667 49 191c38 64.667 90.667 99 158 103c70 4 129.333 -28 178 -96
c41.333 -57.333 62 -116 62 -176c0 -26 -5 -42.833 -15 -50.5s-28 -11.5 -54 -11.5c-31.333 0 -78.166 6.16699 -140.499 18.5s-109.166 18.5 -140.499 18.5zM172 738.001c-47.333 -32 -71 -63.333 -71 -94c0 -24.667 16 -37.334 48 -38.001
c24.667 -0.666992 49.667 5.33301 75 18c30.667 14 46 32.333 46 55c0 16 -9 31.667 -27 47c4.66699 -7.33301 7 -14.666 7 -21.999c0 -17.333 -7.83301 -31 -23.5 -41s-32.5 -15 -50.5 -15c-21.333 -0.666992 -32 6 -32 20c0 12.667 9.33301 36 28 70zM382 738.001
c-47.333 -32 -71 -63.333 -71 -94c0 -24.667 16 -37.334 48 -38.001c24.667 -0.666992 49.667 5.33301 75 18c30.667 14 46 32.333 46 55c0 16 -9 31.667 -27 47c4.66699 -7.33301 7 -14.666 7 -21.999c0 -17.333 -7.83301 -31 -23.5 -41s-32.5 -15 -50.5 -15
c-21.333 -0.666992 -32 6 -32 20c0 12.667 9.33301 36 28 70z" />
    <glyph glyph-name="igrave" unicode="&#xec;" horiz-adv-x="309" 
d="M194 418c-2.66699 -34 0.333984 -87.333 9.00098 -160s18 -124 28 -154c4 -11.333 6 -18.666 6 -21.999c0 -2 -1.33301 -3.33301 -4 -4c-4.66699 0 -8.33398 -1.33301 -11.001 -4c-22 -14 -51.667 -35 -89 -63c-8 -6 -13 -9 -15 -9c-3.33301 0 -8.33301 4.66699 -15 14
c-10.667 14.667 -16.667 25 -18 31c-2 8.66699 -2 24.667 0 48l15 154c8 74 15.333 127.333 22 160c4 18.667 11 28 21 28c4.66699 0 11.334 -0.666992 20.001 -2c11.333 -2 18.333 -3 21 -3c7.33301 -0.666992 10.666 -5.33398 9.99902 -14.001zM0.000976562 678
c58.667 -1.33301 94.002 -5.33398 106.002 -12.001c6.66699 -4.66699 26.334 -30.667 59.001 -78l42 -62c13.333 -14 34 -24.333 62 -31c-56.667 4.66699 -89.334 9.33398 -98.001 14.001c-11.333 6 -32 31 -62 75c-28.667 41.333 -43.334 62.333 -44.001 63
c-14.667 16 -36.334 26.333 -65.001 31z" />
    <glyph glyph-name="iacute" unicode="&#xed;" horiz-adv-x="309" 
d="M147 418c-2.66699 -34 0.333984 -87.333 9.00098 -160s18 -124 28 -154c4 -11.333 6 -18.666 6 -21.999c0 -2 -1.33301 -3.33301 -4 -4c-4.66699 0 -8.33398 -1.33301 -11.001 -4c-22 -14 -51.667 -35 -89 -63c-8 -6 -13 -9 -15 -9c-3.33301 0 -8.33301 4.66699 -15 14
c-10.667 14.667 -16.667 25 -18 31c-2 8.66699 -2 24.667 0 48l15 154c8 74 15.333 127.333 22 160c4 18.667 11 28 21 28c4.66699 0 11.334 -0.666992 20.001 -2c11.333 -2 18.333 -3 21 -3c7.33301 -0.666992 10.666 -5.33398 9.99902 -14.001zM0.000976562 500
c58.667 1.33301 94.002 5.33398 106.002 12.001c6.66699 4.66699 26.334 30.667 59.001 78l42 62c13.333 14 34 24.333 62 31c-56.667 -4.66699 -89.334 -9.33398 -98.001 -14.001c-11.333 -6 -32 -31 -62 -75c-28.667 -41.333 -43.334 -62.333 -44.001 -63
c-14.667 -16 -36.334 -26.333 -65.001 -31z" />
    <glyph glyph-name="icircumflex" unicode="&#xee;" horiz-adv-x="319" 
d="M158 418c-2.66699 -34 0.333984 -87.333 9.00098 -160s18 -124 28 -154c4 -11.333 6 -18.666 6 -21.999c0 -2 -1.33301 -3.33301 -4 -4c-4.66699 0 -8.33398 -1.33301 -11.001 -4c-22 -14 -51.667 -35 -89 -63c-8 -6 -13 -9 -15 -9c-3.33301 0 -8.33301 4.66699 -15 14
c-10.667 14.667 -16.667 25 -18 31c-2 8.66699 -2 24.667 0 48l15 154c8 74 15.333 127.333 22 160c4 18.667 11 28 21 28c4.66699 0 11.334 -0.666992 20.001 -2c11.333 -2 18.333 -3 21 -3c7.33301 -0.666992 10.666 -5.33398 9.99902 -14.001zM93.001 655
c12.667 27.333 27.6689 41 45.002 41c11.333 0 19 -3.83301 23 -11.5s22.333 -47.5 55 -119.5c22.667 -50.667 43.667 -86.334 63 -107.001c-28.667 0 -54.334 15 -77.001 45c-11.333 14.667 -27.333 42.334 -48 83.001c-14.667 30 -26.667 45.333 -36 46
c-11.333 0.666992 -33 -24.333 -65 -75c-0.666992 -0.666992 -7.66699 -14 -21 -40c-8 -16 -14.667 -24 -20 -24c-8 -1.33301 -12 2.66699 -12 12c0 6 2.33301 12.333 7 19l28 38c15.333 22 34.666 53 57.999 93z" />
    <glyph glyph-name="idieresis" unicode="&#xef;" horiz-adv-x="419" 
d="M71 730c-47.333 -32 -71 -63.333 -71 -94c0 -24.667 16 -37.334 48 -38.001c24.667 -0.666992 49.667 5.33301 75 18c30.667 14 46 32.333 46 55c0 16 -9 31.667 -27 47c4.66699 -7.33301 7 -14.666 7 -21.999c0 -17.333 -7.83301 -31 -23.5 -41s-32.5 -15 -50.5 -15
c-21.333 -0.666992 -32 6 -32 20c0 12.667 9.33301 36 28 70zM281 730c-47.333 -32 -71 -63.333 -71 -94c0 -24.667 16 -37.334 48 -38.001c24.667 -0.666992 49.667 5.33301 75 18c30.667 14 46 32.333 46 55c0 16 -9 31.667 -27 47c4.66699 -7.33301 7 -14.666 7 -21.999
c0 -17.333 -7.83301 -31 -23.5 -41s-32.5 -15 -50.5 -15c-21.333 -0.666992 -32 6 -32 20c0 12.667 9.33301 36 28 70zM218 418c-2.66699 -34 0.333984 -87.333 9.00098 -160s18 -124 28 -154c4 -11.333 6 -18.666 6 -21.999c0 -2 -1.33301 -3.33301 -4 -4
c-4.66699 0 -8.33398 -1.33301 -11.001 -4c-22 -14 -51.667 -35 -89 -63c-8 -6 -13 -9 -15 -9c-3.33301 0 -8.33301 4.66699 -15 14c-10.667 14.667 -16.667 25 -18 31c-2 8.66699 -2 24.667 0 48l15 154c8 74 15.333 127.333 22 160c4 18.667 11 28 21 28
c4.66699 0 11.334 -0.666992 20.001 -2c11.333 -2 18.333 -3 21 -3c7.33301 -0.666992 10.666 -5.33398 9.99902 -14.001z" />
    <glyph glyph-name="eth" unicode="&#xf0;" horiz-adv-x="523" 
d="M156 682l54 41c16 -31.333 50.167 -84.833 102.5 -160.5s88.833 -133.5 109.5 -173.5c34 -64.667 51 -120 51 -166c0 -12.667 -1 -24.667 -3 -36c-2.66699 -26.667 -22 -62 -58 -106c-48 -58 -101.667 -85 -161 -81c-73.333 5.33301 -132.666 27 -177.999 65
c-50 42 -74.333 98.333 -73 169c1.33301 64.667 21.333 114 60 148s90.667 51 156 51c20.667 0 42.334 -1.66699 65.001 -5c-53.333 0 -98.833 -21.333 -136.5 -64s-55.834 -91 -54.501 -145c1.33301 -53.333 11.333 -97 30 -131c24 -43.333 60.333 -64.333 109 -63
c45.333 1.33301 81.666 24 108.999 68c23.333 37.333 35 80.333 35 129c0 40 -6.66699 72.333 -20 97l-15 36c-64 108.667 -124.667 217.667 -182 327zM140 473c7.33301 42.667 12.667 69.001 16 79.001c4.66699 14.667 12.667 25.667 24 33c14.667 10.667 40 23.5 76 38.5
s61.667 27.833 77 38.5c8.66699 6.66699 18.334 22.667 29.001 48l-19 -76c-4.66699 -14.667 -12.334 -25.667 -23.001 -33c-14.667 -10.667 -39.5 -23.334 -74.5 -38.001s-60.167 -27.334 -75.5 -38.001c-10 -7.33301 -20 -24.666 -30 -51.999z" />
    <glyph glyph-name="ntilde" unicode="&#xf1;" horiz-adv-x="551" 
d="M128 202c39.333 52 68.3359 100.333 87.0029 145c12 27.333 31 51.333 57 72c9.33301 7.33301 20.666 11 33.999 11c22 0 38 -9 48 -27c6.66699 -12.667 42.334 -91 107.001 -235c45.333 -101.333 87.666 -172.666 126.999 -213.999c-57.333 0 -109 30 -155 90
c-22.667 29.333 -54.334 84.666 -95.001 165.999c-30 60.667 -54.333 91.334 -73 92.001c-19.333 1.33301 -41.666 -16.667 -66.999 -54c-12.667 -18 -33.667 -50 -63 -96c0.666992 -3.33301 3.83398 -16 9.50098 -38s8.5 -33.667 8.5 -35c0 -2 -1.33301 -3.33301 -4 -4
c-4.66699 0 -8.33398 -1.33301 -11.001 -4c-26 -17.333 -55.667 -38.333 -89 -63c-8 -6 -13.333 -9 -16 -9s-7.33398 4.66699 -14.001 14c-10.667 14.667 -17 27 -19 37c-2 7.33301 -2 21.333 0 42c6 70 11 121.667 15 155c8.66699 74.667 16 128 22 160
c4 19.333 11 29 21 29c5.33301 0 12.833 -0.833008 22.5 -2.5s16.167 -2.5 19.5 -2.5c7.33301 -0.666992 10.666 -5.33398 9.99902 -14.001c-2.66699 -46 3.33301 -117.667 18 -215zM27.0029 497c54 40.667 99.332 61 135.999 61c20.667 0 46.334 -5.66699 77.001 -17
c39.333 -14.667 69.333 -22 90 -22c28.667 0 65 12 109 36c-44 -43.333 -85 -65 -123 -65c-20.667 0 -51 7.16699 -91 21.5s-71 21.5 -93 21.5c-32 0 -67 -12 -105 -36z" />
    <glyph glyph-name="ograve" unicode="&#xf2;" horiz-adv-x="511" 
d="M294 465c-24 4 -47.0029 6.00098 -69.0029 6.00098c-68.667 0 -123.167 -18 -163.5 -54s-61.5 -87.667 -63.5 -155c-1.33301 -74.667 24.334 -134 77.001 -178c47.333 -40 109.666 -62.667 186.999 -68c62.667 -4.66699 119 23.666 169 84.999c38 46 58.333 83 61 111
c0.666992 8 1 15.667 1 23c0 34 -8 65.333 -24 94c-36 63.333 -106.667 92.333 -212 87c88.667 -4.66699 133 -60.334 133 -167.001c0 -50.667 -12.333 -96 -37 -136c-28 -46 -66 -69.667 -114 -71c-51.333 -1.33301 -89.666 21 -114.999 67
c-19.333 35.333 -29.666 81 -30.999 137c-1.33301 56.667 17.834 107.334 57.501 152.001s87.5 67 143.5 67zM111.997 715.001c58.667 -1.33301 94.002 -5.33398 106.002 -12.001c6.66699 -4.66699 26.334 -30.667 59.001 -78l42 -62c13.333 -14 34 -24.333 62 -31
c-56.667 4.66699 -89.334 9.33398 -98.001 14.001c-11.333 6 -32 31 -62 75c-28.667 41.333 -43.334 62.333 -44.001 63c-14.667 16 -36.334 26.333 -65.001 31z" />
    <glyph glyph-name="oacute" unicode="&#xf3;" horiz-adv-x="511" 
d="M294 465c-24 4 -47.0029 6.00098 -69.0029 6.00098c-68.667 0 -123.167 -18 -163.5 -54s-61.5 -87.667 -63.5 -155c-1.33301 -74.667 24.334 -134 77.001 -178c47.333 -40 109.666 -62.667 186.999 -68c62.667 -4.66699 119 23.666 169 84.999c38 46 58.333 83 61 111
c0.666992 8 1 15.667 1 23c0 34 -8 65.333 -24 94c-36 63.333 -106.667 92.333 -212 87c88.667 -4.66699 133 -60.334 133 -167.001c0 -50.667 -12.333 -96 -37 -136c-28 -46 -66 -69.667 -114 -71c-51.333 -1.33301 -89.666 21 -114.999 67
c-19.333 35.333 -29.666 81 -30.999 137c-1.33301 56.667 17.834 107.334 57.501 152.001s87.5 67 143.5 67zM92.9971 509.001c58.667 1.33301 94.002 5.33398 106.002 12.001c6.66699 4.66699 26.334 30.667 59.001 78l42 62c13.333 14 34 24.333 62 31
c-56.667 -4.66699 -89.334 -9.33398 -98.001 -14.001c-11.333 -6 -32 -31 -62 -75c-28.667 -41.333 -43.334 -62.333 -44.001 -63c-14.667 -16 -36.334 -26.333 -65.001 -31z" />
    <glyph glyph-name="ocircumflex" unicode="&#xf4;" horiz-adv-x="511" 
d="M294 465c-24 4 -47.0029 6.00098 -69.0029 6.00098c-68.667 0 -123.167 -18 -163.5 -54s-61.5 -87.667 -63.5 -155c-1.33301 -74.667 24.334 -134 77.001 -178c47.333 -40 109.666 -62.667 186.999 -68c62.667 -4.66699 119 23.666 169 84.999c38 46 58.333 83 61 111
c0.666992 8 1 15.667 1 23c0 34 -8 65.333 -24 94c-36 63.333 -106.667 92.333 -212 87c88.667 -4.66699 133 -60.334 133 -167.001c0 -50.667 -12.333 -96 -37 -136c-28 -46 -66 -69.667 -114 -71c-51.333 -1.33301 -89.666 21 -114.999 67
c-19.333 35.333 -29.666 81 -30.999 137c-1.33301 56.667 17.834 107.334 57.501 152.001s87.5 67 143.5 67zM196.997 676.001c12.667 27.333 27.6689 41 45.002 41c11.333 0 19 -3.83301 23 -11.5s22.333 -47.5 55 -119.5c22.667 -50.667 43.667 -86.334 63 -107.001
c-28.667 0 -54.334 15 -77.001 45c-11.333 14.667 -27.333 42.334 -48 83.001c-14.667 30 -26.667 45.333 -36 46c-11.333 0.666992 -33 -24.333 -65 -75c-0.666992 -0.666992 -7.66699 -14 -21 -40c-8 -16 -14.667 -24 -20 -24c-8 -1.33301 -12 2.66699 -12 12
c0 6 2.33301 12.333 7 19l28 38c15.333 22 34.666 53 57.999 93z" />
    <glyph glyph-name="otilde" unicode="&#xf5;" horiz-adv-x="511" 
d="M294 465c-24 4 -47.0029 6.00098 -69.0029 6.00098c-68.667 0 -123.167 -18 -163.5 -54s-61.5 -87.667 -63.5 -155c-1.33301 -74.667 24.334 -134 77.001 -178c47.333 -40 109.666 -62.667 186.999 -68c62.667 -4.66699 119 23.666 169 84.999c38 46 58.333 83 61 111
c0.666992 8 1 15.667 1 23c0 34 -8 65.333 -24 94c-36 63.333 -106.667 92.333 -212 87c88.667 -4.66699 133 -60.334 133 -167.001c0 -50.667 -12.333 -96 -37 -136c-28 -46 -66 -69.667 -114 -71c-51.333 -1.33301 -89.666 21 -114.999 67
c-19.333 35.333 -29.666 81 -30.999 137c-1.33301 56.667 17.834 107.334 57.501 152.001s87.5 67 143.5 67zM37.9971 481.001c54 40.667 99.332 61 135.999 61c20.667 0 46.334 -5.66699 77.001 -17c39.333 -14.667 69.333 -22 90 -22c28.667 0 65 12 109 36
c-44 -43.333 -85 -65 -123 -65c-20.667 0 -51 7.16699 -91 21.5s-71 21.5 -93 21.5c-32 0 -67 -12 -105 -36z" />
    <glyph glyph-name="odieresis" unicode="&#xf6;" horiz-adv-x="511" 
d="M294 465c-24 4 -47.0029 6.00098 -69.0029 6.00098c-68.667 0 -123.167 -18 -163.5 -54s-61.5 -87.667 -63.5 -155c-1.33301 -74.667 24.334 -134 77.001 -178c47.333 -40 109.666 -62.667 186.999 -68c62.667 -4.66699 119 23.666 169 84.999c38 46 58.333 83 61 111
c0.666992 8 1 15.667 1 23c0 34 -8 65.333 -24 94c-36 63.333 -106.667 92.333 -212 87c88.667 -4.66699 133 -60.334 133 -167.001c0 -50.667 -12.333 -96 -37 -136c-28 -46 -66 -69.667 -114 -71c-51.333 -1.33301 -89.666 21 -114.999 67
c-19.333 35.333 -29.666 81 -30.999 137c-1.33301 56.667 17.834 107.334 57.501 152.001s87.5 67 143.5 67zM128.997 738.001c-47.333 -32 -71 -63.333 -71 -94c0 -24.667 16 -37.334 48 -38.001c24.667 -0.666992 49.667 5.33301 75 18c30.667 14 46 32.333 46 55
c0 16 -9 31.667 -27 47c4.66699 -7.33301 7 -14.666 7 -21.999c0 -17.333 -7.83301 -31 -23.5 -41s-32.5 -15 -50.5 -15c-21.333 -0.666992 -32 6 -32 20c0 12.667 9.33301 36 28 70zM338.997 738.001c-47.333 -32 -71 -63.333 -71 -94c0 -24.667 16 -37.334 48 -38.001
c24.667 -0.666992 49.667 5.33301 75 18c30.667 14 46 32.333 46 55c0 16 -9 31.667 -27 47c4.66699 -7.33301 7 -14.666 7 -21.999c0 -17.333 -7.83301 -31 -23.5 -41s-32.5 -15 -50.5 -15c-21.333 -0.666992 -32 6 -32 20c0 12.667 9.33301 36 28 70z" />
    <glyph glyph-name="divide" unicode="&#xf7;" horiz-adv-x="358" 
d="M0 295c30.667 30.667 50 49 58 55c12.667 9.33301 25.667 14 39 14c18.667 0 47 -4.16699 85 -12.5s66.333 -12.5 85 -12.5c10.667 0 27.667 7.66699 51 23l-59 -52c-12 -9.33301 -24.667 -14 -38 -14c-18 0 -45.5 4 -82.5 12s-64.833 12 -83.5 12
c-12.667 0 -31 -8.33301 -55 -25zM134 283c-36 -24.667 -53.999 -48.6641 -53.999 -71.9971c0 -18.667 12.333 -28.334 37 -29.001c19.333 0 38.666 4.33301 57.999 13c22.667 11.333 34 25.666 34 42.999c0 12 -6.66699 24 -20 36c3.33301 -6 5 -11.667 5 -17
c0 -12.667 -6 -23.167 -18 -31.5s-25 -12.5 -39 -12.5c-16 -0.666992 -24 4.66602 -24 15.999c0 10 7 28 21 54zM161.001 484.003c-36.667 -24.667 -54.999 -48.6641 -54.999 -71.9971c0 -18.667 12.333 -28.334 37 -29.001c19.333 0 38.666 4.33301 57.999 13
c23.333 11.333 35 25.666 35 42.999c0 12 -7 24 -21 36c3.33301 -6 5 -11.667 5 -17c0 -12.667 -6 -23.167 -18 -31.5s-24.667 -12.5 -38 -12.5c-16.667 -0.666992 -25 4.66602 -25 15.999c0 10 7.33301 28 22 54z" />
    <glyph glyph-name="oslash" unicode="&#xf8;" horiz-adv-x="511" 
d="M340 340c-3.33301 -6.66699 -4.99902 -10.999 -4.99902 -12.999c0 1.33301 0.333008 0.666016 1 -2.00098c0 -2 -6.33301 -14 -19 -36c-68 -114.667 -123 -194.667 -165 -240c21.333 -16.667 47 -24.667 77 -24c45.333 1.33301 81.666 24 108.999 68
c23.333 37.333 35 80.333 35 129c0 52 -11 91.333 -33 118zM359.001 378.001l-3.99805 -7.99902c36.667 -11.333 65.167 -31.5 85.5 -60.5s30.5 -62.833 30.5 -101.5c0 -6.66699 -0.333008 -13.667 -1 -21c-2.66699 -26.667 -22 -62 -58 -106c-48 -58 -101.667 -85 -161 -81
c-45.333 3.33301 -85 12.666 -119 27.999l-30 -27c2.66699 12.667 5.66699 25 9 37c-76 43.333 -113 108.666 -111 195.999c1.33301 64.667 21.333 114 60 148s90.667 51 156 51c20.667 0 42.334 -1.66699 65.001 -5c-53.333 0 -98.833 -21.333 -136.5 -64
s-55.834 -91 -54.501 -145c1.33301 -58 12.666 -103.667 33.999 -137c14 43.333 33 87.333 57 132c16.667 32.667 47 82.667 91 150l8 12c-10.667 2.66699 -22 4.33398 -34 5.00098c13.333 0.666992 25.666 0.666992 36.999 0l11 16l1 2c0.666992 2 4 8.66699 10 20z" />
    <glyph glyph-name="ugrave" unicode="&#xf9;" horiz-adv-x="575" 
d="M378 419c8.66699 -34.667 13.002 -72.6689 13.002 -114.002c0 -63.333 -9.66699 -117.333 -29 -162c-26 -59.333 -66 -91 -120 -95c-48 -3.33301 -82.667 21.334 -104 74.001c-14.667 36.667 -22 83.334 -22 140.001c0 58.667 6.66699 114.667 20 168l-71 22
c-43.333 -58 -65 -120 -65 -186c0 -72 23.5 -131.333 70.5 -178s106.833 -70 179.5 -70c31.333 0 75 21 131 63c3.33301 -9.33301 8.66602 -23.333 15.999 -42c10.667 -26 24.667 -39 42 -39c26.667 0 58.667 37 96 111l-30 95c-18.667 59.333 -32.334 134 -41.001 224z
M121.002 744.998c58.667 -1.33301 94.002 -5.33398 106.002 -12.001c6.66699 -4.66699 26.334 -30.667 59.001 -78l42 -62c13.333 -14 34 -24.333 62 -31c-56.667 4.66699 -89.334 9.33398 -98.001 14.001c-11.333 6 -32 31 -62 75
c-28.667 41.333 -43.334 62.333 -44.001 63c-14.667 16 -36.334 26.333 -65.001 31z" />
    <glyph glyph-name="uacute" unicode="&#xfa;" horiz-adv-x="575" 
d="M378 419c8.66699 -34.667 13.002 -72.6689 13.002 -114.002c0 -63.333 -9.66699 -117.333 -29 -162c-26 -59.333 -66 -91 -120 -95c-48 -3.33301 -82.667 21.334 -104 74.001c-14.667 36.667 -22 83.334 -22 140.001c0 58.667 6.66699 114.667 20 168l-71 22
c-43.333 -58 -65 -120 -65 -186c0 -72 23.5 -131.333 70.5 -178s106.833 -70 179.5 -70c31.333 0 75 21 131 63c3.33301 -9.33301 8.66602 -23.333 15.999 -42c10.667 -26 24.667 -39 42 -39c26.667 0 58.667 37 96 111l-30 95c-18.667 59.333 -32.334 134 -41.001 224z
M145.002 537.998c58.667 1.33301 94.002 5.33398 106.002 12.001c6.66699 4.66699 26.334 30.667 59.001 78l42 62c13.333 14 34 24.333 62 31c-56.667 -4.66699 -89.334 -9.33398 -98.001 -14.001c-11.333 -6 -32 -31 -62 -75c-28.667 -41.333 -43.334 -62.333 -44.001 -63
c-14.667 -16 -36.334 -26.333 -65.001 -31z" />
    <glyph glyph-name="ucircumflex" unicode="&#xfb;" horiz-adv-x="575" 
d="M378 419c8.66699 -34.667 13.002 -72.6689 13.002 -114.002c0 -63.333 -9.66699 -117.333 -29 -162c-26 -59.333 -66 -91 -120 -95c-48 -3.33301 -82.667 21.334 -104 74.001c-14.667 36.667 -22 83.334 -22 140.001c0 58.667 6.66699 114.667 20 168l-71 22
c-43.333 -58 -65 -120 -65 -186c0 -72 23.5 -131.333 70.5 -178s106.833 -70 179.5 -70c31.333 0 75 21 131 63c3.33301 -9.33301 8.66602 -23.333 15.999 -42c10.667 -26 24.667 -39 42 -39c26.667 0 58.667 37 96 111l-30 95c-18.667 59.333 -32.334 134 -41.001 224z
M191.002 709.998c12.667 27.333 27.6689 41 45.002 41c11.333 0 19 -3.83301 23 -11.5s22.333 -47.5 55 -119.5c22.667 -50.667 43.667 -86.334 63 -107.001c-28.667 0 -54.334 15 -77.001 45c-11.333 14.667 -27.333 42.334 -48 83.001c-14.667 30 -26.667 45.333 -36 46
c-11.333 0.666992 -33 -24.333 -65 -75c-0.666992 -0.666992 -7.66699 -14 -21 -40c-8 -16 -14.667 -24 -20 -24c-8 -1.33301 -12 2.66699 -12 12c0 6 2.33301 12.333 7 19l28 38c15.333 22 34.666 53 57.999 93z" />
    <glyph glyph-name="udieresis" unicode="&#xfc;" horiz-adv-x="575" 
d="M378 419c8.66699 -34.667 13.002 -72.6689 13.002 -114.002c0 -63.333 -9.66699 -117.333 -29 -162c-26 -59.333 -66 -91 -120 -95c-48 -3.33301 -82.667 21.334 -104 74.001c-14.667 36.667 -22 83.334 -22 140.001c0 58.667 6.66699 114.667 20 168l-71 22
c-43.333 -58 -65 -120 -65 -186c0 -72 23.5 -131.333 70.5 -178s106.833 -70 179.5 -70c31.333 0 75 21 131 63c3.33301 -9.33301 8.66602 -23.333 15.999 -42c10.667 -26 24.667 -39 42 -39c26.667 0 58.667 37 96 111l-30 95c-18.667 59.333 -32.334 134 -41.001 224z
M152.002 743.998c-47.333 -32 -71 -63.333 -71 -94c0 -24.667 16 -37.334 48 -38.001c24.667 -0.666992 49.667 5.33301 75 18c30.667 14 46 32.333 46 55c0 16 -9 31.667 -27 47c4.66699 -7.33301 7 -14.666 7 -21.999c0 -17.333 -7.83301 -31 -23.5 -41
s-32.5 -15 -50.5 -15c-21.333 -0.666992 -32 6 -32 20c0 12.667 9.33301 36 28 70zM362.002 743.998c-47.333 -32 -71 -63.333 -71 -94c0 -24.667 16 -37.334 48 -38.001c24.667 -0.666992 49.667 5.33301 75 18c30.667 14 46 32.333 46 55c0 16 -9 31.667 -27 47
c4.66699 -7.33301 7 -14.666 7 -21.999c0 -17.333 -7.83301 -31 -23.5 -41s-32.5 -15 -50.5 -15c-21.333 -0.666992 -32 6 -32 20c0 12.667 9.33301 36 28 70z" />
    <glyph glyph-name="thorn" unicode="&#xfe;" horiz-adv-x="573" 
d="M113 387c4 -32.667 9 -69.001 15 -109.001c2 -12.667 3 -33.334 3 -62.001c0 -28 -1 -48 -3 -60c-6 -34.667 -11 -70.334 -15 -107.001c90 0 155.667 6.33301 197 19c74.667 23.333 112 69.333 112 138c0 2.66699 -0.333008 2.33398 -1 -0.999023
c-0.666992 -2.66699 -1 -2.66699 -1 0s0.333008 6.83398 1 12.501s1 9.83398 1 12.501c0 68.667 -37.333 114.667 -112 138c-41.333 12.667 -107 19 -197 19zM9 388.999c2.66699 110 3 182 1 216c-1.33301 21.333 1 35.666 7 42.999c2 3.33301 9.5 6.83301 22.5 10.5
s22.167 5.5 27.5 5.5c11.333 0 20.333 -28 27 -84c6 -58.667 11.667 -117.667 17 -177c88.667 22 154 33 196 33c54.667 0 98.334 -15.667 131.001 -47c56.667 -54.667 85 -111.667 85 -171s-28.333 -116.333 -85 -171c-32.667 -31.333 -76.334 -47 -131.001 -47
c-42 0 -107.333 11 -196 33c-2 -15.333 -9 -60.666 -21 -135.999c-13.333 -83.333 -21 -125 -23 -125c-5.33301 0 -14.5 1.83301 -27.5 5.5s-20.5 7.16699 -22.5 10.5c-6 7.33301 -8.33301 21.666 -7 42.999c2 34 1.66699 106 -1 216c-1.33301 44 -2.66602 82 -3.99902 114
c-1.33301 24 -2 44.333 -2 61c0 16 0.666992 35 2 57c1.33301 28.667 2.66602 65.334 3.99902 110.001z" />
    <glyph glyph-name="ydieresis" unicode="&#xff;" horiz-adv-x="532" 
d="M335 134c-28 -42.667 -45.998 -68.668 -53.998 -78.001c-33.333 -36.667 -72 -55 -116 -55c-42 0 -80.667 48 -116 144c-32.667 88.667 -49 173.667 -49 255c0 22.667 1.66699 42 5 58c10 -113.333 50 -212 120 -296c24.667 -30 42.334 -45 53.001 -45
c22.667 0 46 7 70 21c40.667 23.333 69 61.666 85 114.999c10 34 16.333 83.167 19 147.5s7 98.833 13 103.5c2 2 5.33301 3 10 3c23.333 0 48.666 -11.833 75.999 -35.5s41 -47.167 41 -70.5c0 -28.667 -14.167 -96.667 -42.5 -204s-42.5 -189.333 -42.5 -246
c0 -26.667 2 -50.334 6 -71.001c8.66699 -44 13 -77.667 13 -101c0 -32.667 -8.66699 -53.334 -26 -62.001c-10.667 -5.33301 -36 -8.66602 -76 -9.99902c-26.667 -0.666992 -114.334 19.333 -263.001 60c-140.667 38.667 -230.334 57.334 -269.001 56.001h-124
c-40.667 0 -78.667 -10.667 -114 -32c-6 0 -9 1 -9 3c0 10 25.333 23.333 76 40c58 19.333 115 29 171 29c55.333 0 136.833 -17.667 244.5 -53s187.167 -53.666 238.5 -54.999c49.333 -1.33301 74 46.667 74 144c0 31.333 -3 77 -9 137
c-5.33301 52.667 -7 85.334 -5 98.001zM158.002 742.999c-47.333 -32 -71 -63.333 -71 -94c0 -24.667 16 -37.334 48 -38.001c24.667 -0.666992 49.667 5.33301 75 18c30.667 14 46 32.333 46 55c0 16 -9 31.667 -27 47c4.66699 -7.33301 7 -14.666 7 -21.999
c0 -17.333 -7.83301 -31 -23.5 -41s-32.5 -15 -50.5 -15c-21.333 -0.666992 -32 6 -32 20c0 12.667 9.33301 36 28 70zM368.002 742.999c-47.333 -32 -71 -63.333 -71 -94c0 -24.667 16 -37.334 48 -38.001c24.667 -0.666992 49.667 5.33301 75 18
c30.667 14 46 32.333 46 55c0 16 -9 31.667 -27 47c4.66699 -7.33301 7 -14.666 7 -21.999c0 -17.333 -7.83301 -31 -23.5 -41s-32.5 -15 -50.5 -15c-21.333 -0.666992 -32 6 -32 20c0 12.667 9.33301 36 28 70z" />
    <glyph glyph-name="dotlessi" unicode="&#x131;" horiz-adv-x="192" 
d="M109 418c-2.66699 -34 0.333984 -87.333 9.00098 -160s18 -124 28 -154c4 -11.333 6 -18.666 6 -21.999c0 -2 -1.33301 -3.33301 -4 -4c-4.66699 0 -8.33398 -1.33301 -11.001 -4c-22 -14 -51.667 -35 -89 -63c-8 -6 -13 -9 -15 -9c-3.33301 0 -8.33301 4.66699 -15 14
c-10.667 14.667 -16.667 25 -18 31c-2 8.66699 -2 24.667 0 48l15 154c8 74 15.333 127.333 22 160c4 18.667 11 28 21 28c4.66699 0 11.334 -0.666992 20.001 -2c11.333 -2 18.333 -3 21 -3c7.33301 -0.666992 10.666 -5.33398 9.99902 -14.001z" />
    <glyph glyph-name="Lslash" unicode="&#x141;" horiz-adv-x="693" 
d="M242 94c11.333 -7.33301 40.998 -11.335 88.998 -12.002c-68.667 0.666992 -23.667 1 135 1c29.333 0 52.333 2.33301 69 7l62 20c32.667 10 47.667 15 45 15c17.333 0 7.83301 -13.833 -28.5 -41.5s-57.166 -41.5 -62.499 -41.5c6.66699 0 3.83398 0.5 -8.49902 1.5
s-20.5 1.16699 -24.5 0.5c-17.333 -2 -44.666 -3 -81.999 -3c-41.333 0 -78 0.333008 -110 1l-86 2c-3.33301 -8 -9.33301 -18 -18 -30c-6.66699 -9.33301 -11.667 -14 -15 -14c-2.66699 0 -8.33398 3 -17.001 9c-10.667 5.33301 -42 27.666 -94 66.999
c-1.33301 0.666992 -4.5 1.83398 -9.5 3.50098s-7.5 3.5 -7.5 5.5c4 15.333 8.66699 36.666 14 63.999c6.66699 56.667 11.334 143.334 14.001 260.001c2 102.667 2.33301 172.334 1 209.001c2 29.333 3.33301 74 4 134c14.667 3.33301 28.667 -8.66699 42 -36
c9.33301 -20 16.333 -41 21 -63c7.33301 -36 19.666 -129.333 36.999 -280c14.667 -125.333 24.667 -216.666 30 -273.999v-5zM11.998 346.998c30.667 30.667 50 49 58 55c12.667 9.33301 25.667 14 39 14c18.667 0 47 -4.16699 85 -12.5s66.333 -12.5 85 -12.5
c10.667 0 27.667 7.66699 51 23l-59 -52c-12 -9.33301 -24.667 -14 -38 -14c-18 0 -45.5 4 -82.5 12s-64.833 12 -83.5 12c-12.667 0 -31 -8.33301 -55 -25z" />
    <glyph glyph-name="lslash" unicode="&#x142;" horiz-adv-x="359" 
d="M100 618c2 -44 1.33105 -128.334 -2.00195 -253.001c-4 -144 -10.667 -229.667 -20 -257c-4.66699 -13.333 -7 -21 -7 -23s2.5 -3.66699 7.5 -5s8.16699 -2.66602 9.5 -3.99902c22.667 -14.667 54 -37 94 -67c8 -6 13.667 -9 17 -9s8.33301 4.66699 15 14
c14 19.333 21 38 21 56c0 12 -0.333008 21.667 -1 29c-25.333 274 -47.666 458.667 -66.999 554c-3.33301 15.333 -7.33301 23 -12 23c-5.33301 0 -14.166 -1.83301 -26.499 -5.5s-19.833 -7.16699 -22.5 -10.5c-5.33301 -6 -7.33301 -20 -6 -42zM-8.00195 309.999
c30.667 30.667 50 49 58 55c12.667 9.33301 25.667 14 39 14c18.667 0 47 -4.16699 85 -12.5s66.333 -12.5 85 -12.5c10.667 0 27.667 7.66699 51 23l-59 -52c-12 -9.33301 -24.667 -14 -38 -14c-18 0 -45.5 4 -82.5 12s-64.833 12 -83.5 12c-12.667 0 -31 -8.33301 -55 -25
z" />
    <glyph glyph-name="OE" unicode="&#x152;" horiz-adv-x="1030" 
d="M459 685c-31.333 4.66699 -46.9971 8.99902 -46.9971 12.999c0 6 24 10 72 12c22 0.666992 57.667 9.33398 107 26.001c47.333 15.333 84.333 23 111 23c64 0 121.667 -18.667 173 -56c22.667 -16.667 34 -27 34 -31c-0.666992 -1.33301 -2 -2 -4 -2
c-6 0 -20.333 4.33301 -43 13c-32.667 12.667 -56.334 20.667 -71.001 24c-22.667 5.33301 -54 8.66602 -94 9.99902c-24.667 0.666992 -59.334 -4.66602 -104.001 -15.999c-46.667 -12 -81.334 -18 -104.001 -18c-10.667 0 -20.667 0.666992 -30 2zM560.003 380.999
c6.66699 -4.66699 30.999 -7 72.999 -7c26.667 0 62.334 1 107.001 3l68 3c-1.33301 0 6.33398 1.33301 23.001 4c-0.666992 -0.666992 -8.33398 -7.66699 -23.001 -21l-24 -22c0.666992 -0.666992 0.333984 -1 -0.999023 -1l1 1c-6.66699 4.66699 -21.334 9 -44.001 13
c-20 4 -35.333 6 -46 6c-25.333 0 -51.666 -5.66699 -78.999 -17c-20.667 -8.66699 -31.667 -14 -33 -16c-2.66699 -6 -7.33398 -11.333 -14.001 -16c8 -72 15.333 -142.667 22 -212c0.666992 -6.66699 1 -11.667 1 -15c9.33301 -5.33301 27.333 -9 54 -11
c19.333 0.666992 75.333 1 168 1c28.667 0 51.667 2 69 6c2.66699 0.666992 23.334 7.66699 62.001 21c3.33301 1.33301 18.666 6 45.999 14c-0.666992 0 -0.666992 0 0 0s0.666992 0 0 0c-0.666992 -2.66699 -14.334 -16.334 -41.001 -41.001c-30 -28 -47 -42 -51 -42
c-0.666992 0.666992 -4 1.33398 -10 2.00098s-13.667 0.666992 -23 0c-15.333 -1.33301 -42.666 -2 -81.999 -2c-26.667 0 -64 0.333008 -112 1l-86 1v3c-2 -5.33301 -6.33301 -12.333 -13 -21c-8 -10.667 -13.667 -16 -17 -16c-2.66699 0 -8.33398 3 -17.001 9l-88 62
c-46.667 -41.333 -106.667 -64.666 -180 -69.999c-155.333 -10.667 -244.333 110 -267 362c-2 22 -3 41.667 -3 59c0 169.333 76 272 228 308c48.667 11.333 73 13.666 73 6.99902c0 -6 -25 -16.333 -75 -31c-56.667 -16.667 -96.334 -51 -119.001 -103
c-16.667 -38.667 -25 -92.334 -25 -161.001c0 -24 1.33301 -56 4 -96c5.33301 -75.333 22 -140.666 50 -195.999c37.333 -74 88.333 -111.667 153 -113c49.333 -0.666992 93 41.333 131 126c12.667 28 22.667 55 30 81c2.66699 48 4.66699 109.667 6 185
c-5.33301 52 -8.66602 81.333 -9.99902 88c-4.66699 22 -29.334 49 -74.001 81c-41.333 30 -62 57.333 -62 82c0 0.666992 0.666992 1 2 1c-3.33301 0 23.334 -6.33301 80.001 -19c24 -5.33301 45.667 -16.333 65 -33c0 14.667 1.5 24.334 4.5 29.001
s11.167 8.66699 24.5 12c16 4 24.667 6 26 6c4.66699 0 8.33398 -7.66699 11.001 -23c8 -40.667 20.333 -131.334 37 -272.001z" />
    <glyph glyph-name="oe" unicode="&#x153;" horiz-adv-x="903" 
d="M417 224c38 2 70.999 4.66699 98.999 8c52 6.66699 99 16.667 141 30l2 -2c3.33301 0 1 23.333 -7 70c-15.333 94.667 -59.333 139.667 -132 135c-30.667 -2 -56.667 -36 -78 -102c-15.333 -50.667 -23.666 -97 -24.999 -139zM280.999 428
c-53.333 0 -98.832 -21.3311 -136.499 -63.998s-55.834 -91 -54.501 -145c1.33301 -53.333 11.333 -97 30 -131c24 -43.333 60.333 -64.333 109 -63c45.333 1.33301 81.666 24 108.999 68c23.333 37.333 35 80.333 35 129c0 101.333 -42.333 154.333 -127 159
c46.667 2.66699 82 -2 106 -14c39.333 86 97.666 131.333 174.999 136c70 4 129.333 -28 178 -96c41.333 -57.333 62 -116 62 -176c0 -26 -5 -42.833 -15 -50.5s-28 -11.5 -54 -11.5c-31.333 0 -78.166 6.16699 -140.499 18.5s-109.166 18.5 -140.499 18.5
c1.33301 -83.333 25.666 -135.666 72.999 -156.999c23.333 -10.667 47 -16 71 -16c40 0 86 16.667 138 50c59.333 37.333 95.666 57.666 108.999 60.999c24 5.33301 40 8 48 8c4.66699 0 7 -0.666992 7 -2c0 -4 -14.333 -11 -43 -21
c-14.667 -4.66699 -36.667 -19.334 -66 -44.001c-33.333 -28 -57 -45.667 -71 -53c-44 -23.333 -94.333 -35 -151 -35c-64.667 0 -115.667 16.667 -153 50c-39.333 -34.667 -82 -50.334 -128 -47.001c-73.333 5.33301 -132.666 27 -177.999 65
c-50 42 -74.333 98.333 -73 169c1.33301 64.667 21.333 114 60 148s90.667 51 156 51c20.667 0 42.334 -1.66699 65.001 -5z" />
    <glyph glyph-name="Scaron" unicode="&#x160;" horiz-adv-x="634" 
d="M453.5 724.5c22.333 2.33301 38.833 3.50488 49.5 3.50488c2 0 3 -1 3 -3c-8 -16 -12 -30.667 -12 -44c0 -46 7 -81.667 21 -107c8.66699 -16 13 -27 13 -33c0 -4 -2 -6 -6 -6c-16.667 0 -43.334 15 -80.001 45c-31.333 25.333 -56.333 43.666 -75 54.999
c-30 18 -57.333 25.667 -82 23c-67.333 -6.66699 -101 -36 -101 -88c0 -13.333 2 -29.666 6 -48.999c11.333 -54.667 23.666 -90 36.999 -106c19.333 -22.667 57 -37.334 113 -44.001c69.333 -8 126 -29.667 170 -65c50 -40.667 75 -94 75 -160
c0 -59.333 -16.667 -99.666 -50 -120.999c-28.667 -18.667 -78.667 -26.667 -150 -24c-38.667 1.33301 -94.167 13.666 -166.5 36.999s-114.5 35 -126.5 35c-18 0 -25.333 0.333008 -22 1c-2.66699 -0.666992 -9.33398 -3.33398 -20.001 -8.00098
c-25.333 -11.333 -41 -17 -47 -17c-2 0 -3 0.666992 -3 2c0 3.33301 9.33301 10.666 28 21.999c16.667 10 28.334 16 35.001 18c12 3.33301 31.667 5 59 5c24.667 0 62.334 -7.16699 113.001 -21.5s89.334 -21.5 116.001 -21.5c32 0 56.667 7.66699 74 23
c22.667 20 34 48 34 84c0 47.333 -18.333 87.666 -55 120.999c-33.333 30.667 -74.666 49.667 -123.999 57c-70 10.667 -121.667 31.667 -155 63c-36 33.333 -57 84 -63 152c-4 39.333 14.333 76 55 110c38 31.333 77.333 46.333 118 45
c23.333 -0.666992 40.666 -1.66699 51.999 -3c20 -2 37 -5.33301 51 -10c7.33301 -2.66699 21.333 -8.33398 42 -17.001c3.33301 -0.666992 6 -1 8 -1c7.33301 0 11 3 11 9c0 2 -0.333008 4.33301 -1 7l-13 25c0 2 5.83301 3 17.5 3s28.667 1.16699 51 3.5zM235 816.005
c12.667 -28 27.6689 -42.001 45.002 -42.001c11.333 0 19.333 4.66699 24 14c3.33301 6 21.333 45 54 117c22.667 50.667 43.667 86.334 63 107.001c-28.667 0 -54.334 -15 -77.001 -45c-11.333 -14.667 -27.333 -42.334 -48 -83.001c-14.667 -30 -26.667 -45.333 -36 -46
c-11.333 -0.666992 -33 24.333 -65 75c-0.666992 0.666992 -7.66699 14 -21 40c-8 16 -14.667 24.333 -20 25c-8 0.666992 -12 -3.66602 -12 -12.999c0 -6 2.33301 -12 7 -18l28 -38c15.333 -22.667 34.666 -53.667 57.999 -93z" />
    <glyph glyph-name="scaron" unicode="&#x161;" horiz-adv-x="519" 
d="M354 317c2.66699 10.667 3.99902 21.335 3.99902 32.002c0 39.333 -17.333 71.333 -52 96c-29.333 22 -65 34.667 -107 38c-53.333 4.66699 -97.333 -11.833 -132 -49.5s-52 -83.5 -52 -137.5c0 -47.333 3 -78 9 -92c10.667 -25.333 35.334 -38 74.001 -38
c11.333 0 35.666 10.5 72.999 31.5s74.333 31.5 111 31.5c54 0 81 -13.333 81 -40c-1.33301 -4.66699 -5 -20.667 -11 -48c-5.33301 -21.333 -19.333 -43.333 -42 -66c-27.333 -26.667 -55.666 -39.334 -84.999 -38.001c-22.667 0.666992 -59.5 10.5 -110.5 29.5
s-91.167 28.833 -120.5 29.5c-41.333 1.33301 -75 -1.33398 -101 -8.00098c-11.333 -2.66699 -31.333 -10.334 -60 -23.001c14.667 1.33301 28.667 2 42 2c41.333 0 104 -12.667 188 -38c79.333 -23.333 142 -33.666 188 -30.999c50.667 3.33301 94.667 13 132 29
c50.667 22.667 79 54.334 85 95.001c2.66699 18.667 4 34 4 46c0 77.333 -26.333 118.333 -79 123c-34.667 2.66699 -78 -6 -130 -26c-48 -18.667 -75.333 -29 -82 -31c-30 0 -44 26 -42 78l3 90c4 28.667 17.667 42.667 41 42c41.333 -2 62 -29.667 62 -83
c0 -8.66699 -0.666992 -17.334 -2 -26.001zM162.999 572.001c12.667 -28 27.6689 -42.001 45.002 -42.001c11.333 0 19.333 4.66699 24 14c3.33301 6 21.333 45 54 117c22.667 50.667 43.667 86.334 63 107.001c-28.667 0 -54.334 -15 -77.001 -45
c-11.333 -14.667 -27.333 -42.334 -48 -83.001c-14.667 -30 -26.667 -45.333 -36 -46c-11.333 -0.666992 -33 24.333 -65 75c-0.666992 0.666992 -7.66699 14 -21 40c-8 16 -14.667 24.333 -20 25c-8 0.666992 -12 -3.66602 -12 -12.999c0 -6 2.33301 -12 7 -18l28 -38
c15.333 -22.667 34.666 -53.667 57.999 -93z" />
    <glyph glyph-name="Ydieresis" unicode="&#x178;" horiz-adv-x="631" 
d="M70 772c1.33301 -0.666992 39.6641 -57.332 114.997 -169.999c73.333 -109.333 117.333 -163.666 132 -162.999c16.667 1.33301 59.334 49.666 128.001 144.999c62.667 87.333 102.667 148.333 120 183c11.333 22 19 33 23 33c2 0 3 -2.66699 3 -8
c0 -16 -8.66699 -51 -26 -105c-10 -32.667 -54.333 -122 -133 -268c-69.333 -130 -107.666 -221 -114.999 -273c-13.333 -97.333 -27.666 -146 -42.999 -146c-10.667 0 -21 28.333 -31 85c-8 47.333 -12 83.333 -12 108c0 52 14.667 106.667 44 164
c-3.33301 20.667 -43.333 94.667 -120 222c-10 17.333 -40.667 52.666 -92 105.999c-44.667 46.667 -65.667 73 -63 79c4 9.33301 16 14 36 14c14 0 25.333 -2 34 -6zM192.998 895.002c-47.333 -32 -71 -63.333 -71 -94c0 -24.667 16 -37.334 48 -38.001
c24.667 -0.666992 49.667 5.33301 75 18c30.667 14 46 32.333 46 55c0 16 -9 31.667 -27 47c4.66699 -7.33301 7 -14.666 7 -21.999c0 -17.333 -7.83301 -31 -23.5 -41s-32.5 -15 -50.5 -15c-21.333 -0.666992 -32 6 -32 20c0 12.667 9.33301 36 28 70zM402.998 895.002
c-47.333 -32 -71 -63.333 -71 -94c0 -24.667 16 -37.334 48 -38.001c24.667 -0.666992 49.667 5.33301 75 18c30.667 14 46 32.333 46 55c0 16 -9 31.667 -27 47c4.66699 -7.33301 7 -14.666 7 -21.999c0 -17.333 -7.83301 -31 -23.5 -41s-32.5 -15 -50.5 -15
c-21.333 -0.666992 -32 6 -32 20c0 12.667 9.33301 36 28 70z" />
    <glyph glyph-name="Zcaron" unicode="&#x17d;" horiz-adv-x="861" 
d="M220 667c196 88.667 315.669 132.999 359.002 132.999c28 0 42 -12 42 -36c0 -47.333 -55.333 -145 -166 -293l-147 -191c-52.667 -69.333 -82 -116.666 -88 -141.999c-2 -7.33301 8.66699 -11 32 -11c15.333 0 31 0.666992 47 2l49 4c43.333 2 97 -7.33301 161 -28
c66.667 -21.333 118 -32 154 -32c30.667 0 65.334 7.66699 104.001 23c25.333 10 39 15 41 15c14.667 0 7 -6.66699 -23 -20c-24 -10.667 -46.667 -19.667 -68 -27c-34 -11.333 -64 -17 -90 -17c-30 0 -76.333 6.33301 -139 19s-111 19.334 -145 20.001
c-72.667 1.33301 -130.334 -5.33398 -173.001 -20.001c-21.333 -7.33301 -51.333 -23 -90 -47c-21.333 -13.333 -39 -20 -53 -20c-16.667 0 -25 9 -25 27c0 34 29.333 95.667 88 185c32 48.667 75 96.334 129 143.001c91.333 78.667 167.666 159.667 228.999 243
c29.333 39.333 44 68.666 44 87.999c0 18 -12.667 27 -38 27c-28.667 0 -74.334 -11.667 -137.001 -35c-72 -26.667 -117.667 -40 -137 -40c-4 0 -6 0.666992 -6 2c0 4.66699 15.333 14 46 28zM340.002 842.999c12.667 -28 27.6689 -42.001 45.002 -42.001
c11.333 0 19.333 4.66699 24 14c3.33301 6 21.333 45 54 117c22.667 50.667 43.667 86.334 63 107.001c-28.667 0 -54.334 -15 -77.001 -45c-11.333 -14.667 -27.333 -42.334 -48 -83.001c-14.667 -30 -26.667 -45.333 -36 -46c-11.333 -0.666992 -33 24.333 -65 75
c-0.666992 0.666992 -7.66699 14 -21 40c-8 16 -14.667 24.333 -20 25c-8 0.666992 -12 -3.66602 -12 -12.999c0 -6 2.33301 -12 7 -18l28 -38c15.333 -22.667 34.666 -53.667 57.999 -93z" />
    <glyph glyph-name="zcaron" unicode="&#x17e;" horiz-adv-x="663" 
d="M134 399c24.667 4 99.668 21.6699 225.001 53.0029c97.333 24 157.333 36 180 36c8.66699 0 13.667 -1.33301 15 -4c6.66699 -13.333 -19.666 -51 -78.999 -113c-38 -39.333 -94.667 -94.333 -170 -165c-62 -56.667 -92.333 -85.667 -91 -87
c4.66699 -4.66699 12.667 -7 24 -7c4.66699 0 21 1.33301 49 4s52.333 3 73 1c44 -4 103 -19 177 -45c66 -23.333 118 -34 156 -32c50 2 78.667 4.66699 86 8l34 29c-8 -23.333 -19.667 -40.333 -35 -51c-24 -16 -63 -24.667 -117 -26
c-34.667 -0.666992 -85.167 8.16602 -151.5 26.499s-116.5 27.166 -150.5 26.499c-38.667 -0.666992 -96.667 -9.83398 -174 -27.501s-135.333 -26.5 -174 -26.5c-7.33301 0 -11 2.33301 -11 7c0 18.667 26.333 54 79 106c38.667 38.667 74.167 70.5 106.5 95.5
s66.166 53.833 101.499 86.5c55.333 50 83 82.667 83 98c0 1.33301 -0.5 3 -1.5 5s-5.83301 3 -14.5 3c-16.667 0 -41.5 -2.33301 -74.5 -7s-57.833 -7 -74.5 -7c-30.667 0 -54.334 4.33301 -71.001 13zM288.001 550.003c12.667 -28 27.6689 -42.001 45.002 -42.001
c11.333 0 19.333 4.66699 24 14c3.33301 6 21.333 45 54 117c22.667 50.667 43.667 86.334 63 107.001c-28.667 0 -54.334 -15 -77.001 -45c-11.333 -14.667 -27.333 -42.334 -48 -83.001c-14.667 -30 -26.667 -45.333 -36 -46c-11.333 -0.666992 -33 24.333 -65 75
c-0.666992 0.666992 -7.66699 14 -21 40c-8 16 -14.667 24.333 -20 25c-8 0.666992 -12 -3.66602 -12 -12.999c0 -6 2.33301 -12 7 -18l28 -38c15.333 -22.667 34.666 -53.667 57.999 -93z" />
    <glyph glyph-name="florin" unicode="&#x192;" horiz-adv-x="539" 
d="M0 319c62.667 46.667 114.33 69.999 154.997 69.999c0 48 1 126 3 234c1.33301 50.667 18.333 93.5 51 128.5s74 52.5 124 52.5c49.333 0 91 -25 125 -75c31.333 -46.667 44.666 -95 39.999 -145c-0.666992 -4.66699 -1.33398 -9.66699 -2.00098 -15
c-0.666992 3.33301 -5 19.333 -13 48c-11.333 38.667 -26 69 -44 91c-27.333 32.667 -62.666 49 -105.999 49c-71.333 0 -107 -40 -107 -120c0 -27.333 3.66699 -61 11 -101l16 -90c3.33301 -22.667 7 -52 11 -88c22.667 -8 41.334 -12 56.001 -12
c24.667 0 55.334 10.333 92.001 31c-51.333 -51.333 -98.333 -76 -141 -74c2 -21.333 3 -43.333 3 -66c0 -95.333 -17.333 -175.333 -52 -240c-42.667 -79.333 -104.667 -119 -186 -119c-31.333 0 -60.333 10.667 -87 32c-29.333 22.667 -43.333 49.334 -42 80.001
c46.667 -53.333 87.334 -80 122.001 -80c44.667 0 78.334 42.333 101.001 127c17.333 65.333 26 144.333 26 237c0 22.667 -0.666992 44 -2 64c-24 7.33301 -45 11 -63 11c-28.667 0 -59 -10 -91 -30z" />
    <glyph glyph-name="circumflex" unicode="&#x2c6;" horiz-adv-x="319" 
d="M93 751c12.667 27.333 27.6689 41 45.002 41c11.333 0 19 -3.83301 23 -11.5s22.333 -47.5 55 -119.5c22.667 -50.667 43.667 -86.334 63 -107.001c-28.667 0 -54.334 15 -77.001 45c-11.333 14.667 -27.333 42.334 -48 83.001c-14.667 30 -26.667 45.333 -36 46
c-11.333 0.666992 -33 -24.333 -65 -75c-0.666992 -0.666992 -7.66699 -14 -21 -40c-8 -16 -14.667 -24 -20 -24c-8 -1.33301 -12 2.66699 -12 12c0 6 2.33301 12.333 7 19l28 38c15.333 22 34.666 53 57.999 93z" />
    </font>
</defs>
</svg>
